<svg width="1080" height="1080" viewBox="0 0 1080 1080" fill="none" xmlns="http://www.w3.org/2000/svg">
<path fill-rule="evenodd" clip-rule="evenodd" d="M534.073 336.869C543.327 237.478 590.362 122.151 664.066 105.063C737.772 87.9787 874.642 141.398 830.992 289.424C793.76 415.687 711.509 447.068 711.509 447.068C711.509 447.068 775.462 428.97 856.662 441.158C937.862 453.347 1029.79 571.991 934.327 659.373C865.422 722.448 681.637 655.686 681.637 655.686C681.637 655.686 821.82 802.135 782.809 894.954C743.799 987.77 659.971 999.178 589.039 951.358C488.379 883.496 528.794 721.132 528.794 721.132C528.794 721.132 447.199 928.917 343.929 916.661C240.66 904.404 167.767 808.23 246.402 722.31C325.04 636.389 395.867 605.199 395.867 605.199C395.867 605.199 199.96 624.464 135.511 542.158C71.6596 460.619 121.665 393.218 188.403 369.245C255.138 345.274 379.211 369.041 379.211 369.041C379.211 369.041 167.281 237.324 261.374 139.228C384.631 10.725 534.073 336.869 534.073 336.869Z" fill="#CDB1D1"/>
<path d="M496.979 543.882C496.348 549.322 494.056 554.025 490.005 557.895C487.523 560.266 484.43 561.485 480.991 562.02C478.775 562.366 476.55 562.446 474.294 562.325C472.728 562.241 471.173 562.121 469.662 561.777C465.971 560.937 462.549 559.522 459.772 556.948C455.81 553.28 453.428 548.849 452.619 543.652C451.897 538.97 452.613 534.472 454.352 530.106C455.117 528.189 456.07 526.365 457.335 524.697C459.831 521.407 463.226 519.318 467.209 518.025C470.287 517.025 473.439 516.646 475.981 517.032C481.555 517.579 485.896 519.269 489.633 522.298C492.306 524.458 494.396 527.051 495.725 530.153C496.596 532.186 497.055 534.316 497.189 536.498C497.337 538.966 497.26 541.432 496.979 543.882ZM528.984 473.591C528.355 479.031 526.064 483.733 522.009 487.602C519.524 489.973 516.425 491.191 512.987 491.726C510.766 492.071 508.541 492.153 506.278 492.031C504.711 491.946 503.156 491.827 501.642 491.483C497.945 490.642 494.523 489.227 491.737 486.652C487.769 482.984 485.384 478.552 484.579 473.356C483.855 468.673 484.572 464.176 486.312 459.809C487.077 457.892 488.033 456.068 489.299 454.399C491.797 451.111 495.194 449.021 499.178 447.728C502.257 446.73 505.42 446.351 507.964 446.737C513.542 447.284 517.886 448.975 521.633 452.006C524.304 454.166 526.396 456.759 527.73 459.86C528.603 461.894 529.062 464.023 529.196 466.205C529.348 468.673 529.268 471.141 528.984 473.591ZM549.868 579.689C549.237 585.135 546.946 589.843 542.892 593.717C540.407 596.09 537.306 597.31 533.869 597.846C531.647 598.192 529.422 598.273 527.161 598.151C525.594 598.067 524.038 597.948 522.524 597.603C518.827 596.762 515.406 595.345 512.62 592.767C508.652 589.097 506.267 584.66 505.465 579.459C504.741 574.772 505.451 570.269 507.199 565.899C507.966 563.979 508.92 562.154 510.186 560.484C512.683 557.191 516.08 555.099 520.064 553.804C523.144 552.803 526.306 552.424 528.85 552.811C534.428 553.358 538.773 555.049 542.519 558.082C545.191 560.245 547.282 562.841 548.614 565.946C549.488 567.981 549.946 570.112 550.081 572.298C550.232 574.768 550.152 577.237 549.868 579.689ZM559.047 521.784C558.418 527.224 556.127 531.927 552.072 535.796C549.587 538.166 546.487 539.384 543.05 539.92C540.829 540.265 538.604 540.346 536.341 540.224C534.774 540.139 533.219 540.021 531.705 539.676C528.008 538.835 524.586 537.42 521.8 534.845C517.832 531.177 515.447 526.746 514.642 521.549C513.918 516.867 514.635 512.369 516.374 508.003C517.14 506.085 518.096 504.261 519.362 502.593C521.86 499.304 525.257 497.215 529.241 495.922C532.32 494.924 535.483 494.544 538.027 494.931C543.605 495.478 547.949 497.169 551.696 500.199C554.367 502.359 556.459 504.952 557.793 508.054C558.666 510.088 559.124 512.216 559.258 514.399C559.41 516.866 559.331 519.334 559.047 521.784ZM606.622 467.375C605.993 472.816 603.702 477.518 599.647 481.387C597.163 483.758 594.063 484.976 590.625 485.511C588.404 485.856 586.179 485.937 583.917 485.815C582.35 485.73 580.794 485.612 579.281 485.268C575.583 484.427 572.161 483.011 569.374 480.436C565.407 476.768 563.023 472.337 562.218 467.14C561.493 462.458 562.21 457.961 563.949 453.594C564.715 451.677 565.67 449.853 566.937 448.184C569.435 444.895 572.831 442.806 576.816 441.513C579.895 440.515 583.057 440.136 585.602 440.522C591.18 441.069 595.525 442.759 599.272 445.79C601.943 447.95 604.034 450.543 605.367 453.644C606.241 455.678 606.699 457.807 606.834 459.99C606.986 462.458 606.906 464.926 606.622 467.375ZM605.736 586.299C605.106 591.739 602.817 596.442 598.767 600.312C596.285 602.683 593.187 603.902 589.754 604.437C587.535 604.783 585.312 604.864 583.053 604.743C581.488 604.658 579.934 604.539 578.422 604.195C574.728 603.354 571.31 601.94 568.527 599.365C564.564 595.697 562.182 591.265 561.378 586.069C560.654 581.386 561.37 576.89 563.111 572.522C563.875 570.605 564.832 568.782 566.097 567.114C568.591 563.825 571.984 561.734 575.964 560.441C579.041 559.442 582.2 559.062 584.741 559.449C590.313 559.995 594.653 561.686 598.395 564.715C601.064 566.876 603.153 569.468 604.483 572.57C605.356 574.604 605.814 576.732 605.948 578.915C606.099 581.382 606.019 583.85 605.736 586.299ZM617.032 528.162C616.402 533.602 614.112 538.306 610.062 542.175C607.58 544.546 604.484 545.765 601.05 546.3C598.831 546.646 596.608 546.726 594.348 546.605C592.783 546.521 591.229 546.401 589.716 546.058C586.023 545.217 582.605 543.802 579.822 541.227C575.859 537.559 573.478 533.129 572.674 527.932C571.95 523.249 572.665 518.752 574.406 514.385C575.171 512.468 576.127 510.645 577.392 508.977C579.886 505.687 583.28 503.597 587.26 502.304C590.336 501.306 593.496 500.926 596.037 501.312C601.608 501.859 605.948 503.548 609.691 506.578C612.359 508.738 614.448 511.331 615.779 514.433C616.652 516.466 617.11 518.596 617.244 520.778C617.395 523.246 617.316 525.712 617.032 528.162ZM667.875 497.329C667.245 502.775 664.955 507.483 660.904 511.357C658.422 513.73 655.325 514.951 651.892 515.487C649.672 515.834 647.45 515.914 645.19 515.793C643.624 515.709 642.07 515.59 640.558 515.246C636.865 514.405 633.448 512.989 630.665 510.412C626.702 506.741 624.32 502.305 623.516 497.103C622.793 492.416 623.51 487.915 625.251 483.543C626.016 481.624 626.971 479.798 628.237 478.128C630.732 474.834 634.126 472.742 638.107 471.447C641.183 470.447 644.342 470.067 646.882 470.453C652.455 471 656.795 472.69 660.538 475.723C663.205 477.886 665.294 480.481 666.624 483.586C667.497 485.621 667.954 487.752 668.088 489.937C668.239 492.407 668.16 494.877 667.875 497.329ZM669.488 560.003C668.859 565.443 666.568 570.146 662.513 574.014C660.029 576.385 656.929 577.604 653.492 578.14C651.271 578.485 649.045 578.566 646.783 578.444C645.216 578.359 643.661 578.239 642.147 577.895C638.45 577.054 635.028 575.639 632.242 573.064C628.274 569.396 625.89 564.964 625.084 559.767C624.359 555.086 625.075 550.589 626.818 546.222C627.582 544.305 628.538 542.481 629.804 540.813C632.302 537.524 635.699 535.434 639.684 534.141C642.763 533.141 645.925 532.764 648.468 533.151C654.047 533.698 658.391 535.388 662.138 538.417C664.809 540.577 666.901 543.171 668.234 546.274C669.107 548.307 669.565 550.437 669.699 552.619C669.852 555.087 669.773 557.553 669.488 560.003Z" fill="#DD8051"/>
</svg>
