<svg width="902" height="995" viewBox="0 0 902 995" fill="none" xmlns="http://www.w3.org/2000/svg">
<path fill-rule="evenodd" clip-rule="evenodd" d="M440.361 540.8C440.361 540.8 343.723 260.607 403.181 93.8868C462.637 -72.8334 589.159 15.9758 604.195 105.206C619.232 194.44 500.315 527.877 500.315 527.877C500.315 527.877 626.105 370.561 767.574 344.404C909.042 318.244 942.631 436.331 850.058 515.451C757.482 594.574 518.111 603.535 518.111 603.535C518.111 603.535 815.149 695.087 820.401 818.438C825.653 941.789 693.066 936.864 615.589 859.991C503.679 748.958 452.204 636.217 452.204 636.217C452.204 636.217 482.476 799.115 373.728 924.726C264.981 1050.34 179.185 980.072 190.796 911.773C204.843 829.138 415.914 607.633 415.914 607.633C415.914 607.633 77.2083 793.955 12.7491 683.281C-65.333 549.215 277.357 541.841 399.644 558.951C399.644 558.951 -6.28077 404.26 1.04224 271.734C8.36525 139.206 189.546 157.292 268.444 261.586C347.341 365.878 440.361 540.8 440.361 540.8Z" fill="#E3D174"/>
</svg>
