<svg width="1080" height="1080" viewBox="0 0 1080 1080" fill="none" xmlns="http://www.w3.org/2000/svg">
<g clip-path="url(#clip0_28_25)">
<path fill-rule="evenodd" clip-rule="evenodd" d="M764.743 631.353C929.333 766.379 859.797 979.784 711.318 966.943C562.841 954.1 527.899 787.958 527.899 787.958C527.899 787.958 504.296 988.187 336.133 982.649C167.969 977.114 89.5167 774.608 285.177 613.213C285.177 613.213 32.7592 636.625 54.1275 439.736C68.4102 308.136 265.194 231.513 419.305 354.983C419.305 354.983 356.375 117.38 548.145 64.7176C731.121 14.4703 805.361 252.641 700.002 374.348C700.002 374.348 861.602 175.41 1009.94 304.115C1133.68 411.489 1068.05 527.147 976.675 588.851C885.299 650.555 764.743 631.353 764.743 631.353Z" fill="#E3D174"/>
<path d="M685.691 502.122C680.702 474.944 666.958 454.154 641.718 441.665C634.493 438.089 626.717 436.247 618.942 435.517C613.284 434.991 611.537 432.467 610.102 427.718C606.441 415.588 601.322 404.092 592.9 394.367C578.952 378.302 560.316 372.811 540.064 371.256C534.441 370.826 528.783 370.826 523.113 372.142C495.84 378.422 474.033 405.552 472.633 432.239C472.238 439.787 472.191 439.895 465.133 441.522C455.659 443.723 446.771 447.359 438.338 452.12C429.462 457.109 420.562 462.527 414.461 470.638C399.018 491.201 390.154 513.977 393.827 540.401C397.02 563.404 408.971 580.773 427.763 593.668C438.661 601.157 450.719 606.3 463.805 608.609C468.59 609.458 471.246 611.348 471.628 616.576C471.844 619.411 473.518 622.162 474.607 624.913C486.557 655.142 521.75 670.082 552.6 661.027C575.029 654.448 590.173 639.029 597.613 617.27C600.867 607.772 605.52 602.042 614.971 599.649C621.705 597.951 627.256 592.903 634.206 592.029C647.938 590.307 657.939 582.244 666.551 572.627C680.667 556.897 686.66 537.793 687.066 516.835C687.066 514.85 687.222 512.864 687.018 510.902C686.719 507.96 686.229 505.029 685.691 502.122Z" fill="#DD8051"/>
<path d="M542.398 533.697C545.569 533.042 548.654 533.612 551.664 534.902C553.609 535.729 555.425 536.783 557.166 538.008C558.37 538.857 559.553 539.728 560.595 540.76C563.121 543.275 565.142 546.113 566.078 549.552C567.41 554.464 567.109 559.194 565.153 563.74C563.39 567.847 560.574 571.083 557.005 573.705C555.436 574.845 553.759 575.833 551.921 576.531C548.278 577.907 544.526 577.886 540.7 576.93C537.744 576.188 535.035 574.919 533.197 573.339C529.016 570.114 526.393 566.599 524.92 562.311C523.867 559.258 523.491 556.142 523.985 553.003C524.297 550.94 524.995 549.004 525.984 547.198C527.091 545.156 528.392 543.221 529.832 541.405C533.057 537.374 537.239 534.762 542.398 533.697ZM499.287 499.662C502.447 499.007 505.532 499.577 508.541 500.866C510.487 501.694 512.304 502.748 514.045 503.973C515.249 504.822 516.432 505.693 517.474 506.725C520 509.24 522.02 512.077 522.956 515.517C524.299 520.429 523.988 525.159 522.032 529.705C520.269 533.811 517.452 537.047 513.883 539.67C512.314 540.809 510.637 541.798 508.799 542.496C505.155 543.872 501.404 543.851 497.578 542.895C494.622 542.153 491.913 540.884 490.075 539.304C485.894 536.079 483.271 532.564 481.798 528.276C480.745 525.223 480.369 522.106 480.864 518.968C481.175 516.904 481.874 514.969 482.863 513.163C483.97 511.121 485.27 509.186 486.721 507.369C489.935 503.339 494.116 500.726 499.287 499.662ZM578.636 492.061C581.796 491.405 584.881 491.986 587.89 493.276C589.836 494.103 591.653 495.146 593.394 496.371C594.598 497.22 595.78 498.091 596.823 499.122C599.349 501.638 601.37 504.476 602.305 507.926C603.649 512.838 603.337 517.557 601.38 522.114C599.618 526.21 596.801 529.445 593.233 532.068C591.664 533.218 589.987 534.196 588.149 534.895C584.505 536.281 580.753 536.249 576.926 535.292C573.971 534.561 571.262 533.282 569.424 531.702C565.243 528.488 562.62 524.974 561.147 520.685C560.094 517.621 559.718 514.504 560.212 511.365C560.524 509.302 561.223 507.378 562.211 505.562C563.319 503.519 564.62 501.595 566.071 499.779C569.285 495.748 573.466 493.136 578.636 492.061ZM537.317 458.891C540.488 458.235 543.572 458.816 546.582 460.095C548.527 460.933 550.344 461.976 552.085 463.201C553.289 464.05 554.472 464.921 555.503 465.952C558.04 468.468 560.06 471.306 560.996 474.756C562.328 479.658 562.017 484.387 560.072 488.945C558.309 493.04 555.493 496.275 551.924 498.898C550.355 500.048 548.678 501.026 546.83 501.725C543.196 503.101 539.444 503.079 535.618 502.122C532.662 501.381 529.954 500.112 528.116 498.532C523.934 495.319 521.312 491.793 519.839 487.504C518.786 484.451 518.409 481.334 518.893 478.196C519.215 476.132 519.914 474.208 520.892 472.392C522.01 470.35 523.3 468.414 524.751 466.598C527.976 462.567 532.157 459.955 537.317 458.891Z" fill="#4D4233"/>
</g>
<defs>
<clipPath id="clip0_28_25">
<rect width="1080" height="1080" fill="white"/>
</clipPath>
</defs>
</svg>
