<svg width="1080" height="1080" viewBox="0 0 1080 1080" fill="none" xmlns="http://www.w3.org/2000/svg">
<path d="M659.416 95.5093C647.273 94.0228 629.928 92.784 621.007 93.0317C611.591 93.0317 593.502 96.0049 576.899 100.465C555.836 105.915 545.429 110.127 533.534 118.056C525.109 123.754 510.985 135.151 502.312 143.327C493.639 151.751 481.745 165.131 476.046 173.307C470.098 181.483 461.425 196.596 456.717 206.755C452.009 216.913 446.31 231.779 444.08 239.707L440.115 253.83C408.892 222.612 394.768 211.462 383.122 205.02C372.962 199.322 353.881 190.65 340.996 185.943C328.111 181.483 311.26 176.775 303.826 175.784C292.923 174.298 284.746 175.289 262.94 180.74C247.824 184.456 222.797 192.632 207.185 198.826C179.432 209.728 178.193 210.471 158.121 231.283C140.776 249.37 136.563 255.316 130.616 271.173C126.651 281.331 122.686 295.454 121.695 302.143C120.704 309.081 118.474 320.23 116.491 326.92C114.509 333.857 113.022 344.511 113.022 351.2C113.022 357.642 115.253 369.782 118.226 378.454C120.952 386.878 128.634 403.23 134.828 414.628C141.519 426.768 153.909 443.368 164.069 454.27C173.98 464.676 187.609 476.568 194.548 480.532C201.486 484.497 207.185 488.709 207.185 489.947C207.185 490.938 201.982 492.921 195.291 494.407C188.848 495.894 172.494 501.097 158.865 506.052C144.74 511.255 127.395 519.927 118.226 526.368C109.553 532.563 96.4199 543.216 88.986 549.906C80.5608 557.834 73.8703 566.754 70.6489 574.682C67.6754 581.62 64.454 593.264 62.9672 600.697C61.7283 608.13 59.2502 619.279 57.5157 625.474C55.7811 631.668 54.7899 643.312 55.0377 651.489C55.2855 659.665 57.7635 674.778 60.4893 684.937C63.2151 695.095 70.649 712.438 76.5961 723.34C82.791 734.241 92.2073 748.116 97.6589 754.31C102.863 760.504 115.5 771.158 125.66 778.095C135.82 785.033 151.679 793.952 161.343 797.669C170.759 801.385 187.609 805.845 198.512 807.827C209.415 809.809 226.018 811.296 235.682 811.543C247.081 811.543 257.984 809.809 267.896 806.34C276.073 803.615 284.25 801.385 285.737 801.385C288.215 801.385 288.958 809.809 288.958 835.576C288.958 855.397 290.197 873.236 291.932 878.191C293.419 882.899 299.366 894.544 304.818 903.711C310.517 912.878 322.907 929.231 332.571 939.637C345.952 954.255 354.377 960.944 368.501 968.129C378.661 973.085 396.255 979.774 407.901 982.499C424.999 986.959 433.424 987.702 452.505 986.464C468.116 985.72 481.497 983.243 492.152 979.279C501.073 976.305 514.95 969.12 523.127 963.67C531.304 958.219 547.163 944.84 558.81 933.938C570.209 923.037 584.333 907.923 589.785 900.49C595.484 892.809 603.909 877.696 608.617 866.547L617.29 846.478C649.999 876.457 667.841 890.827 678 897.765C688.16 904.702 703.771 912.878 712.692 916.099C726.321 920.807 734.003 921.55 763.49 921.55C793.722 921.55 800.412 920.807 815.528 915.604C825.192 912.383 837.334 906.684 842.786 902.968C848.237 899.251 858.149 890.084 865.087 882.651C871.778 875.218 880.947 862.582 885.407 854.406C889.619 846.478 894.823 833.099 897.053 824.922C899.531 815.26 901.018 798.907 901.018 777.847C901.018 755.053 899.779 741.674 897.053 732.011C894.823 724.579 887.885 709.465 881.442 698.563C874.999 687.414 861.866 670.318 851.458 659.665L832.874 640.339C859.884 639.1 875.99 636.375 886.15 633.65C896.31 630.677 910.93 625.969 918.364 623.244C925.798 620.518 939.427 612.838 948.347 606.396C957.268 599.706 972.879 587.07 983.039 577.903C993.199 568.984 1005.09 555.604 1009.55 548.172C1013.77 540.986 1019.22 528.846 1021.2 521.413C1023.18 513.98 1025.41 501.592 1025.91 494.159C1026.4 484.744 1024.92 474.586 1020.95 460.711C1017.48 449.314 1011.04 435.192 1005.84 427.511C1000.63 420.326 990.225 408.681 982.791 401.992C975.357 395.55 959.003 384.896 946.861 378.702C931.745 371.269 917.373 366.066 902.257 363.093C887.141 360.12 872.026 359.129 855.175 359.624C841.547 360.12 825.192 362.102 818.501 364.084C812.059 366.066 806.855 367.057 806.855 366.066C806.855 364.827 809.333 360.12 812.554 355.412C815.776 350.705 820.236 342.281 822.218 336.83C824.449 331.379 827.422 318 829.157 307.099C830.891 296.197 831.635 275.137 831.139 260.024C830.148 235 829.157 230.54 819.245 205.516C808.837 179.005 807.846 177.519 784.801 154.477C764.234 133.912 758.039 129.205 738.711 120.286C726.569 114.587 708.727 107.154 699.063 103.933C689.399 100.712 671.558 96.9959 659.416 95.5093Z" fill="#CDB1D1"/>
<path d="M463.028 405C491.402 404.986 517.424 415.704 533.475 434.597C547.101 425.279 564.689 420.308 584.589 420.298C631.258 420.264 672.966 447.526 673 494.195C673.016 527.313 669.995 549.341 651.562 559.354C664.642 572.489 672.992 589.348 673.001 608.695C673.035 655.64 627.14 685.189 580.471 685.224C555.681 685.236 540.202 676.388 531.133 661.054C516.701 676.995 494.949 686.111 469.27 686.124C422.324 686.158 380.034 655.755 380 608.81C379.986 580.702 393.979 561.041 415.283 549.781C397.424 536.381 386.831 514.924 386.818 488.114C386.784 441.445 416.359 405.034 463.028 405ZM528.349 537.228C524.34 541.678 519.866 545.7 515.002 549.218C519.539 551.594 523.732 554.364 527.521 557.528C529.937 551.968 533.053 547.142 537.024 543.137C533.983 541.28 531.08 539.31 528.349 537.228Z" fill="#E3D174"/>
<path d="M618.255 551.707C618.266 561.102 594.004 562.229 591.255 570.707C588.414 579.494 605.069 596.886 599.755 604.207C594.383 611.585 573.142 601.834 565.755 607.207C558.448 612.534 565.04 640.843 556.255 643.707C547.779 646.457 533.193 618.707 523.801 618.707C514.409 618.718 503.23 644.457 494.755 641.707C485.97 638.854 489.574 616.678 482.255 611.362C474.879 605.989 455.127 611.585 449.755 604.207C444.429 596.897 458.618 579.494 455.755 570.707C453.006 562.24 430.266 559.543 430.255 550.148C430.255 540.765 453.006 535.266 455.755 526.788C458.595 518.001 442.94 501.516 448.255 494.207C453.627 486.817 474.879 497.722 482.255 492.337C489.562 487.01 485.97 463.06 494.755 460.207C503.23 457.446 514.409 479.218 523.801 479.207C533.193 479.207 545.78 456.469 554.256 459.207C563.04 462.06 556.936 488.891 564.255 494.207C571.642 499.58 598.031 484.856 603.414 492.234C608.728 499.544 592.797 518.001 595.66 526.788C598.409 535.266 618.255 542.312 618.255 551.707Z" fill="#4D4233"/>
</svg>
