<?xml version="1.0" encoding="UTF-8"?>
<svg xmlns="http://www.w3.org/2000/svg" xmlns:xlink="http://www.w3.org/1999/xlink" xmlns:bx="https://boxy-svg.com" version="1.1" viewBox="0 0 1920 1864">
  <!-- Generator: Adobe Illustrator 29.7.1, SVG Export Plug-In . SVG Version: 2.1.1 Build 8)  -->
  <defs>
    <style>
      .st0 {
        fill: none;
      }

      .st1 {
        fill: #2bb673;
      }

      .st2 {
        fill: #b2842d;
      }

      .st3 {
        fill: #f27e7b;
      }

      .st4 {
        fill: #8d292b;
      }

      .st5 {
        fill: #010101;
      }

      .st6 {
        fill: #f9da61;
      }

      .st6, .st7, .st8, .st9, .st10 {
        fill-rule: evenodd;
      }

      .st11 {
        fill: #2f4be7;
      }

      .st12 {
        fill: url(#linear-gradient3);
      }

      .st13 {
        fill: #7eb4ff;
      }

      .st14 {
        fill: #e3edc7;
      }

      .st15 {
        fill: #9b6fa5;
      }

      .st16 {
        fill: #7b444c;
      }

      .st7 {
        fill: #597227;
      }

      .st17 {
        fill: #707070;
      }

      .st18 {
        fill: #e6322f;
      }

      .st19 {
        stroke-opacity: .37;
      }

      .st19, .st20, .st21, .st22, .st23, .st24 {
        stroke: #000;
      }

      .st19, .st8, .st9, .st10 {
        stroke-miterlimit: 4;
        stroke-width: 1.07px;
      }

      .st25 {
        fill: #cdf3ff;
      }

      .st26 {
        fill: #f5846f;
      }

      .st27 {
        fill: #f6ceb4;
      }

      .st28 {
        fill: #f2a99e;
      }

      .st29 {
        fill: #d99288;
      }

      .st30 {
        fill: #3c2415;
      }

      .st31 {
        fill: #3faca9;
      }

      .st32 {
        fill: #6f4d55;
      }

      .st33 {
        fill: #cff2fb;
      }

      .st34 {
        fill: #139146;
      }

      .st35 {
        fill: #9cc240;
      }

      .st36 {
        fill: #f68c47;
      }

      .st20 {
        fill: url(#linear-gradient4);
      }

      .st20, .st21, .st22, .st23, .st24 {
        stroke-opacity: .2;
      }

      .st21 {
        fill: url(#linear-gradient1);
      }

      .st22 {
        fill: url(#linear-gradient2);
      }

      .st37 {
        fill: #de8c84;
      }

      .st38 {
        fill: #bbd05d;
      }

      .st39 {
        fill: #a4b3ff;
      }

      .st8 {
        fill: #4084ff;
      }

      .st8, .st9, .st10 {
        stroke: #7ea2b1;
      }

      .st40 {
        fill: #d31579;
      }

      .st41 {
        fill: #f1b0ab;
      }

      .st23 {
        fill: url(#linear-gradient);
      }

      .st42 {
        fill: #fff;
      }

      .st43 {
        fill: #cc3b20;
      }

      .st44 {
        fill: #c8f28c;
      }

      .st45 {
        fill: #b9e6f4;
      }

      .st46 {
        fill: #fbcac3;
      }

      .st47 {
        fill: #7ea2b1;
      }

      .st48 {
        fill: #821919;
      }

      .st24 {
        fill: #2e3d3b;
      }

      .st49 {
        fill: #edc7e7;
      }

      .st50 {
        fill: #6f4802;
      }

      .st51 {
        fill: #eea5c9;
      }

      .st52 {
        fill: #a5cd69;
      }

      .st53 {
        fill: #5e6f88;
      }

      .st54 {
        fill: #84c98f;
      }

      .st55 {
        fill: #4078ab;
      }

      .st56 {
        fill: #f7cfb6;
      }

      .st9 {
        fill: #ff0;
      }

      .st57 {
        fill: #f69284;
      }

      .st58 {
        fill: #eaf5ff;
      }

      .st10 {
        fill: #00c8c4;
      }

      .st59 {
        fill: #583637;
      }

      .st60 {
        fill: #7aaeee;
      }

      .st61 {
        fill: #edc7c7;
      }

      .st62 {
        fill: #fdbb46;
      }

      .st63 {
        fill: #7d3937;
      }

      .st64 {
        fill: #d9d8d7;
      }

      .st65 {
        fill: #47474a;
      }

      .st66 {
        fill: #b47f4e;
      }

      .st67 {
        clip-path: url(#clippath);
      }
    </style>
    <clipPath id="clippath">
      <rect className="st0" width="1920" height="1864"/>
    </clipPath>
    <linearGradient id="linear-gradient" x1="547.46" y1="361" x2="547.46" y2="203" gradientTransform="translate(0 1864) scale(1 -1)" gradientUnits="userSpaceOnUse">
      <stop offset="0" stop-color="#339846"/>
      <stop offset="1" stop-color="#42b11d"/>
    </linearGradient>
    <linearGradient id="linear-gradient1" x1="1389.5" y1="410" x2="1389.5" y2="197" gradientTransform="translate(0 1864) scale(1 -1)" gradientUnits="userSpaceOnUse">
      <stop offset="0" stop-color="#84a533"/>
      <stop offset="1" stop-color="#83a431"/>
    </linearGradient>
    <linearGradient id="linear-gradient2" x1="1635.52" y1="494" x2="1635.52" y2="252" gradientTransform="translate(0 1864) scale(1 -1)" gradientUnits="userSpaceOnUse">
      <stop offset="0" stop-color="#6fb147"/>
      <stop offset="1" stop-color="#5ba032"/>
    </linearGradient>
    <linearGradient id="linear-gradient3" x1="898.76" y1="-322.52" x2="1031.76" y2="535.77" gradientTransform="translate(0 1864) scale(1 -1)" gradientUnits="userSpaceOnUse">
      <stop offset=".22" stop-color="#6fad70"/>
      <stop offset=".86" stop-color="#9dc457"/>
    </linearGradient>
    <linearGradient id="linear-gradient4" x1="94.75" y1="507" x2="94.75" y2="265" gradientTransform="translate(0 1864) scale(1 -1)" gradientUnits="userSpaceOnUse">
      <stop offset="0" stop-color="#339846"/>
      <stop offset="1" stop-color="#42b11d"/>
    </linearGradient>
  </defs>
  <g id="Layer_1">
    <g id="_x3C_defs">
      <bx:export>
        <bx:file width="1920" height="1864" format="svg" path="PRELOADER.svg"/>
        <bx:file format="svg" path="biggersvg.svg"/>
        <bx:file format="svg" href="#object-0"/>
        <bx:file path="Untitled 2.svg" format="svg" href="#object-1"/>
        <bx:file path="main.svg" format="svg" href="#object-2"/>
        <bx:file path="Untitled 4.svg" format="svg" href="#object-1"/>
        <bx:file path="Untitled 5.svg" format="svg" href="#object-1"/>
        <bx:file path="Untitled 6.svg" format="svg" href="#object-3"/>
        <bx:file path="Untitled 8.svg" format="svg" href="#object-3"/>
        <bx:file path="Untitled 7.svg" format="svg" href="#object-4"/>
      </bx:export>
    </g>
    <g className="st67">
      <g id="object-2">
        <rect id="object-1" className="st33" width="1920" height="1864"/>
        <path className="st42" d="M1913.92,1797.65c.35,9.98,5.93,25.23,5.93,25.23,0,0,9.23-11.93,10.42-20.45,1.18-8.52-1.48-20.04-3.85-19.52-2.37.51-2.02,10.9-4,3.83-1.98-7.06-8.84.94-8.5,10.91h0Z"/>
        <path className="st42" d="M1934.61,1811.83c-5.78.29-14.79,9.46-14.79,9.46,0,0,6.63,16.29,11.53,18.6,4.9,2.3,11.65-1.95,11.42-6.06-.22-4.1-6.25-3.82-2.09-7.02,4.15-3.19-.28-15.28-6.07-14.98Z"/>
        <path className="st42" d="M1925.98,1848.1c-.19-9.98-5.53-25.49-5.53-25.49,0,0-9.42,11.51-10.73,19.98-1.32,8.46,1.17,20.09,3.55,19.68,2.38-.4,2.19-10.8,4.06-3.65,1.86,7.16,8.85-.53,8.65-10.52Z"/>
        <path className="st42" d="M1905.19,1831.82c5.78.49,15.17-7.43,15.17-7.43,0,0-5.86-17.14-10.64-20.1-4.79-2.96-11.71.36-11.67,4.49.04,4.12,6.06,4.65,1.78,7.27-4.29,2.62-.43,15.27,5.36,15.77Z"/>
        <path className="st34" d="M1919.45,1830.31c2.43,0,4.39-3.4,4.39-7.59s-1.96-7.59-4.39-7.59-4.4,3.4-4.4,7.59,1.97,7.59,4.4,7.59Z"/>
        <path id="object-3" className="st58" d="M2139,439.01s-213.17,48.27-219.04,109.37c-33.11,2.37-60.39,17.11-70.24,36.87-18.14-15.7-46.12-25.78-77.59-25.78-54.68,0-99.11,30.42-99.11,67.92,0,1.69.33,3.33.5,4.99-2.04-.14-4.09-.28-6.17-.28-38.79,0-70.24,24.51-70.24,54.61,0,5.69,1.08,11.2,3.17,16.36-71.91,4.45-128.94,61.34-131.32,131.82-5.05,5.04-9.71,10.33-13.84,15.94-14.27-9.85-33.6-15.94-54.9-15.94-39.79,0-72.64,21.21-78.42,48.79-82.38,2.64-147.16,28.05-147.16,59.05,0,3.46.95,6.82,2.5,10.12-60.67,6.74-111.57,23.72-141.82,46.3-23.36-20.33-69.68-34.24-123.14-34.24-76.93,0-139.32,28.79-139.32,64.18,0,3.08.59,6.04,1.5,9.01-3.48.16-6.92.27-10.35.55-18.22-61.51-72.74-106.18-137.32-106.18-23.82,0-46.28,6.01-66.07,16.77-24.99-15.03-60.42-24.4-99.78-24.4-4.39,0-8.73.19-13.02.41-12.31-45.02-66.15-78.87-130.81-78.87-13.29,0-26.1,1.49-38.21,4.16-14.58-19.64-45.49-33.27-81.26-33.27-14.56,0-28.2,2.25-40.38,6.24-7.31-66.49-56.84-123.31-126.97-153.31,11.46-12.52,18.19-27.56,18.19-43.8,0-43.31-63.39-78.45-63.39-78.45l.42,837.78,1073.77,2.63,1073.77,2.63,6.03-952h.01Z"/>
        <path id="object-4" className="st42" d="M1919.96,706.01s-192.16,50.77-197.04,113.47c-29.89,2.63-54.42,17.91-63.18,38.23-16.48-15.99-41.82-26.17-70.23-25.98-49.37.33-89.29,31.79-89.03,70.25.01,1.73.31,3.42.48,5.11-1.84-.13-3.69-.26-5.57-.25-35.02.23-63.27,25.55-63.06,56.43.04,5.84,1.05,11.48,2.97,16.76-64.89,4.99-116.01,63.67-117.68,135.97-4.53,5.2-8.69,10.65-12.39,16.43-12.95-10.02-30.45-16.15-49.68-16.02-35.93.23-65.45,22.18-70.48,50.5-74.37,3.2-132.69,29.65-132.48,61.44.02,3.55.91,6.99,2.33,10.36-54.73,7.27-100.59,24.99-127.75,48.32-21.22-20.71-63.14-34.69-111.42-34.38-69.47.46-125.6,30.36-125.36,66.65.02,3.16.57,6.2,1.42,9.23-3.14.19-6.25.32-9.34.63-16.87-62.97-66.4-108.46-124.71-108.07-21.51.14-41.75,6.44-59.55,17.59-22.66-15.26-54.73-24.66-90.26-24.43-3.96.03-7.88.25-11.75.51-11.42-46.1-60.26-80.5-118.65-80.11-12,.08-23.55,1.68-34.47,4.49-13.3-20.06-41.3-33.85-73.6-33.63-13.15.08-25.45,2.47-36.42,6.63-7.05-68.14-52.16-126.12-115.69-156.47,10.26-12.9,16.24-28.37,16.13-45.03-.29-44.42-57.77-80.08-57.77-80.08l6.05,859.2,969.58-3.69,969.58-3.69-.99-976.38h.01Z"/>
        <path className="st45" d="M1436.06,1295.71c-14.9-.15-26.18,4.21-37.88,10.18-14.4,7.35-29.43,17.16-46.96,19.61-17.52,2.45-37.56-2.45-52.58,0-15.03,2.45-25.04,12.25-43.2,26.47-18.16,14.21-44.45,32.85-76.37,50-31.93,17.16-69.48,32.84-112.68,42.16-43.19,9.32-92.02,12.25-142.1,10.3-50.08-1.96-101.41-8.83-175.28-30.4-73.87-21.57-266.67-138.03-350.31-138.03s-255.82,96.85-257.7,96.85l341.34,494.15h1475.66v-427.61c-47.93-8.73-95.14-12.66-147.99-22.41-53.14-9.81-111.98-25.5-160.81-44.13-48.83-18.62-87.64-40.19-120.81-56.37-33.17-16.18-60.72-26.96-81.38-29.91-3.88-.55-7.51-.83-10.95-.86h0Z"/>
        <path className="st25" d="M-124,1391.01v318.06c17.99-.95,35.88-1.96,53.18-2.86,92.07-4.78,168.27-5.57,252.41-7.17,84.14-1.59,176.2-3.98,291.3-8.36,115.09-4.38,253.2-10.75,410.75-17.52,157.56-6.77,334.56-13.93,394.49-21.89,59.92-7.96,2.77-16.72-73.82-31.84-76.59-15.13-172.64-36.63-248.04-56.53s-130.17-38.21-184.54-49.76c-54.37-11.54-108.34-16.32-177-19.11-68.66-2.79-152-3.58-232.56-9.95-80.56-6.37-158.35-18.31-226.21-33.44-67.86-15.13-125.81-33.44-187.72-46.58-24.16-5.13-48.87-9.44-72.23-13.06h-.01Z"/>
        <path className="st54" d="M811.91,1573.02c-39.08-.25-77.02,3.56-114.58,11.42-54.64,11.43-108.48,31.45-167.08,37.17-58.6,5.72-121.95-2.86-181.34-13.58-59.39-10.72-114.82-23.59-163.12-29.31-48.3-5.72-89.48-4.29-135.41,6.43-45.93,10.72-96.61,30.73-197.96,53.6-101.36,22.87-253.41,48.6-336.55,65.04-11.56,2.29-21.69,4.39-30.87,6.39v38.27h1866.63v-117.87c-9.92-.94-20.03-1.75-30.32-2.55-83.14-6.43-178.17-12.15-256.56-22.16s-140.16-24.3-198.75-30.02c-18.31-1.79-36.31-2.74-54.08-2.85v.02Z"/>
        <path className="st38" d="M1743,1678.9l-782,105.1s113.48-136.57,380.33-161.3c266.84-24.73,401.67,56.2,401.67,56.2Z"/>
        <path className="st52" d="M1928,1642.9l-782,105.1s113.48-136.57,380.33-161.3c266.84-24.73,401.67,56.2,401.67,56.2Z"/>
        <path className="st23" d="M598.59,1648.04c-6.83,14.06-49.26,12.61-50.24,2.91-.98-9.69-19.02,0-19.02,0,0,0-12.68,18.91-27.31,4.85-14.63-14.06-17.56-7.76-26.83-47.51-9.27-39.76-8.78-24.73,23.9-78.54,32.68-53.82,104.86-12.12,104.86,1.94s11.22-3.88,16.1,31.99c4.88,35.88,7.31,29.03,1.45,35.82s3.24,20.99-1.45,23.5c-4.7,2.51-14.63,10.98-21.46,25.04Z"/>
        <path className="st21" d="M1458.47,1649.53c-9.21,18.96-66.46,17-67.77,3.92-1.32-13.07-25.67,0-25.67,0,0,0-17.1,25.49-36.84,6.54-19.74-18.95-23.69-10.46-36.19-64.05-12.5-53.6-11.85-33.33,32.24-105.88,44.08-72.55,141.47-16.34,141.47,2.61s15.13-5.23,21.71,43.14c6.58,48.36,9.86,39.13,1.96,48.28s6.62,0-1.96,31.68c-8.58,31.68-19.74,14.81-28.95,33.76Z"/>
        <path className="st35" d="M2122,1633.18l-696,93.5s101-121.5,338.5-143.5,357.5,50,357.5,50Z"/>
        <path className="st24" d="M555.28,1704.7l-10.66,3.3-1.85-46.18c-8.96-6.71-12.08-13.42-15.76-28.28,5.64,13.17,9.04,19.81,17.62,23.56.51-8.98,2.39-17.41,5.1-31.1-.85,12.67-1.06,19.49,1.39,28.75,0,0,21.79-20.27,20.86-17.44-.93,2.83-16.23,16.49-20.86,24.51-4.64,8.01,2.54,26.13,4.17,42.88Z"/>
        <path className="st24" d="M1397.71,1711.57l-14.22,4.43-2.47-61.95c-11.95-9-16.1-18-21.02-37.94,7.52,17.67,12.05,26.58,23.49,31.61.68-12.05,3.18-23.36,6.8-41.72-1.13,16.99-1.41,26.15,1.85,38.56,0,0,29.06-27.18,27.82-23.39-1.23,3.8-21.63,22.13-27.82,32.88-6.18,10.74,3.4,35.06,5.57,57.52Z"/>
        <path className="st22" d="M1708.71,1592.15c-10.45,21.54-59.72,26.74-61.21,11.89-1.49-14.86-44.74-7.43-44.74-7.43,0,0-19.4,28.96-41.79,7.43-22.38-21.54-26.86-11.89-41.03-72.78-14.18-60.89-13.43-37.87,36.56-120.29,49.99-82.43,160.42-18.57,160.42,2.97s27.12,5.01,35.58,34.06,8.95,53.6,0,64-7.28-2.33-12.5,40-20.84,18.62-31.29,40.15Z"/>
        <path className="st24" d="M1642.36,1669.97l-16.35,5.03-2.84-70.4c-13.74-10.22-18.51-20.46-24.17-43.11,8.65,20.08,13.86,30.2,27.01,35.92.79-13.69,3.66-26.55,7.82-47.41-1.3,19.31-1.62,29.71,2.14,43.82,0,0,33.41-30.89,31.99-26.58-1.43,4.31-24.89,25.15-31.99,37.36-7.11,12.21,3.9,39.84,6.39,65.37Z"/>
        <path className="st12" d="M838.67,1715.61c-312.67-19.11-584.87-134.68-853.67-133.61l49,296h1920v-231c-82.17,9.28-802.67,87.71-1115.33,68.61Z"/>
        <path className="st7" d="M-984,1884.63v-356.63c43.05,8.78,80.62,38.22,106.1,80,29.71-20.88,63.93-32.81,100.37-32.81,107.39,0,195.62,103.46,205.53,235.69,1.37-.09,2.73-.13,4.11-.13,16.06,0,31.21,4.88,44.59,13.51-2.1-14.43-3.2-29.31-3.2-44.5,0-135.37,86.97-245.11,194.26-245.11,84.37,0,156.17,67.88,182.99,162.72,19.13-12.95,40.99-20.31,64.22-20.31,46.33,0,87.24,29.25,111.78,73.91,31.28-74.79,93.51-125.77,165.18-125.77,76.04,0,141.45,57.36,170.54,139.67,13.66-7.22,90.26,58.55,57.42,108.37-72.09,109.39-386.67,11.39-1403.89,11.39Z"/>
        <path className="st20" d="M24.8,1579.15c28.21,35.84,75.36,19.31,76.85,4.46,1.49-14.85,29.1,0,29.1,0,0,0,19.4,28.96,41.78,7.43,22.39-21.54,26.86-11.89,41.04-72.78,14.18-60.89,13.43-37.87-36.56-120.29-49.99-82.43-160.42-18.57-160.42,2.97s-17.16-5.94-24.62,49.01c-7.46,54.95-30.91,50.65-21.96,61.04,8.95,10.4,9.78-21.32,15,21,5.22,42.33,11.58,11.33,39.79,47.16Z"/>
        <path className="st24" d="M119.36,1648.98l-16.35,5.03-2.84-70.41c-13.74-10.22-18.51-20.45-24.17-43.1,8.65,20.07,13.86,30.19,27.01,35.92.79-13.7,3.66-26.55,7.82-47.41-1.3,19.31-1.62,29.71,2.13,43.82,0,0,33.41-30.89,31.99-26.58-1.42,4.31-24.88,25.14-31.99,37.35-7.11,12.22,3.9,39.85,6.4,65.38Z"/>
        <path className="st7" d="M2841.7,1823.08l-19.9-356.08c-42.5,11.17-78.36,42.66-101.47,85.8-30.84-19.19-65.67-29.19-102.04-27.16-107.23,5.99-189.55,114.21-192.07,246.79-1.36-.01-2.73.03-4.11.1-16.03.9-30.89,6.61-43.76,15.98,1.28-14.53,1.56-29.45.71-44.61-7.55-135.16-100.51-239.88-207.63-233.9-84.25,4.71-152.14,76.5-173.63,172.69-19.82-11.87-42.05-18-65.25-16.7-46.26,2.58-85.47,34.08-107.48,80.03-35.4-72.93-100.38-120.36-171.94-116.36-75.92,4.24-138.02,65.17-162.48,148.97-14.04-6.45-86.85,63.5-51.29,111.41,78.08,105.2,386.7-10.2,1402.34-66.96Z"/>
        <path className="st57" d="M724.88,1634.49c-21.69-9.8-57.9-4.63-66.04-1.04-8.15,3.58-32.54,31.26-34.35,33.33-1.81,2.06,18.91,24.84,23.2,21.23,4.29-3.6,7.92-14.95,11.15-13.16,3.24,1.79-11.15,55.21-15.44,65.42-4.29,10.21,108.91-4.77,113.82-10.21,4.91-5.45-10.65-85.77-32.33-95.57h0Z"/>
        <path className="st17" d="M1212.15,1683.92s.66-.96.98-1.45c.33-.48.65-.96.97-1.44.64-.96,1.28-1.91,1.91-2.86,1.26-1.9,2.48-3.79,3.67-5.66,2.38-3.74,4.62-7.42,6.74-11.04,4.23-7.24,7.96-14.25,11.21-21.05,6.51-13.59,11.14-26.34,14.22-38.39,6.17-24.1,6.15-45.51,2.6-65.47-7.1-39.92-28.28-74.24-42.25-113.8-27.99-79.01,22.69-182.92,22.69-182.92l-.9-.44s-50.7,104.29-22.73,183.68c14.01,39.65,35.14,73.9,42.2,113.64,3.53,19.87,3.56,41.06-2.58,65.05-3.07,12-7.67,24.66-14.16,38.2-3.24,6.77-6.95,13.75-11.17,20.97-2.11,3.61-4.35,7.28-6.72,11.01-1.19,1.87-2.4,3.74-3.66,5.64-.63.95-1.26,1.9-1.9,2.86-.32.48-.65.96-.97,1.44-.33.48-.99,1.45-.99,1.45,0,0,.83.56.83.56Z"/>
        <path className="st64" d="M863.38,1748.29c0-5.39-7.16-25.21-19.1-37.5,0,0-22.99,1.56-5.92,27.64,17.07,26.09,25.01,15.25,25.01,9.86h0Z"/>
        <path className="st64" d="M863.38,1748.29c0-5.39-7.16-25.21-19.1-37.5,0,0-22.99,1.56-5.92,27.64,17.07,26.09,25.01,15.25,25.01,9.86h0Z"/>
        <path className="st5" d="M863.38,1748.29c0-5.39-7.16-25.21-19.1-37.5,0,0-22.99,1.56-5.92,27.64,17.07,26.09,25.01,15.25,25.01,9.86h0Z"/>
        <path className="st64" d="M960.08,1785.99c-5.53-3.18-24.5-9.93-41.65-8.2,0,0-12.9,18.88,18.4,21.63,31.3,2.74,28.77-10.26,23.24-13.44h0Z"/>
        <path className="st64" d="M960.08,1785.99c-5.53-3.18-24.5-9.93-41.65-8.2,0,0-12.9,18.88,18.4,21.63,31.3,2.74,28.77-10.26,23.24-13.44h0Z"/>
        <path className="st5" d="M960.08,1785.99c-5.53-3.18-24.5-9.93-41.65-8.2,0,0-12.9,18.88,18.4,21.63,31.3,2.74,28.77-10.26,23.24-13.44h0Z"/>
        <path className="st56" d="M926.72,1701.33l-52.48-3.2c-.83,8.85-32.94,10.92-34.55,15.7-1.61,4.79,12.68,22.31,18.21,18.22,5.53-4.08.03-5.69,4.13-8.19,31.02-5.72,60.16-2.66,64.69-22.53h0Z"/>
        <path className="st56" d="M918.89,1777.11c8.83-24.55,13.12-38.99,11.04-74.64l29.69-8.2c-6.69,31.66-10.23,49.41-23.24,81.03l7.82,6.12c-9.9,2.72-15.45,1.68-25.31-4.31Z"/>
        <g>
          <path className="st27" d="M1015.95,1498.52c2.14-3.37,2.42-3.74,4.68-7.03.83-1.22,1.75-2.41,2.32-3.77.64-1.54.52-3.25.44-4.88-.06-1.01-.28-2.23.22-3.18.51-.99,1.75-.99,2.43-.17.72.88.87,2.21,1.29,3.25.07.18.19.33.36.4.27.09.54-.18.67-.35.81-1.05,1.2-1.66,1.68-2.29.77-1.01,2.31-3.7,3.91-3.26.62.18,1.09,1.04,1.02,1.57-.11.86-.4,1.69-.75,2.48-.17.4-.37.79-.57,1.18-.16.31-.5.77-.33,1.15.14.31.55.17.77.04.25-.14.46-.36.66-.57.75-.81,1.46-1.69,2.32-2.39.41-.34.84-.67,1.33-.88.39-.16.84-.24,1.22-.05.26.14.45.4.57.68.25.62.18,1.35-.06,1.98-.3.8-.77,1.5-1.24,2.2-.49.73-.99,1.45-1.46,2.2-.1.16-.2.34-.15.53.05.19.27.31.47.31.21,0,.4-.1.57-.2.47-.28.82-.65,1.23-1,.43-.36.88-.69,1.34-1,.51-.34,1.07-.68,1.68-.63,1.11.08,1.67,1.17,1.32,2.25-.35,1.06-3.35,4.09-3.81,4.58-2.82,2.98-5.59,6.06-8.03,9.36-7.07,8.8-3.14,3.83-6.14,7.82"/>
          <path className="st56" d="M871.88,1569.07l-24.43-5.04s-.83,11.35-13.15,13.87c-12.32,2.52-33.95-4.65-39.83-9.23l-7.54,13.02s40.13,15.75,50.55,15.54c10.42-.22,22.37-10.44,34.4-28.16Z"/>
          <path className="st56" d="M974.58,1546.27l-.6-18.91c2.42,1.05,10.54,4.2,15.88,1.91,6.32-2.73,18.4-17.82,26.26-30.92l9.8,10.49s-18.65,30.12-25.32,34.6c-6.67,4.48-15.43,3.93-26.01,2.83Z"/>
          <path className="st56" d="M801.43,1572.39c-4.14-2.04-8.06-4.56-12.72-7.16-1.55-.69-2.99-2.15-4.37-3.15-1.56-1.13-2.48-2.87-3.38-4.52-.57-1.03-1.09-2.35-2.14-2.99-1.1-.66-2.31.07-2.49,1.27-.18,1.3.49,2.69.7,3.96.04.21.02.43-.12.6-.2.25-.63.14-.85.06-1.44-.55-2.19-.93-3.04-1.26-1.38-.53-4.51-2.26-5.8-.88-.51.54-.45,1.66-.06,2.15.64.77,1.42,1.42,2.23,1.98.42.29.84.56,1.28.82.35.21.96.47,1.02.94.05.39-.43.49-.72.49-.34.01-.68-.07-1-.17-1.23-.35-2.46-.79-3.72-.97-.61-.09-1.23-.16-1.84-.07-.47.07-.97.26-1.22.67-.18.29-.21.66-.15,1.01.13.76.64,1.43,1.25,1.91.77.6,1.66,1.02,2.55,1.42.92.42,1.85.84,2.76,1.29.2.1.4.22.47.43.07.22-.08.46-.28.58-.21.12-.45.14-.68.14-.63,0-1.19-.15-1.81-.25-.64-.09-1.28-.16-1.92-.19-.7-.04-1.46-.03-2.02.37-1.04.74-.93,2.14.07,2.98.98.83,5.76,2.04,6.5,2.24,4.57,1.26,9.15,2.64,13.54,4.43,12.26,4.44,5.71,1.73,11.07,3.86"/>
          <animateTransform accumulate="none" additive="sum" attributeName="transform" begin="0s" calcMode="spline" dur="2s" fill="freeze" keySplines="0.42 0 0.58 1; 0 0 1 1" keyTimes="0; 0.503613; 1" repeatCount="indefinite" restart="always" type="rotate" values="0;-2;0"/>
        </g>
        <path className="st51" d="M931.47,1519.33c-15.28,24.9-25.58,19.12-44.24,5.24-27.38,11.64-49.29,41.16-48.76,45.09.53,3.92,16.66,7.37,29.67,7.33,0,0,4.36-5.52,5.7-3.41,1.33,2.11-16.68,112.16-16.16,121.6.53,9.44,128.66,12.84,129.99-1.32,1.33-14.16-31.02-142.56-29.42-146.49,1.61-3.92,15.38,4.97,19.35,6.29,3.97,1.32,5.3-23.33,0-29.09-5.3-5.76-27.75-9.92-46.12-5.24Z"/>
        <path className="st42" d="M893.63,1519.97l-6.33,4.95c21.46,17.49,31.42,16.04,45.27-6.02l-10.41-.46c-11.77,13.69-17.49,14.1-28.52,1.53h0Z"/>
        <path className="st56" d="M923.51,1521.68c.14-11.2-2.48-12.44,0-18.71h-29.87s4.93,6.83.96,17.49c-3.97,10.66,28.77,12.42,28.9,1.22h0Z"/>
        <path className="st42" d="M911.29,1537l-23.54-11.77s-4.07,23.99,7.24,26.71c11.32,2.71,16.29-14.94,16.29-14.94Z"/>
        <path className="st42" d="M911.74,1537l20.82-18.1s11.1,22.18,1.2,28.3c-9.9,6.12-22.02-10.2-22.02-10.2Z"/>
        <path className="st59" d="M739.91,1755.58c5.38-.16,16.65-10.12,9.77-27.98h-102.43l-26.27,36.65c4.65,17.1,12.61,21.48,40.76,15.65,10.53,24.92,36.31,15.81,78.18,4.34,9.59-18.94-5.38-28.5,0-28.66h0Z"/>
        <path className="st28" d="M672.98,1629.91c-.14-10.37,2.43-11.52,0-17.33h29.26s-4.83,6.34-.94,16.22c3.89,9.89-28.18,11.52-28.32,1.13v-.02Z"/>
        <path className="st55" d="M656.88,1663.26c-2.58-11.7-1.43-17.07-.97-28.77l8.26-2.59c.42,13.5-2.06,22.36,2.51,29.94,13.3,1.85,23.68-.52,35.2-6.12,3.77-11.36,2.09-13.09.87-26.34l5.33.43c18.04,27.14,23.9,33.76,33.1,63.6l11.91-4.93c2.03,2.43,2.23,3.77,2.16,6.13l-14.07,6.35c4.28,21.72-14.16,68.73-23.42,71.66-9.26,2.93-70.62-14.38-70.62-14.38,11.96-34.98,12.72-56,7.87-94.98h1.89Z"/>
        <g>
          <path className="st28" d="M626.65,1671.2l12.36,13.26c.1.01,0-.11.05,0l-.24-.11c-1.99-.21-11.82,15.36-23.9,37.57l-18.2-11.98c10.76-16.82,17.16-24.76,29.93-38.75Z"/>
          <path className="st53" d="M598.72,1701l23.96,15.73c1.93,3.2-30.65,37.65-38.4,39.3-7.76,1.66-4.49-3.25-2.7-4.74,0,0-6.11,1.7-7.48-.71-1.3-2.28,4.92-6.2,5.6-6.63-.6.36-5.49,3.21-8.55,1.45-3.26-1.88,6.41-8.82,6.41-8.82,0,0-8.51,4.09-10.14,0-1.63-4.1,16.34-11.65,16.34-11.65,0,0-11.84-2.56-8.77-6.06,3.08-3.49,16.61-1.92,19.02-10.58l4.72-7.29h0Z"/>
          <path className="st28" d="M698.46,1678.3c-16.55,19.39-27.34,30.49-49.54,50.64l11.13,16.66c32.09-18.82,45.67-31.05,58.95-56.98l-20.54-10.32Z"/>
          <path className="st53" d="M669.82,1747.05l-13.08-25.32-7.73,4.06c-6.4,6.38-17.41-1.55-21.83,0-4.41,1.56,4.63,9.53,4.63,9.53,0,0-22.01,0-23.04,3.07-1.03,3.06,11.86,4.08,11.86,4.08,0,0-11.86,1.36-9.96,4.58,1.9,3.22,8.24,2.88,8.24,2.88,0,0-8.24,1.03-8.24,3.07s6.17,4.24,6.17,4.24c-2.3.44-9.27,1.21,0,5.45,9.27,4.24,53.05-11.91,52.96-15.63h0Z"/>
          <animateTransform accumulate="none" additive="sum" attributeName="transform" begin="0s" calcMode="spline" dur="1.99s" fill="freeze" keySplines="0.42 0 0.58 1; 0 0 1 1" keyTimes="0; 0.515313; 1" repeatCount="indefinite" restart="always" type="translate" values="0 0;0 -2;0 0"/>
        </g>
        <path className="st2" d="M738.55,1784.72c4.84-15.88,3.09-17.98,0-27.02,15.48-6.62,24.37-7.9,37.75-5.34,13.38,2.56,0,49.97-9.43,47.63s-7.41-18.31-7.41-18.31c-8.03-.83-10.99,0-20.91,3.03h0Z"/>
        <path className="st57" d="M713.71,1636.16c2.06-2.66,2.1-1.96.9.76l24.25,20.55s-15.64,37.39-16.69,41.04c-1.06,3.65-37.45-5.33-31.32-16.88,4.62-8.71,20.07-36.32,23.77-44.71l-.9-.76h0Z"/>
        <path className="st46" d="M1151.86,1638.98l18.09-6.17c-.3,2.6,3.39-8.44,7.19-4.09,4.5,5.17,22.65,12.11,37.63,15.65l-7.23,12.36s-34.62-8.69-40.91-13.67c-6.3-4.98-12.7,6.24-14.77-4.08Z"/>
        <path className="st46" d="M1214.57,1644.28c3.89,1.02,4.33,1.18,8.18,2.34,1.41.42,2.84.94,4.32,1.07,1.68.15,3.29-.47,4.84-1.03.97-.35,2.08-.92,3.15-.74,1.1.2,1.47,1.37.88,2.25-.64.95-1.89,1.48-2.76,2.19-.15.11-.27.27-.28.46-.01.28.34.45.53.52,1.26.46,1.97.65,2.71.91,1.21.43,4.26,1.09,4.31,2.73.01.64-.68,1.34-1.21,1.43-.87.14-1.76.12-2.62.03-.44-.05-.87-.12-1.31-.2-.35-.06-.9-.24-1.21.04-.26.22,0,.57.18.73.22.2.49.34.75.46,1.01.47,2.07.88,3,1.48.45.29.9.6,1.24,1.01.27.31.49.72.42,1.13-.06.29-.26.55-.5.73-.52.43-1.25.58-1.93.54-.85-.05-1.68-.28-2.49-.52-.85-.25-1.69-.51-2.55-.72-.19-.05-.39-.09-.56.01-.17.1-.22.35-.16.54.07.19.22.34.37.48.41.36.86.58,1.32.86.48.3.94.63,1.38.97.47.38.96.81,1.1,1.4.25,1.07-.64,1.92-1.78,1.91-1.13-.02-4.95-1.95-5.56-2.24-3.71-1.78-7.51-3.49-11.42-4.82-10.59-4.07-4.62-1.82-9.36-3.48"/>
        <path className="st46" d="M1055.74,1652.64c5.21-3.5,8.47-5.58,15.91-12.42l13.72,7.21-22.74,17.63s-6.91-5.87-6.89-12.42Z"/>
        <path d="M1214.47,1802.09c-4.73-2.01-32.43-4.76-34.33-3.94-1.91.83-8.65,16.71,16.78,16.29,25.43-.43,22.28-10.33,17.55-12.34h0Z"/>
        <path className="st64" d="M1066.21,1753.33c4.4-2.38,16.67-12.22,22.45-24.3,0,0-7.58-16.21-22.14,3.44-14.55,19.64-4.71,23.24-.31,20.86Z"/>
        <path className="st64" d="M1066.21,1753.33c4.4-2.38,16.67-12.22,22.45-24.3,0,0-7.58-16.21-22.14,3.44-14.55,19.64-4.71,23.24-.31,20.86Z"/>
        <path className="st5" d="M1066.21,1753.33c4.4-2.38,16.67-12.22,22.45-24.3,0,0-7.58-16.21-22.14,3.44-14.55,19.64-4.71,23.24-.31,20.86Z"/>
        <path className="st46" d="M1146.49,1732.63s-28.53-6.05-33.79,3.56c-5.28,9.61-29.54-5.95-29.54-5.95,0,0-20,16.57-6.45,15.76,13.55-.81,37.28,20.99,54.99,15.52,17.71-5.47,14.79-28.89,14.79-28.89h0Z"/>
        <path className="st46" d="M1171.37,1738.27l-9.03-4.82,31.17-9.71c4.77,25.84.74,73.58,5.15,75.51,4.41,1.93-20.7,8.14-18.07,2.98,2.63-5.17-3.66-41.05-9.22-63.96Z"/>
        <path className="st41" d="M1141.18,1586.13c5.56,0,10.07-4.56,10.07-10.19s-4.51-10.19-10.07-10.19-10.08,4.56-10.08,10.19,4.51,10.19,10.08,10.19Z"/>
        <path className="st36" d="M1077.94,1660.53c-7.56,2.83-16.07-18.96-11.94-18.71,4.14.25,38.25-39.21,54.52-27.73,16.28,11.48,29.44,9.43,34.31,3.84,4.86-5.61,42.75,15.48,42.12,19.26-.63,3.79-9.38,27.73-15.77,21.97-6.4-5.76-9.12-18.03-11.51-8.28-2.39,9.74,45.9,76.74,28.52,80.6-17.38,3.86-116.15,11.57-122.79-2.3-6.63-13.85,20.33-81.34,16.26-80.91-4.06.43-6.16,9.44-13.72,12.26h0Z"/>
        <path className="st46" d="M1154.9,1616.34c.14-10.88-2.43-12.06,0-18.17h-29.26s4.83,6.65.94,16.98c-3.89,10.36,28.18,12.07,28.31,1.19h.01Z"/>
        <path className="st46" d="M1063.29,1664.54c-3.17,2.44-3.57,2.69-6.83,5.02-1.2.86-2.47,1.67-3.48,2.76-1.13,1.23-1.62,2.87-2.1,4.43-.3.98-.51,2.2-1.31,2.92-.82.76-1.98.34-2.34-.66-.38-1.08-.05-2.38-.09-3.5-.01-.18-.06-.37-.21-.49-.22-.18-.56-.01-.74.1-1.13.71-1.7,1.16-2.37,1.58-1.08.69-3.45,2.7-4.8,1.74-.52-.37-.67-1.34-.42-1.81.41-.77.96-1.46,1.56-2.08.31-.32.63-.62.95-.91.26-.24.74-.57.71-.97-.03-.35-.46-.35-.71-.3-.29.05-.56.18-.82.31-.98.5-1.96,1.09-3,1.46-.51.18-1.03.35-1.56.38-.42.02-.87-.06-1.16-.36-.2-.23-.29-.54-.3-.84-.02-.67.3-1.33.74-1.84.56-.65,1.24-1.15,1.93-1.65.71-.52,1.43-1.03,2.13-1.57.15-.12.3-.26.32-.45.02-.2-.14-.38-.34-.45-.19-.07-.4-.04-.6,0-.54.1-.99.33-1.5.51-.53.2-1.07.36-1.61.5-.59.15-1.24.27-1.79.02-1.02-.45-1.17-1.67-.46-2.56.69-.87,4.56-2.71,5.16-3.02,3.68-1.85,7.35-3.8,10.78-6.08,9.69-5.88,4.27-2.53,8.47-5.27"/>
        <path className="st0" d="M591.66,1706.65c-.66-1.5-.96-1.87-1.2-1.88-.06,0-.03-.01-.17.17-.16.2-.3.48-.48.85-.36.75-.76,1.75-1.3,2.59-.55.85-1.39,1.59-2.43,1.74-1.05.05-2.18-.59-3.05-1.67-.85-1.05-1.64-2.59-2.21-4.33-1.15-3.46-1.6-7.97-.59-11.74,2.02-7.51,16.3-17.64,16.3-17.64l.44-.31.28.47s8.05,13.59,8.38,22.4c.1,4.49-2.54,8.56-5.56,10.59-1.52,1.03-3.25,1.6-4.72,1.48-1.49-.12-2.87-1.05-3.67-2.71ZM595.41,1708.36c1.27.1,2.67-.36,4.08-1.32,2.85-1.92,5.3-5.53,5.11-9.73-.25-8.57-6.55-19.01-7.96-21.45-2.39,1.75-13.53,9.56-15.46,16.76-.96,3.59-.54,7.81.58,11.16.55,1.67,1.25,3.05,2.04,4.02.77.95,1.44,1.43,2.18,1.31.74-.02,1.21-.54,1.69-1.29.49-.76.87-1.7,1.24-2.47.19-.39.39-.77.6-1.04.23-.29.64-.56,1-.55.6.03,1.32.86,2.06,2.47.61,1.45,1.58,2.02,2.84,2.12Z"/>
        <path className="st30" d="M574.9,1817.26c4.96,0,8.99-4.02,8.99-8.99s-4.02-8.98-8.99-8.98-8.98,4.02-8.98,8.98,4.02,8.99,8.98,8.99Z"/>
        <path className="st30" d="M582.08,1812.21c4.92,0,8.9-3.99,8.9-8.9s-3.98-8.9-8.9-8.9-8.9,3.98-8.9,8.9,3.99,8.9,8.9,8.9Z"/>
        <path className="st30" d="M606.93,1821.37c6.95,0,12.58-5.63,12.58-12.57s-5.63-12.58-12.58-12.58-12.58,5.63-12.58,12.58,5.63,12.57,12.58,12.57Z"/>
        <path className="st30" d="M591.79,1824.52c7.29,0,13.2-5.91,13.2-13.21s-5.91-13.2-13.2-13.2-13.2,5.91-13.2,13.2,5.91,13.21,13.2,13.21Z"/>
        <path className="st30" d="M596.7,1810.09c5.89,0,10.67-4.78,10.67-10.67s-4.78-10.67-10.67-10.67-10.67,4.77-10.67,10.67,4.78,10.67,10.67,10.67Z"/>
        <path className="st30" d="M623.5,1821.53c5.65,0,10.23-4.59,10.23-10.24s-4.58-10.23-10.23-10.23-10.23,4.58-10.23,10.23,4.58,10.24,10.23,10.24Z"/>
        <path className="st30" d="M614.21,1807.58c5.67,0,10.26-4.6,10.26-10.26s-4.59-10.27-10.26-10.27-10.27,4.6-10.27,10.27,4.6,10.26,10.27,10.26Z"/>
      </g>
    </g>
  </g>
  <g id="Layer_33">
    <g>
      <path className="st42" d="M113.14,1795.44c.26,4.51,4.43,11.42,4.43,11.42,0,0,6.91-5.4,7.79-9.26.89-3.86-1.11-9.07-2.88-8.84-1.77.23-1.51,4.94-2.99,1.74-1.48-3.2-6.61.42-6.35,4.94h0Z"/>
      <path className="st42" d="M128.6,1801.21c-4.28.13-10.94,4.47-10.94,4.47,0,0,4.9,7.71,8.53,8.8,3.62,1.09,8.62-.92,8.45-2.86-.17-1.95-4.62-1.81-1.55-3.32,3.07-1.52-.2-7.23-4.48-7.09Z"/>
      <path className="st42" d="M122.19,1817.77c-.14-4.27-4.14-10.91-4.14-10.91,0,0-7.05,4.93-8.03,8.55s.88,8.6,2.66,8.43c1.78-.18,1.64-4.63,3.04-1.57,1.4,3.07,6.62-.22,6.48-4.5Z"/>
      <path className="st42" d="M106.14,1810.25c4.39.21,11.52-3.22,11.52-3.22,0,0-4.45-7.45-8.08-8.73-3.63-1.29-8.88.16-8.85,1.95.03,1.79,4.6,2.02,1.35,3.16-3.25,1.13-.32,6.63,4.07,6.84Z"/>
      <path className="st34" d="M116.53,1810.26c1.88,0,3.4-1.52,3.4-3.4s-1.52-3.39-3.4-3.39-3.4,1.52-3.4,3.39,1.52,3.4,3.4,3.4Z"/>
    </g>
  </g>
  <g id="Layer_32">
    <g>
      <path className="st62" d="M1736.38,1736.2c-.26-4.61,3.26-8.55,7.87-8.81.89-.05,1.73.08,2.54.28-.24-4.59,3.28-8.52,7.88-8.78,4.6-.25,8.53,3.26,8.8,7.85.78-.29,1.61-.51,2.49-.56,4.61-.26,8.56,3.27,8.81,7.87.21,3.7-2.03,6.92-5.3,8.21,1.08,1.32,1.77,2.96,1.87,4.78.26,4.61-3.26,8.56-7.88,8.81-2.76.16-5.26-1.06-6.9-3.04-1.4,2.15-3.75,3.64-6.51,3.79-4.62.26-8.56-3.27-8.82-7.87-.1-1.83.41-3.54,1.33-4.97-3.39-.91-5.98-3.87-6.18-7.56ZM1756.05,1743.67c2.4-.14,4.24-2.19,4.1-4.59-.13-2.39-2.18-4.23-4.58-4.09-2.4.13-4.24,2.18-4.1,4.58.13,2.4,2.18,4.23,4.58,4.1Z"/>
      <path className="st50" d="M1755.39,1744.53c-3.15.18-5.83-2.23-6.01-5.37s2.23-5.83,5.37-6.01c3.14-.17,5.83,2.23,6.01,5.38.17,3.14-2.23,5.83-5.37,6Z"/>
    </g>
  </g>
  <g id="Layer_31">
    <path className="st61" d="M1891.17,1723.7c-.24-4.33,3.07-8.03,7.4-8.27.83-.05,1.62.07,2.38.26-.22-4.31,3.08-8,7.4-8.24,4.31-.24,8,3.06,8.26,7.37.73-.28,1.51-.48,2.34-.53,4.33-.24,8.03,3.07,8.27,7.39.19,3.47-1.91,6.5-4.98,7.71,1.01,1.24,1.66,2.77,1.76,4.49.24,4.32-3.07,8.03-7.4,8.27-2.59.14-4.94-1-6.48-2.86-1.31,2.02-3.52,3.42-6.11,3.56-4.34.24-8.03-3.07-8.27-7.39-.1-1.72.37-3.32,1.24-4.66-3.19-.86-5.61-3.63-5.81-7.1ZM1909.65,1730.71c2.25-.13,3.97-2.05,3.85-4.3-.13-2.25-2.06-3.98-4.31-3.85-2.25.12-3.98,2.05-3.85,4.3s2.05,3.98,4.31,3.85Z"/>
  </g>
  <g id="Layer_30">
    <g>
      <path className="st62" d="M1569.03,1805.06c-.2-3.68,2.67-6.84,6.43-7.05.72-.04,1.41.06,2.07.22-.19-3.67,2.67-6.82,6.42-7.03,3.75-.21,6.95,2.6,7.17,6.27.64-.23,1.31-.41,2.03-.45,3.76-.21,6.97,2.61,7.17,6.29.17,2.96-1.66,5.54-4.32,6.57.87,1.06,1.43,2.37,1.52,3.83.2,3.68-2.67,6.84-6.43,7.05-2.25.13-4.29-.84-5.62-2.43-1.15,1.72-3.06,2.92-5.31,3.04-3.76.21-6.97-2.6-7.18-6.29-.08-1.46.34-2.83,1.08-3.97-2.76-.73-4.86-3.09-5.03-6.05ZM1585.06,1811.02c1.95-.11,3.45-1.75,3.35-3.67-.11-1.92-1.78-3.38-3.74-3.28-1.95.11-3.45,1.76-3.34,3.68.1,1.91,1.78,3.38,3.73,3.27Z"/>
      <path className="st26" d="M1585.14,1812.54c-3.14.17-5.84-2.55-6.04-6.09-.2-3.53,2.19-6.54,5.33-6.71,3.14-.18,5.85,2.54,6.05,6.08.19,3.53-2.19,6.54-5.34,6.72Z"/>
    </g>
  </g>
  <g id="Layer_29">
    <g>
      <path className="st26" d="M1551.57,1705.59c-.24-4.33,3.07-8.03,7.4-8.28.82-.04,1.62.08,2.38.27-.23-4.31,3.07-8,7.39-8.24,4.32-.24,8.01,3.05,8.27,7.37.73-.28,1.51-.49,2.33-.53,4.33-.25,8.03,3.06,8.27,7.39.2,3.47-1.9,6.5-4.97,7.7,1.01,1.24,1.66,2.78,1.75,4.49.25,4.33-3.06,8.03-7.39,8.28-2.6.14-4.95-1-6.48-2.87-1.32,2.03-3.53,3.42-6.12,3.57-4.33.24-8.03-3.07-8.27-7.4-.09-1.71.38-3.31,1.24-4.66-3.18-.85-5.61-3.63-5.8-7.09ZM1570.04,1712.6c2.25-.13,3.98-2.06,3.85-4.31-.12-2.25-2.05-3.97-4.3-3.84-2.26.12-3.98,2.05-3.85,4.3.12,2.25,2.05,3.97,4.3,3.85Z"/>
      <path className="st43" d="M1569.13,1713.57c-3.14.18-5.83-2.23-6-5.37-.18-3.14,2.23-5.83,5.37-6.01,3.14-.17,5.83,2.23,6.01,5.37.17,3.15-2.23,5.83-5.38,6.01Z"/>
    </g>
  </g>
  <g id="Layer_28">
    <g>
      <path className="st44" d="M1632.74,1836.56c-.24-4.33,3.07-8.03,7.4-8.27.83-.05,1.62.07,2.38.26-.22-4.31,3.08-8,7.39-8.24,4.32-.24,8.01,3.06,8.27,7.37.73-.28,1.51-.48,2.34-.53,4.33-.24,8.03,3.07,8.27,7.39.19,3.47-1.91,6.5-4.98,7.71,1.01,1.24,1.66,2.77,1.76,4.49.24,4.32-3.07,8.03-7.4,8.27-2.59.14-4.94-1-6.48-2.86-1.32,2.02-3.52,3.42-6.12,3.56-4.33.24-8.02-3.07-8.27-7.39-.09-1.72.38-3.32,1.24-4.66-3.18-.86-5.6-3.63-5.8-7.1ZM1651.21,1843.57c2.26-.13,3.98-2.05,3.85-4.3-.12-2.25-2.05-3.98-4.3-3.85-2.25.12-3.98,2.05-3.85,4.3.12,2.25,2.05,3.98,4.3,3.85Z"/>
      <path className="st31" d="M1650.31,1844.54c-3.14.18-5.83-2.23-6.01-5.37-.17-3.14,2.23-5.83,5.37-6,3.15-.18,5.83,2.23,6.01,5.37.18,3.14-2.23,5.83-5.37,6Z"/>
    </g>
  </g>
  <g id="Layer_27">
    <path className="st14" d="M1859.65,1821.7c-.76-.66-1.3-1.54-1.56-2.51-.25-.98-.21-2.01.12-2.96.33-.95.94-1.78,1.74-2.39.81-.6,1.78-.95,2.79-1,.21-.02.46-.02.74-.01-.21-.17-.41-.33-.58-.48-.74-.67-1.28-1.54-1.53-2.52-.25-.97-.2-2,.13-2.94.33-.95.93-1.78,1.73-2.39.8-.61,1.76-.96,2.77-1.02h.02c.66-.04,1.33.06,1.96.28s1.21.57,1.71,1.02c.16.14.34.32.53.52-.04-.28-.06-.53-.07-.75-.08-1.34.38-2.66,1.28-3.67.9-1,2.16-1.61,3.51-1.69,1.35-.07,2.67.39,3.67,1.29,1.01.9,1.61,2.16,1.69,3.51.01.21.01.46.01.74.16-.21.32-.41.47-.57.44-.51.98-.91,1.58-1.21.6-.29,1.26-.46,1.92-.49h.02c1-.05,1.99.2,2.85.71.87.51,1.56,1.27,1.99,2.17.43.91.59,1.92.45,2.91-.14,1-.57,1.93-1.23,2.68-.15.16-.33.34-.52.53.28-.03.52-.06.74-.07,1.35-.08,2.67.39,3.67,1.29,1.01.89,1.62,2.16,1.69,3.5.08,1.35-.39,2.67-1.29,3.67-.89,1.01-2.16,1.62-3.5,1.69-.22.01-.47.02-.75.01.22.17.41.32.58.47.75.67,1.29,1.55,1.54,2.52.25.98.21,2-.13,2.95-.33.95-.94,1.78-1.74,2.38-.8.61-1.77.96-2.77,1.01h-.02c-.67.04-1.33-.05-1.96-.27-.62-.22-1.2-.56-1.7-1-.16-.15-.34-.33-.53-.52.04.27.06.52.07.74.08,1.35-.38,2.67-1.28,3.67-.9,1.01-2.16,1.61-3.51,1.69-1.35.07-2.67-.39-3.67-1.29-1.01-.9-1.61-2.16-1.69-3.5-.01-.22-.01-.47-.01-.75-.16.21-.32.41-.47.58-.45.49-.98.9-1.58,1.18-.6.29-1.25.46-1.91.49h-.02c-1.01.06-2.01-.18-2.87-.68-.87-.51-1.57-1.27-2.01-2.18-.43-.9-.59-1.92-.45-2.91.15-1,.58-1.93,1.25-2.68.15-.17.33-.35.53-.53-.28.03-.53.06-.75.07-.66.04-1.32-.06-1.95-.28-.63-.22-1.21-.56-1.7-1.01ZM1876.3,1823.56c1.26-.07,2.47-.51,3.48-1.27s1.77-1.8,2.19-2.99c.42-1.19.47-2.48.15-3.7-.31-1.23-.98-2.33-1.92-3.17-.94-.84-2.11-1.38-3.36-1.56s-2.53.02-3.67.57c-1.13.54-2.08,1.42-2.73,2.5-.64,1.09-.94,2.35-.87,3.61.09,1.69.86,3.27,2.12,4.4,1.26,1.13,2.92,1.71,4.61,1.61Z"/>
  </g>
  <g id="Layer_26">
    <g>
      <path className="st39" d="M1660.74,1774.07c-1.96.11-3.64-1.39-3.75-3.35-.11-1.97,1.39-3.65,3.36-3.76,1.96-.11,3.64,1.4,3.75,3.36.11,1.96-1.39,3.64-3.36,3.75Z"/>
      <path className="st60" d="M1641.88,1775.69c-.86-.76-1.48-1.77-1.78-2.89-.29-1.11-.24-2.29.14-3.38.38-1.09,1.07-2.05,1.99-2.74.93-.69,2.04-1.09,3.19-1.15.25-.02.53-.02.86-.01-.25-.19-.48-.38-.67-.55-.85-.76-1.46-1.77-1.75-2.88-.29-1.12-.24-2.29.14-3.38.38-1.09,1.07-2.04,1.99-2.73.92-.7,2.02-1.11,3.17-1.18h.02c.76-.04,1.53.07,2.25.33.72.25,1.38.65,1.95,1.16.19.17.4.37.61.6-.04-.32-.07-.61-.08-.85-.09-1.55.44-3.06,1.47-4.21,1.03-1.15,2.48-1.85,4.02-1.93,1.54-.09,3.05.44,4.21,1.47,1.15,1.03,1.84,2.47,1.93,4.02.01.24.02.53.01.85.19-.24.37-.47.54-.66.51-.57,1.12-1.04,1.81-1.38.69-.33,1.44-.52,2.2-.57h.02c1.15-.05,2.28.23,3.27.82.99.59,1.78,1.46,2.27,2.49.5,1.04.68,2.2.52,3.34-.16,1.14-.65,2.2-1.41,3.06-.17.19-.37.4-.6.61.32-.04.61-.07.86-.08,1.54-.09,3.05.44,4.2,1.47,1.15,1.03,1.85,2.48,1.93,4.02.09,1.54-.44,3.06-1.47,4.21-1.03,1.15-2.47,1.85-4.01,1.93-.25.02-.54.02-.86.01.25.19.47.37.66.54.86.77,1.48,1.77,1.76,2.89.29,1.12.24,2.29-.14,3.38-.38,1.09-1.07,2.04-1.99,2.73-.93.69-2.03,1.09-3.18,1.15h-.02c-.76.05-1.52-.06-2.24-.31-.72-.25-1.38-.64-1.95-1.15-.19-.17-.4-.37-.61-.59.04.31.07.6.08.85.09,1.54-.44,3.05-1.47,4.2-1.03,1.16-2.47,1.85-4.02,1.94-1.54.08-3.05-.45-4.2-1.48-1.16-1.03-1.85-2.47-1.94-4.01-.01-.25-.01-.54-.01-.86-.19.25-.37.47-.54.66-.51.57-1.12,1.03-1.81,1.36-.68.33-1.43.52-2.19.56h-.02c-1.15.07-2.3-.2-3.29-.78-.99-.59-1.79-1.45-2.29-2.49-.5-1.04-.68-2.21-.52-3.35s.66-2.2,1.43-3.06c.18-.19.38-.4.6-.61-.32.04-.6.07-.85.08-.76.04-1.52-.07-2.24-.32-.72-.25-1.38-.64-1.95-1.15ZM1660.96,1777.82c1.44-.08,2.83-.59,3.98-1.46,1.16-.87,2.03-2.06,2.51-3.43.48-1.36.54-2.84.18-4.24-.36-1.4-1.13-2.66-2.21-3.63-1.08-.96-2.42-1.58-3.85-1.79-1.43-.2-2.89.03-4.19.65-1.31.63-2.39,1.63-3.13,2.88-.74,1.24-1.08,2.68-1,4.12.11,1.94.98,3.75,2.43,5.05,1.44,1.29,3.34,1.96,5.28,1.85Z"/>
    </g>
  </g>
  <g id="Layer_25">
    <path className="st49" d="M1467.4,1843.36c-.89-.79-1.53-1.83-1.84-2.99-.3-1.15-.25-2.37.14-3.5.39-1.13,1.11-2.11,2.07-2.83.95-.72,2.1-1.13,3.29-1.19.26-.02.55-.02.89-.02-.26-.19-.49-.38-.69-.56-.88-.79-1.52-1.83-1.81-2.98-.3-1.16-.25-2.37.14-3.5.4-1.12,1.11-2.11,2.06-2.82.95-.72,2.09-1.15,3.28-1.22h.02c.79-.04,1.58.07,2.33.34.74.26,1.43.67,2.02,1.2.2.18.41.39.63.62-.04-.33-.07-.63-.09-.88-.09-1.6.46-3.16,1.53-4.35,1.06-1.2,2.56-1.91,4.15-2,1.6-.09,3.16.46,4.35,1.52,1.2,1.07,1.92,2.56,2,4.16.02.25.02.55.01.88.2-.25.39-.49.57-.68.52-.6,1.16-1.08,1.87-1.43.71-.34,1.48-.54,2.28-.59h.01c1.19-.06,2.37.24,3.39.85s1.84,1.5,2.35,2.58c.51,1.07.7,2.27.54,3.45-.17,1.17-.68,2.28-1.46,3.17-.18.19-.39.41-.62.63.33-.04.62-.07.88-.09,1.59-.09,3.16.46,4.35,1.53,1.19,1.06,1.91,2.56,2,4.15.09,1.6-.46,3.16-1.53,4.36-1.06,1.19-2.55,1.91-4.15,2-.25.01-.55.01-.88.01.25.19.48.38.68.56.89.79,1.52,1.83,1.82,2.98.3,1.16.25,2.37-.14,3.5-.4,1.12-1.12,2.1-2.07,2.82-.95.71-2.1,1.13-3.29,1.19h-.02c-.78.05-1.57-.06-2.31-.32-.75-.26-1.43-.66-2.02-1.19-.2-.17-.41-.38-.63-.61.04.33.07.62.09.88.08,1.59-.46,3.16-1.53,4.35-1.06,1.19-2.56,1.91-4.15,2-1.6.09-3.17-.46-4.36-1.52-1.19-1.07-1.91-2.56-2-4.16-.01-.26-.01-.55-.01-.89-.19.26-.38.49-.56.69-.52.59-1.16,1.06-1.87,1.4-.71.35-1.48.54-2.27.59h-.02c-1.19.07-2.37-.22-3.4-.82-1.03-.6-1.85-1.5-2.37-2.57-.52-1.08-.7-2.28-.54-3.46.17-1.18.69-2.29,1.49-3.17.17-.2.38-.41.61-.64-.33.05-.62.08-.88.09-.78.05-1.57-.07-2.31-.33-.75-.26-1.43-.67-2.02-1.19ZM1487.13,1845.56c1.5-.08,2.93-.61,4.13-1.51,1.19-.9,2.1-2.13,2.59-3.54.5-1.41.56-2.94.19-4.39-.38-1.45-1.17-2.76-2.29-3.75-1.11-1-2.5-1.65-3.98-1.86s-2.99.03-4.34.68c-1.35.65-2.47,1.68-3.23,2.97-.76,1.29-1.13,2.77-1.04,4.27.11,2,1.02,3.88,2.51,5.21,1.5,1.34,3.46,2.03,5.46,1.92Z"/>
  </g>
  <g id="Layer_24">
    <g>
      <path className="st42" d="M1659.92,1678.56c.35,5.78,5.93,14.62,5.93,14.62,0,0,9.23-6.92,10.42-11.85,1.18-4.94-1.48-11.61-3.85-11.31-2.37.29-2.02,6.31-4,2.22-1.98-4.1-8.84.54-8.5,6.32h0Z"/>
      <path className="st42" d="M1680.61,1686.77c-5.78.17-14.79,5.48-14.79,5.48,0,0,6.63,9.44,11.53,10.78,4.9,1.33,11.65-1.13,11.42-3.51-.22-2.38-6.25-2.22-2.09-4.07,4.15-1.85-.28-8.85-6.07-8.68Z"/>
      <path className="st42" d="M1671.98,1707.79c-.19-5.79-5.53-14.77-5.53-14.77,0,0-9.42,6.67-10.73,11.57-1.32,4.91,1.17,11.64,3.55,11.41s2.19-6.26,4.06-2.12c1.86,4.15,8.85-.3,8.65-6.09Z"/>
      <path className="st42" d="M1651.19,1698.35c5.78.29,15.17-4.3,15.17-4.3,0,0-5.86-9.93-10.64-11.65-4.79-1.71-11.71.21-11.67,2.6.04,2.39,6.06,2.7,1.78,4.22-4.29,1.52-.43,8.85,5.36,9.13Z"/>
      <path className="st34" d="M1665.45,1697.48c2.43,0,4.39-1.97,4.39-4.4s-1.96-4.39-4.39-4.39-4.4,1.96-4.4,4.39,1.97,4.4,4.4,4.4Z"/>
    </g>
  </g>
  <g id="Layer_23">
    <g>
      <path className="st42" d="M310.19,1783.81c2.26,2.21,7.67,3.82,7.67,3.82,0,0,1.03-6.05-.33-8.46-1.36-2.41-4.84-4.16-5.65-3.21-.8.96,1.54,3.26-.73,2.31-2.27-.96-3.22,3.32-.96,5.54h0Z"/>
      <path className="st42" d="M320.89,1779.52c-2.15,2.08-3.55,7.45-3.55,7.45,0,0,6.16,1.68,8.55.54,2.39-1.14,4.02-4.53,3.02-5.46-1-.92-3.24,1.24-2.36-.98.88-2.23-3.51-3.64-5.65-1.55Z"/>
      <path className="st42" d="M325.37,1791.09c-2.09-2.14-7.27-3.68-7.27-3.68,0,0-1.33,5.85-.13,8.19,1.2,2.34,4.5,4.03,5.34,3.1.84-.92-1.33-3.16.83-2.23,2.16.92,3.32-3.24,1.23-5.38Z"/>
      <path className="st42" d="M313.54,1794.76c2.37-1.96,4.44-7.09,4.44-7.09,0,0-5.8-1.75-8.28-.71-2.48,1.05-4.52,4.26-3.66,5.18.86.91,3.33-1.12,2.18.99-1.15,2.12,2.95,3.58,5.32,1.63Z"/>
      <path className="st34" d="M318.92,1789.87c.97-.88,1.04-2.38.16-3.35s-2.38-1.04-3.35-.16-1.04,2.39-.16,3.35c.88.97,2.38,1.04,3.35.16Z"/>
    </g>
  </g>
  <g id="Layer_22">
    <g>
      <path className="st42" d="M1527.92,1746.56c.35,5.78,5.93,14.62,5.93,14.62,0,0,9.23-6.92,10.42-11.85,1.18-4.94-1.48-11.61-3.85-11.31-2.37.29-2.02,6.31-4,2.22-1.98-4.1-8.84.54-8.5,6.32h0Z"/>
      <path className="st42" d="M1548.61,1754.77c-5.78.17-14.79,5.48-14.79,5.48,0,0,6.63,9.44,11.53,10.78,4.9,1.33,11.65-1.13,11.42-3.51-.22-2.38-6.25-2.22-2.09-4.07,4.15-1.85-.28-8.85-6.07-8.68Z"/>
      <path className="st42" d="M1539.98,1775.79c-.19-5.79-5.53-14.77-5.53-14.77,0,0-9.42,6.67-10.73,11.57-1.32,4.91,1.17,11.64,3.55,11.41s2.19-6.26,4.06-2.12c1.86,4.15,8.85-.3,8.65-6.09Z"/>
      <path className="st42" d="M1519.19,1766.35c5.78.29,15.17-4.3,15.17-4.3,0,0-5.86-9.93-10.64-11.65-4.79-1.71-11.71.21-11.67,2.6.04,2.39,6.06,2.7,1.78,4.22-4.29,1.52-.43,8.85,5.36,9.13Z"/>
      <path className="st34" d="M1533.45,1765.48c2.43,0,4.39-1.97,4.39-4.4s-1.96-4.39-4.39-4.39-4.4,1.96-4.4,4.39,1.97,4.4,4.4,4.4Z"/>
    </g>
  </g>
  <g id="Layer_21">
    <g>
      <path className="st42" d="M1771.92,1814.56c.35,5.78,5.93,14.62,5.93,14.62,0,0,9.23-6.92,10.42-11.85,1.18-4.94-1.48-11.61-3.85-11.31-2.37.29-2.02,6.31-4,2.22-1.98-4.1-8.84.54-8.5,6.32h0Z"/>
      <path className="st42" d="M1792.61,1822.77c-5.78.17-14.79,5.48-14.79,5.48,0,0,6.63,9.44,11.53,10.78,4.9,1.33,11.65-1.13,11.42-3.51-.22-2.38-6.25-2.22-2.09-4.07,4.15-1.85-.28-8.85-6.07-8.68Z"/>
      <path className="st42" d="M1783.98,1843.79c-.19-5.79-5.53-14.77-5.53-14.77,0,0-9.42,6.67-10.73,11.57-1.32,4.91,1.17,11.64,3.55,11.41s2.19-6.26,4.06-2.12c1.86,4.15,8.85-.3,8.65-6.09Z"/>
      <path className="st42" d="M1763.19,1834.35c5.78.29,15.17-4.3,15.17-4.3,0,0-5.86-9.93-10.64-11.65-4.79-1.71-11.71.21-11.67,2.6.04,2.39,6.06,2.7,1.78,4.22-4.29,1.52-.43,8.85,5.36,9.13Z"/>
      <path className="st34" d="M1777.45,1833.48c2.43,0,4.39-1.97,4.39-4.4s-1.96-4.39-4.39-4.39-4.4,1.96-4.4,4.39,1.97,4.4,4.4,4.4Z"/>
    </g>
  </g>
  <g id="Layer_20">
    <g>
      <path className="st42" d="M39.4,1769.8c3.01,2.94,10.21,5.08,10.21,5.08,0,0,1.37-8.04-.44-11.26-1.81-3.21-6.45-5.54-7.52-4.27-1.07,1.27,2.05,4.34-.97,3.07-3.02-1.28-4.28,4.43-1.28,7.38h0Z"/>
      <path className="st42" d="M53.65,1764.08c-2.86,2.78-4.72,9.93-4.72,9.93,0,0,8.2,2.23,11.38.71,3.18-1.52,5.35-6.03,4.02-7.26-1.33-1.23-4.31,1.65-3.15-1.31,1.17-2.97-4.67-4.85-7.53-2.07Z"/>
      <path className="st42" d="M59.62,1779.5c-2.78-2.85-9.69-4.91-9.69-4.91,0,0-1.76,7.8-.17,10.91,1.59,3.11,5.99,5.37,7.11,4.13,1.12-1.23-1.77-4.21,1.11-2.98,2.88,1.24,4.42-4.3,1.64-7.15Z"/>
      <path className="st42" d="M43.86,1784.38c3.15-2.61,5.91-9.44,5.91-9.44,0,0-7.73-2.33-11.03-.94-3.3,1.39-6.01,5.67-4.87,6.89,1.14,1.21,4.43-1.49,2.91,1.33-1.53,2.82,3.93,4.76,7.09,2.16Z"/>
      <path className="st34" d="M51.02,1777.87c1.29-1.17,1.38-3.17.21-4.46-1.17-1.29-3.17-1.39-4.46-.21-1.29,1.17-1.38,3.17-.21,4.46,1.17,1.29,3.17,1.39,4.46.21Z"/>
    </g>
  </g>
  <g id="Layer_19">
    <g>
      <path className="st42" d="M176.1,1664.99c-1.92,4.21-1.44,12.45-1.44,12.45,0,0,8.82-1.6,11.47-4.67,2.64-3.06,3.32-8.73,1.61-9.36-1.71-.64-3.72,3.74-3.53.14.19-3.6-6.18-2.77-8.1,1.44h0Z"/>
      <path className="st42" d="M187.33,1677.58c-3.94-1.92-12.03-1.17-12.03-1.17,0,0,.76,9.31,3.52,12.02,2.76,2.72,8.23,3.28,9.01,1.44.77-1.83-3.32-3.84.18-3.74s3.26-6.64-.67-8.55Z"/>
      <path className="st42" d="M173.63,1689.5c1.91-3.93,1.46-11.84,1.46-11.84,0,0-8.72,1.09-11.34,3.9-2.62,2.81-3.31,8.2-1.61,8.89,1.69.69,3.69-3.4,3.49.03-.2,3.44,6.1,2.96,8.01-.98Z"/>
      <path className="st42" d="M162.7,1675.04c3.87,2.29,11.96,2.59,11.96,2.59,0,0-.48-8.86-3.15-11.75-2.67-2.9-8.11-4.1-8.94-2.46-.83,1.63,3.2,4.02-.29,3.5-3.49-.53-3.45,5.84.42,8.12Z"/>
      <path className="st34" d="M173.82,1680.01c1.7.89,3.8.24,4.69-1.45.89-1.7.24-3.8-1.45-4.69-1.7-.9-3.8-.25-4.69,1.45-.89,1.7-.24,3.8,1.45,4.69Z"/>
    </g>
  </g>
  <g id="Layer_18">
    <g>
      <path className="st62" d="M126.6,1717.69c0-4-3.24-7.25-7.24-7.25-.77,0-1.49.15-2.18.37-.02-3.99-3.25-7.21-7.24-7.21s-7.22,3.22-7.24,7.21c-.69-.22-1.41-.37-2.18-.37-4,0-7.24,3.25-7.24,7.25,0,3.2,2.09,5.88,4.98,6.84-.87,1.19-1.38,2.64-1.38,4.23,0,4,3.24,7.24,7.24,7.24,2.4,0,4.51-1.18,5.82-2.97,1.32,1.79,3.43,2.97,5.82,2.97,4,0,7.24-3.24,7.24-7.24,0-1.59-.52-3.04-1.38-4.23,2.89-.96,4.98-3.64,4.98-6.84ZM109.94,1725.1c-2.08,0-3.77-1.69-3.77-3.77s1.69-3.77,3.77-3.77,3.77,1.69,3.77,3.77-1.69,3.77-3.77,3.77Z"/>
      <path className="st50" d="M110.56,1725.81c2.73,0,4.94-2.21,4.94-4.93s-2.21-4.94-4.94-4.94-4.94,2.21-4.94,4.94,2.21,4.93,4.94,4.93Z"/>
    </g>
  </g>
  <g id="Layer_17">
    <g>
      <path className="st62" d="M274.7,1769.17c0-3.2-2.64-5.79-5.9-5.79-.62,0-1.22.12-1.78.29-.02-3.19-2.65-5.77-5.9-5.77s-5.89,2.58-5.9,5.77c-.56-.17-1.15-.29-1.78-.29-3.26,0-5.9,2.59-5.9,5.79,0,2.56,1.71,4.71,4.06,5.47-.71.96-1.13,2.12-1.13,3.38,0,3.2,2.64,5.8,5.9,5.8,1.95,0,3.67-.94,4.74-2.38,1.08,1.44,2.79,2.38,4.74,2.38,3.26,0,5.9-2.6,5.9-5.8,0-1.26-.42-2.42-1.13-3.38,2.35-.76,4.06-2.91,4.06-5.47ZM261.12,1775.1c-1.7,0-3.07-1.35-3.07-3.02s1.38-3.01,3.07-3.01,3.07,1.35,3.07,3.01-1.37,3.02-3.07,3.02Z"/>
      <path className="st26" d="M261.12,1776.41c2.73,0,4.94-2.49,4.94-5.55s-2.21-5.56-4.94-5.56-4.94,2.49-4.94,5.56,2.21,5.55,4.94,5.55Z"/>
    </g>
  </g>
  <g id="Layer_16">
    <g>
      <path className="st26" d="M284.99,1682.27c0-3.76-3.04-6.8-6.8-6.8-.72,0-1.4.14-2.05.34-.02-3.74-3.05-6.77-6.8-6.77s-6.78,3.03-6.8,6.77c-.64-.2-1.33-.34-2.05-.34-3.76,0-6.8,3.04-6.8,6.8,0,3,1.96,5.52,4.67,6.42-.81,1.12-1.3,2.48-1.3,3.97,0,3.75,3.04,6.8,6.8,6.8,2.25,0,4.23-1.11,5.47-2.79,1.24,1.68,3.22,2.79,5.47,2.79,3.76,0,6.8-3.05,6.8-6.8,0-1.49-.49-2.85-1.3-3.97,2.71-.9,4.68-3.42,4.68-6.42ZM269.35,1689.22c-1.95,0-3.54-1.58-3.54-3.53s1.59-3.54,3.54-3.54,3.54,1.58,3.54,3.54-1.58,3.53-3.54,3.53Z"/>
      <path className="st43" d="M270.19,1690.02c2.73,0,4.94-2.21,4.94-4.93s-2.21-4.94-4.94-4.94-4.94,2.21-4.94,4.94,2.21,4.93,4.94,4.93Z"/>
    </g>
  </g>
  <g id="Layer_15">
    <g>
      <path className="st44" d="M222.05,1813.08c0-3.75-3.04-6.79-6.8-6.79-.72,0-1.4.14-2.05.34-.02-3.74-3.05-6.77-6.8-6.77s-6.78,3.03-6.79,6.77c-.65-.2-1.33-.34-2.05-.34-3.76,0-6.8,3.04-6.8,6.79,0,3.01,1.96,5.53,4.68,6.42-.81,1.13-1.3,2.49-1.3,3.98,0,3.75,3.04,6.79,6.8,6.79,2.25,0,4.23-1.1,5.47-2.79,1.24,1.69,3.22,2.79,5.47,2.79,3.76,0,6.8-3.04,6.8-6.79,0-1.49-.49-2.85-1.3-3.98,2.71-.89,4.67-3.41,4.67-6.42ZM206.41,1820.04c-1.95,0-3.54-1.58-3.54-3.54s1.58-3.53,3.54-3.53,3.54,1.58,3.54,3.53-1.58,3.54-3.54,3.54Z"/>
      <path className="st31" d="M207.25,1820.84c2.73,0,4.94-2.21,4.94-4.94s-2.21-4.93-4.94-4.93-4.94,2.21-4.94,4.93,2.21,4.94,4.94,4.94Z"/>
    </g>
  </g>
  <g id="Layer_14">
    <g>
      <path className="st61" d="M314.61,1826.66c0-3.76-3.04-6.8-6.8-6.8-.72,0-1.4.14-2.05.35-.02-3.75-3.05-6.78-6.8-6.78s-6.78,3.03-6.79,6.78c-.65-.21-1.33-.35-2.05-.35-3.76,0-6.8,3.04-6.8,6.8,0,3.01,1.97,5.53,4.68,6.42-.81,1.12-1.3,2.48-1.3,3.97,0,3.75,3.04,6.8,6.8,6.8,2.25,0,4.23-1.1,5.47-2.79,1.24,1.69,3.22,2.79,5.47,2.79,3.76,0,6.8-3.05,6.8-6.8,0-1.49-.49-2.85-1.3-3.97,2.71-.89,4.68-3.41,4.68-6.42ZM298.97,1833.62c-1.95,0-3.54-1.59-3.54-3.54s1.59-3.54,3.54-3.54,3.54,1.59,3.54,3.54-1.58,3.54-3.54,3.54Z"/>
      <path className="st15" d="M299.8,1834.41c2.73,0,4.94-2.21,4.94-4.93s-2.21-4.94-4.94-4.94-4.94,2.21-4.94,4.94,2.21,4.93,4.94,4.93Z"/>
    </g>
  </g>
  <g id="Layer_13">
    <g>
      <path className="st14" d="M33.62,1833.08c1.55,0,2.8-1.25,2.8-2.79s-1.25-2.8-2.8-2.8-2.8,1.25-2.8,2.8,1.25,2.79,2.8,2.79Z"/>
      <path className="st14" d="M47.93,1833.4c.62-.61,1.05-1.39,1.22-2.25.17-.85.09-1.74-.24-2.55-.33-.81-.9-1.5-1.63-1.98-.73-.49-1.58-.74-2.45-.74-.19,0-.4.01-.65.03.18-.16.34-.3.48-.44.61-.62,1.03-1.4,1.2-2.25.17-.86.08-1.74-.25-2.55-.33-.8-.89-1.49-1.62-1.98-.72-.48-1.57-.74-2.44-.75h-.02c-.58,0-1.15.12-1.69.34s-1.02.55-1.43.96c-.14.14-.28.3-.44.48.02-.24.03-.46.03-.65,0-1.16-.46-2.28-1.29-3.11-.83-.83-1.95-1.29-3.12-1.29s-2.29.46-3.11,1.29c-.83.83-1.29,1.95-1.29,3.11,0,.19,0,.41.03.65-.15-.18-.3-.34-.44-.48-.41-.41-.89-.74-1.43-.96-.53-.22-1.11-.34-1.69-.34h-.01c-.87.01-1.72.27-2.44.76-.72.48-1.28,1.17-1.61,1.98-.33.8-.42,1.68-.25,2.54.17.85.58,1.63,1.2,2.25.14.14.3.28.48.44-.24-.02-.46-.03-.65-.03-1.17,0-2.29.46-3.11,1.29-.83.82-1.29,1.95-1.29,3.11s.46,2.29,1.29,3.12c.83.82,1.95,1.29,3.11,1.29.19,0,.4,0,.65-.03-.18.15-.34.3-.48.44-.62.61-1.04,1.4-1.21,2.25-.17.86-.08,1.74.25,2.55.33.8.9,1.49,1.62,1.97s1.58.74,2.45.74h.02c.58,0,1.15-.11,1.68-.33s1.02-.54,1.42-.95c.14-.14.28-.3.44-.48-.02.25-.03.46-.03.65,0,1.17.46,2.29,1.29,3.11.83.83,1.95,1.29,3.11,1.29s2.29-.46,3.12-1.29c.83-.82,1.29-1.94,1.29-3.11,0-.19,0-.4-.03-.65.15.18.3.34.44.48.41.41.89.73,1.42.95.53.22,1.1.33,1.68.33h.02c.87,0,1.72-.25,2.45-.73.73-.49,1.29-1.17,1.63-1.98.33-.8.42-1.69.25-2.55-.17-.85-.59-1.63-1.21-2.25-.14-.14-.3-.28-.48-.44.24.02.46.03.65.03.58,0,1.15-.11,1.68-.33.53-.22,1.01-.55,1.42-.96ZM33.62,1835.82c-1.09,0-2.16-.33-3.07-.93-.91-.61-1.62-1.48-2.04-2.49-.42-1.01-.53-2.12-.31-3.19.21-1.08.74-2.06,1.51-2.84.77-.77,1.76-1.3,2.83-1.51,1.07-.21,2.19-.1,3.2.31,1.01.42,1.87,1.13,2.48,2.04.61.91.93,1.98.93,3.08,0,1.46-.59,2.87-1.62,3.91-1.04,1.03-2.44,1.62-3.91,1.62Z"/>
    </g>
  </g>
  <g id="Layer_12">
    <g>
      <path className="st39" d="M193.86,1746.79c1.7,0,3.09-1.38,3.09-3.08s-1.38-3.09-3.09-3.09-3.08,1.38-3.08,3.09,1.38,3.08,3.08,3.08Z"/>
      <path className="st60" d="M210.25,1747.28c.71-.7,1.2-1.6,1.4-2.58.2-.98.1-2-.28-2.93-.38-.92-1.03-1.71-1.86-2.27-.83-.55-1.81-.85-2.81-.84-.21,0-.46.01-.74.03.21-.18.39-.34.55-.5.7-.71,1.18-1.61,1.38-2.58.19-.98.1-2-.28-2.92-.38-.92-1.03-1.71-1.85-2.27-.83-.55-1.8-.85-2.8-.86h-.02c-.66,0-1.32.13-1.93.39s-1.17.63-1.63,1.1c-.16.16-.33.35-.5.55.02-.28.03-.53.03-.74,0-1.34-.53-2.62-1.48-3.57-.95-.95-2.23-1.48-3.57-1.48s-2.62.53-3.57,1.48c-.95.95-1.48,2.23-1.48,3.57,0,.21.01.46.03.74-.18-.2-.35-.39-.5-.55-.47-.47-1.02-.84-1.63-1.1-.61-.26-1.27-.39-1.93-.39h-.01c-.99,0-1.97.31-2.79.87-.82.56-1.47,1.34-1.85,2.26-.38.93-.48,1.94-.29,2.91.19.98.67,1.88,1.37,2.59.16.15.34.32.55.5-.28-.02-.53-.03-.74-.03-1.34,0-2.62.53-3.57,1.47-.95.95-1.48,2.23-1.48,3.57s.53,2.63,1.48,3.57c.95.95,2.23,1.48,3.57,1.48.21,0,.46-.01.74-.03-.2.17-.39.34-.55.5-.71.7-1.19,1.6-1.38,2.58-.2.98-.1,1.99.28,2.92.38.92,1.03,1.71,1.86,2.26.83.55,1.81.85,2.8.85h.02c.66,0,1.31-.13,1.92-.38.61-.25,1.16-.62,1.63-1.09.16-.16.32-.34.5-.55-.02.28-.03.53-.03.74,0,1.34.53,2.63,1.48,3.57.95.95,2.23,1.48,3.57,1.48s2.62-.53,3.57-1.48c.95-.94,1.48-2.23,1.48-3.57,0-.21-.01-.46-.03-.74.18.21.34.39.5.55.47.47,1.02.84,1.63,1.09.61.25,1.26.38,1.92.38h.02c1,0,1.98-.29,2.81-.84.83-.56,1.48-1.34,1.86-2.27.38-.92.48-1.94.29-2.91-.2-.98-.68-1.88-1.39-2.59-.16-.15-.34-.32-.55-.5.28.02.53.04.74.04.66-.01,1.31-.14,1.92-.39s1.16-.62,1.63-1.09ZM193.86,1750.04c-1.25,0-2.48-.37-3.52-1.06-1.04-.7-1.85-1.69-2.33-2.85-.48-1.16-.6-2.43-.36-3.66.24-1.23.85-2.36,1.73-3.25.89-.88,2.02-1.49,3.24-1.73,1.23-.25,2.5-.12,3.66.36,1.16.48,2.15,1.29,2.84,2.33.7,1.05,1.07,2.27,1.07,3.53,0,1.68-.67,3.29-1.86,4.48-1.19,1.18-2.8,1.85-4.48,1.85Z"/>
    </g>
  </g>
  <g id="Layer_11">
    <g>
      <path className="st14" d="M368.49,1839.35c2.04,0,3.7-1.66,3.7-3.7s-1.66-3.7-3.7-3.7-3.7,1.65-3.7,3.7,1.66,3.7,3.7,3.7Z"/>
      <path className="st49" d="M385.45,1839.34c.74-.72,1.24-1.65,1.45-2.67.21-1.01.11-2.06-.29-3.02-.39-.96-1.07-1.78-1.93-2.35-.86-.57-1.87-.88-2.91-.87-.22,0-.48,0-.77.03.21-.18.4-.36.57-.52.73-.73,1.22-1.66,1.42-2.67.2-1.01.1-2.06-.29-3.02-.39-.95-1.06-1.77-1.92-2.34-.85-.58-1.86-.89-2.89-.89h-.02c-.69,0-1.36.13-2,.4-.63.26-1.21.65-1.69,1.14-.16.16-.34.35-.52.56.02-.29.03-.54.03-.76,0-1.39-.55-2.71-1.53-3.69-.98-.98-2.31-1.53-3.69-1.53s-2.71.55-3.69,1.53c-.98.98-1.53,2.3-1.53,3.69,0,.22.01.48.03.76-.18-.21-.36-.4-.52-.56-.48-.49-1.06-.88-1.69-1.14-.63-.27-1.31-.4-2-.4h-.01c-1.03,0-2.03.32-2.89.89-.85.58-1.52,1.39-1.91,2.35-.39.95-.5,2-.3,3.01.2,1.01.69,1.94,1.42,2.67.16.16.35.33.57.52-.29-.03-.54-.04-.77-.04-1.38,0-2.71.55-3.69,1.53-.98.98-1.53,2.31-1.53,3.69s.55,2.72,1.53,3.7c.98.98,2.31,1.53,3.69,1.53.22,0,.48-.02.77-.04-.21.18-.4.36-.57.52-.73.73-1.23,1.66-1.43,2.67-.2,1.01-.1,2.06.3,3.02.39.95,1.07,1.77,1.92,2.34.86.57,1.87.88,2.9.87h.02c.68,0,1.36-.13,1.99-.39.63-.26,1.2-.64,1.69-1.12.16-.16.34-.36.52-.57-.02.29-.03.55-.03.77,0,1.38.55,2.71,1.53,3.69.98.98,2.31,1.53,3.69,1.53s2.71-.55,3.69-1.53,1.53-2.31,1.53-3.69c0-.22-.01-.48-.03-.77.18.21.36.41.52.57.48.48,1.06.86,1.69,1.12.63.26,1.31.4,1.99.4h.02c1.03,0,2.04-.3,2.9-.87.86-.58,1.53-1.39,1.93-2.35.39-.95.5-2,.29-3.01-.2-1.02-.7-1.95-1.43-2.67-.16-.17-.35-.34-.57-.52.29.02.55.03.77.03.68,0,1.36-.14,1.99-.4.63-.26,1.2-.64,1.68-1.13ZM368.48,1842.2c-1.3,0-2.56-.38-3.64-1.1-1.08-.72-1.92-1.75-2.41-2.94-.5-1.2-.63-2.52-.37-3.79s.88-2.44,1.79-3.36c.92-.92,2.08-1.54,3.36-1.79,1.27-.26,2.59-.13,3.79.37,1.2.5,2.22,1.34,2.94,2.41.72,1.08,1.11,2.35,1.11,3.65,0,1.74-.69,3.4-1.92,4.63-1.23,1.23-2.9,1.92-4.63,1.92Z"/>
    </g>
  </g>
  <g id="Sun">
    <g id="object-0">
      <path className="st6" d="M1695.32,1111.74c34.11,40.06,29.23,99.4-10.92,132.54-40.15,33.14-100.34,27.53-134.46-12.53-34.11-40.06-29.22-99.4,10.93-132.54,40.14-33.14,100.33-27.53,134.45,12.53Z"/>
      <path className="st63" d="M1634.63,1135.33c-8.33,1.22-10.73,13.46-3.65,17.87-.64-10.4,5.9-16.24,13.93-7.86,1.67-5.47-3.24-11.05-10.28-10.01h0Z"/>
      <path className="st16" d="M1636.87,1174.43c-11.12,6.9-17.86,8.47-30.84,6.49,0,0,.28,7.7,4.62,13.91,3.35,4.82,9.7,8.88,16.66,6.88,15.94-4.59,9.57-27.27,9.57-27.27h0Z"/>
      <path className="st3" d="M1637.39,1190.89c-11.09-3-16.99-1.88-25.71,5.29,0,0,6.66,8.16,15.78,5.45,9.12-2.71,9.92-10.75,9.92-10.75h0Z"/>
      <path className="st63" d="M1585.87,1154.16c-8.34,1.22-10.73,13.47-3.65,17.87-.64-10.4,5.9-16.24,13.93-7.86,1.67-5.47-3.23-11.05-10.28-10.01h0Z"/>
      <path className="st41" d="M1583.47,1199.7c6.76-1.42,11.07-8.11,9.63-14.94-1.44-6.83-8.08-11.22-14.83-9.8-6.76,1.42-11.07,8.12-9.63,14.95,1.44,6.83,8.08,11.21,14.83,9.79Z"/>
      <path className="st41" d="M1656.29,1181.56c6.76-1.42,11.07-8.11,9.63-14.94-1.44-6.83-8.08-11.22-14.84-9.8-6.76,1.42-11.07,8.12-9.63,14.94,1.44,6.83,8.08,11.22,14.84,9.8Z"/>
      <animateMotion accumulate="none" additive="replace" begin="0.01s" calcMode="spline" dur="3.89s" fill="freeze" keyPoints="0; 1" keySplines="0.42 0 1 1" keyTimes="0; 1" path="M 506.647 279.981 C 433.653 119.089 -0.989 -23.247 -63.237 84.916" restart="always"/>
      <animateTransform accumulate="none" additive="sum" attributeName="transform" begin="0.01s" calcMode="linear" dur="3.91s" fill="freeze" keyTimes="0; 1" restart="always" type="scale" values="0.5 0.5;0.5 0.5"/>
      <animateTransform accumulate="none" additive="sum" attributeName="transform" begin="3.94s" calcMode="spline" dur="2.06s" fill="freeze" keySplines="0.76 0 0.24 1; 0 0 1 1" keyTimes="0; 0.50615; 1" repeatCount="indefinite" restart="always" type="scale" values="1 1;0.9 0.9;1 1"/>
    </g>
  </g>
  <g id="Kite">
    <g>
      <path className="st19" d="M1318.46,1311.28c-.13-.72-109.18-119.78-109.18-119.78"/>
      <path className="st11" d="M1183.32,1162.68l42.44,45.77,66.19,72.88-106.38-32.17c1.33-34.56,1.74-52.53-2.24-86.49Z"/>
      <path className="st13" d="M1183.33,1162.71l42.45,45.76-40.21,40.7c1.32-34.55,1.75-52.51-2.24-86.46Z"/>
      <path className="st11" d="M1183.34,1162.71l42.44,45.76,47.03-48.09c-34.41,2.21-55.52,5.46-89.47,2.33Z"/>
      <path className="st13" d="M1291.85,1281.74l-66.08-73.26,47.05-48.07c2.38,33.95,16.54,87.2,19.03,121.33Z"/>
      <path className="st47" d="M1438.86,1335.46c-18.77,9.61-25.11,20.88-32.07,29.3-6.97,8.43-14.64,13.95-35.72,11.88-14.11-1.53-21.31-12.27-27.91-25.34-3.3-6.53-6.49-13.65-10.38-20.53-1.95-3.44-4.06-6.81-6.46-10.02-1.2-1.61-2.46-3.16-3.81-4.67-.68-.76-1.37-1.49-2.08-2.22-.36-.36-.72-.72-1.09-1.08-.37-.36-1.14-1.06-1.14-1.06,0,0,.74-.78.75-.78,0,0,.76.7,1.13,1.06.38.36.75.73,1.11,1.09.73.74,1.44,1.49,2.12,2.26,1.37,1.53,2.66,3.12,3.87,4.74,2.42,3.25,4.57,6.67,6.53,10.13,3.92,6.92,7.11,14.07,10.4,20.58,6.57,13.02,13.36,23.47,27.09,24.77,20.7,2.17,27.89-3.16,34.77-11.48,6.9-8.34,13.42-19.75,32.41-29.58l.47.95Z"/>
      <path className="st10" d="M1340.85,1322.51l-6.35-9.24-11.73,21.98-5.54-9.34,23.63-3.41Z"/>
      <path className="st9" d="M1358.24,1353.77l-5.34-9.88-13.94,20.69-4.52-9.9,23.8-.9Z"/>
      <path className="st8" d="M1381.23,1370.91l-9.13-6.5-3.76,24.51-8.4-6.87,21.29-11.14Z"/>
      <path className="st10" d="M1399.69,1355.23l-9.77,5.92,20.82,12.79-9.79,5.1-1.26-23.82Z"/>
      <path className="st9" d="M1417.76,1334.76l-7.09,8.98,24.15,4.43-7.42,8.23-9.64-21.64Z"/>
      <animateTransform accumulate="none" additive="sum" attributeName="transform" begin="0s" calcMode="linear" dur="4.04s" fill="freeze" keyTimes="0; 0.491684; 1" repeatCount="indefinite" restart="always" type="rotate" values="46;4;46"/>
    </g>
  </g>
  <g id="Flower">
    <g>
      <path className="st1" d="M611.43,1771.92c-10.77,2.09-21-6.1-21-6.1,0,0,0-14.88,14-11.02,14,3.86,16.76,0,16.76,0,0,0,1.02,15.04-9.75,17.12Z"/>
      <path className="st1" d="M589.54,1672.33s10.92,3.86,18.31,12.26c3.68,4.19,6.77,10.06,6.93,16.84.16,6.63-2.54,14.81-9.33,23.84-12.93,16.54-12.68,35.06-9.44,50.02,3.21,14.82,9.89,26.11,9.89,26.11-.15-.38-4.73,1.44-4.89,1.06,0,0-6.51-10.49-9.89-26.11-3.35-15.48-3.1-36.05,10.35-54.1,6.4-8.28,8.45-14.88,8.31-20.69-.13-5.66-2.39-9.9-5.68-13.65-6.58-7.48-16.22-10.84-16.22-10.84l1.66-4.72Z"/>
      <path className="st42" d="M587.01,1653.44c.52,8.67,8.89,21.93,8.89,21.93,0,0,13.86-10.37,15.64-17.78,1.78-7.41-2.22-17.42-5.78-16.97-3.55.45-3.03,9.48-6,3.33-2.96-6.14-13.26.82-12.75,9.49h0Z"/>
      <path className="st42" d="M618.06,1665.76c-8.68.26-22.19,8.22-22.19,8.22,0,0,9.94,14.17,17.3,16.17,7.35,2.01,17.48-1.69,17.14-5.26-.34-3.57-9.38-3.33-3.15-6.1,6.23-2.78-.41-13.29-9.09-13.03Z"/>
      <path className="st42" d="M605.11,1697.3c-.29-8.69-8.31-22.16-8.31-22.16,0,0-14.13,10-16.1,17.36s1.76,17.47,5.33,17.11c3.57-.35,3.29-9.39,6.09-3.17,2.8,6.22,13.28-.46,12.99-9.14Z"/>
      <path className="st42" d="M573.9,1683.14c8.68.42,22.77-6.46,22.77-6.46,0,0-8.8-14.9-15.98-17.47-7.17-2.58-17.56.31-17.5,3.9.06,3.58,9.09,4.05,2.66,6.32-6.43,2.28-.63,13.28,8.04,13.71Z"/>
      <path className="st34" d="M595.3,1681.82c3.64,0,6.59-2.95,6.59-6.59s-2.95-6.6-6.59-6.6-6.6,2.96-6.6,6.6,2.95,6.59,6.6,6.59Z"/>
      <path className="st1" d="M583.16,1739.67c7.11,1.35,13.85-3.95,13.85-3.95,0,0,0-9.61-9.23-7.12-9.23,2.5-11.05,0-11.05,0,0,0-.67,9.72,6.43,11.07Z"/>
      <animateTransform accumulate="none" additive="sum" attributeName="transform" begin="-0.21s" calcMode="linear" dur="2.23s" fill="freeze" keyTimes="0; 1" restart="always" type="scale" values="0.3 0.3;1 1"/>
      <animateTransform accumulate="none" additive="sum" attributeName="transform" begin="-0.21s" calcMode="linear" dur="2.23s" fill="freeze" keyTimes="0; 1" restart="always" type="translate" values="0 170;0 0"/>
    </g>
  </g>
  <g id="Child_Head_1">
    <g>
      <path className="st28" d="M642.36,1612.28c-16.12-20.1,3.42-70.21,3.42-70.21,27.11-17,53.01-14.22,82.47,4.29-2.22,16.01-1.07,23.78,5.37,35.45,0,0,28.57-8.44,4.36,23.12-24.21,31.56-79.5,27.45-95.62,7.35Z"/>
      <path className="st28" d="M759.07,1581.42c5.13,25.32-20.13,20.2-20.13,20.2l-6.33-20.99c-1.73-2.21,21.33-24.52,26.46.79h0Z"/>
      <path className="st32" d="M636.75,1579.07c1.41-15.61,22-43.14,36.76-46.09,4.27,1.4-5.53,8.46-7.74,9.64,12.64,11.4,39.22-5.27,41.16-7.07,3.33.82-2.08,6.68-9.62,12.23.84,3.24,17.86-4.22,18.6-2.26l-2.48,3.85c.98,5.27,19.18-7.35,12.37-.32-.07,9.84-2.93,28.14,4.65,35.98,3.65-12.23,24.66-21.02,28.32-5.03,11.5-17.6,3.68-42.05-2.64-56.34-6.99-15.86-20.51-17.15-35.9-23.14l2.78-2.9c-38.03,9.48-55.74-3.07-77.66,22.82l4.33,1.93c-11.76,24.13-12.94,32.72-12.94,56.7Z"/>
      <path className="st63" d="M662.77,1553.31c6.76.58,9.24,10.32,3.74,14.21.05-8.4-5.48-12.79-11.57-5.66-1.59-4.32,2.1-9.04,7.82-8.55h0Z"/>
      <path className="st16" d="M683.56,1598.14c-10.56.23-15.87-1.44-24.04-8.13,0,0-3,5.45-2.58,11.53.32,4.71,3.03,10.13,8.67,11.59,12.94,3.34,17.94-14.99,17.94-14.99h0Z"/>
      <path className="st3" d="M677.09,1609.76c-6.43-6.61-10.98-8.26-19.99-6.85,0,0,1.22,8.38,8.66,10.24,7.43,1.85,11.33-3.39,11.33-3.39Z"/>
      <path className="st63" d="M702.86,1566.13c6.76.58,9.24,10.32,3.74,14.2.05-8.39-5.48-12.78-11.57-5.66-1.59-4.32,2.11-9.04,7.83-8.54h0Z"/>
      <path className="st37" d="M709.84,1586.76c-4.51-1.87-9.65.51-11.48,5.31-1.83,4.79.34,10.2,4.85,12.06,4.51,1.86,9.65-.53,11.48-5.32,1.83-4.8-.34-10.19-4.85-12.05Z"/>
      <path className="st37" d="M653.14,1568.88c-4.21-1.65-9,.47-10.71,4.72-1.71,4.25.32,9.04,4.53,10.69,4.21,1.65,9-.46,10.71-4.71,1.71-4.25-.32-9.05-4.53-10.7Z"/>
      <path className="st29" d="M679.33,1577.69c.13-.12.18-.3.14-.48-.04-.17-.17-.31-.34-.36-.17-.05-.36,0-.48.12,0,0,.03-.03,0,0,0,0-1.7,1.2-2.26,1.92-.57.73-.95,1.54-1.15,2.3-.41,1.53-.22,3.11.05,4.34.06.27.33.44.6.38.27-.06.44-.33.38-.6-.27-1.18-.43-2.51-.06-3.86.18-.68.48-1.31.98-1.95.25-.32.53-.62.89-.93.18-.15.36-.3.57-.44.21-.15.7-.45.7-.45,0,0,0,0,0,0Z"/>
      <animateTransform accumulate="none" additive="sum" attributeName="transform" begin="0s" calcMode="spline" dur="2s" fill="freeze" keySplines="0.42 0 1 1; 0 0 1 1" keyTimes="0; 0.509638; 1" repeatCount="indefinite" restart="always" type="rotate" values="0;4;0"/>
    </g>
  </g>
  <g id="Child_Head_2">
    <g>
      <path className="st56" d="M943.55,1406.96s22.16,46.52,22.9,73.92c.74,27.41-69.8,55.27-101.52,16.72,0,0-20.33,12.08-28.27-14.18-4.96-16.39,6.22-16.61,15.32-14.46,2.99-4.62,10.4-5.81,6.32-16.67,14.94-47.6,34.32-56.39,85.25-45.33h0Z"/>
      <path className="st63" d="M940.79,1449.08c-6.77-.42-10.7,8.84-5.85,13.49,1.22-8.3,7.35-11.83,12.29-3.88,2.23-4.04-.72-9.25-6.45-9.61h0Z"/>
      <path className="st63" d="M899.21,1455.84c-6.77-.42-10.7,8.84-5.85,13.49,1.22-8.31,7.36-11.83,12.29-3.89,2.23-4.03-.72-9.25-6.44-9.6h0Z"/>
      <g>
        <path className="st32" d="M864.95,1381.99c-1.67.53-3.51,1.83-5.18,2.5-6.69,2.72-15.16,6.84-20.74,11.26-21.34,16.88-28.95,43.12-21.39,68.47,1.34,4.49,10.32,19.48,10.37,20.63.06,1.34-9.91,17.63-10.37,23.76-1.04,13.95,12.87,24.04,9.07,38.15,16.14,2.2,22.53-9.23,32.73-15.95,3.3-2.17,7.82.77,5.83-5.62,1.39-.7,2.2,3.43,3.24,3.75,1.59.48,18.47-2.28,21.06-3.13,1.01-.33,3.61.64,6.48-3.12,2.08-8.7-1.36-7.54-6.48-8.89-5.05-2.3-1.28,0-9.75-4.54-8.31-4.46-12.88-11.4-14.87-11.71-3.81.89-3.43-2.49-7.24,1.77-24.44,4.33-35.52-54.56,7.24-21.01,1.16-7.01-1.85-15.83-4.54-22.21,5.07-.06,9.85.06,14.9-.94,4.03-.8,3.83-.49,8.1-3.13,14.03-8.65,20.92-25,29.16-38.14,1.41.85.65,2.18.32,3.44-4.26,16.58-20.53,29.03-32.73,39.08-1.86,1.53,1.53.52,3.24,0,22.05-6.69,36.93-22.2,44.71-43.14,5.86,6.05,18.93,13.46,23.65,19.69,3.2,4.23,9.25,19.85,11.02,25.33,8.95-25.77-.27-53.96-24.62-68.16-20.8-12.12-50.14-15.46-73.23-8.13h0Z"/>
        <path className="st56" d="M864.88,1497.87v-19.37s-30.61-25.21-29.46.56c1.15,25.78,28.61,22.29,29.46,18.81Z"/>
        <path className="st16" d="M936.07,1480.28c-9.92,3.6-15.48,3.72-25.4,0,0,0-1.05,6.12,1.33,11.74,1.85,4.35,6.18,8.61,12,8.19,13.33-.98,12.07-19.92,12.07-19.92h0Z"/>
        <path className="st3" d="M933.75,1493.35c-8.24-4.2-13.09-4.3-21.15-.09,0,0,3.9,7.54,11.54,6.92,7.64-.63,9.61-6.83,9.61-6.83h0Z"/>
        <path className="st41" d="M890.45,1494.04c5.57,0,10.08-4.57,10.08-10.19s-4.51-10.19-10.08-10.19-10.07,4.56-10.07,10.19,4.51,10.19,10.07,10.19Z"/>
        <path className="st41" d="M950.48,1489.73c5.57,0,10.08-4.57,10.08-10.19s-4.51-10.19-10.08-10.19-10.08,4.56-10.08,10.19,4.51,10.19,10.08,10.19Z"/>
        <animateTransform accumulate="none" additive="sum" attributeName="transform" begin="0s" calcMode="linear" dur="2s" fill="freeze" keyTimes="0; 0.508921; 1" restart="always" type="rotate" values="0;0;0"/>
      </g>
      <path className="st29" d="M919.14,1462.83c.22-.17.53-.14.7.08,1.46,1.92,1.87,3.78,1.68,5.34-.19,1.58-1.58,3.79-1.58,3.79-.03.09,0,0,0,0-.05.17-.19.3-.37.33-.17.04-.35-.02-.47-.16-.12-.13-.15-.32-.09-.48,0,0,0-.01,0,0,0,0,.36-.54.52-.82.16-.27.31-.55.45-.86.27-.6.47-1.22.55-1.92.17-1.4-.12-2.9-1.48-4.6-.17-.22-.13-.54.09-.7Z"/>
      <animateTransform accumulate="none" additive="sum" attributeName="transform" begin="-0.02s" calcMode="spline" dur="2.89s" fill="freeze" keySplines="0.42 0 0.58 1; 0 0 1 1" keyTimes="0; 0.501218; 1" repeatCount="indefinite" restart="always" type="rotate" values="0;-8;0"/>
    </g>
  </g>
  <g id="Child_Head_3">
    <g>
      <path className="st46" d="M1184.2,1596.62c16.12-20.1-3.41-70.21-3.41-70.21-27.12-17-53.01-14.22-82.48,4.29,2.23,16.01,1.07,23.78-5.37,35.45,0,0-28.57-8.44-4.36,23.12,24.21,31.56,79.51,27.45,95.62,7.35Z"/>
      <path className="st66" d="M1103.81,1534.31c-5.91-2.17-1.6,32.05-10.93,30.37-9.34-1.67-25.15-4.26-25.15-4.26-3.53-13.4-3.81-20.73,1.3-33.19,23.3-56.16,74.92-50.51,104.42-24.52,29.49,25.99,12.94,39.71,10.28,38.16-2.67-1.55-7.04-15.96-8.45-15.69-1.41.26,1.2,13.86-4.48,15.69-5.68,1.83-8.06-18.07-9.36-18.54-1.29-.47-6.44,20.37-14.84,18.03-8.4-2.33,1.51-16.97,0-18.03-1.51-1.06-18.35,16.55-23.74,12.53-5.39-4.01,8.87-12.85,6.59-12.53-2.27.32-19.74,14.16-25.64,11.98h0Z"/>
      <path className="st63" d="M1170.59,1543.84c-6.77-.41-10.69,8.84-5.84,13.5,1.22-8.31,7.35-11.83,12.29-3.89,2.23-4.04-.72-9.25-6.44-9.61h-.01Z"/>
      <path className="st16" d="M1165.87,1575.05c-9.92,3.6-15.49,3.72-25.4,0,0,0-1.06,6.12,1.33,11.73,1.84,4.36,6.18,8.62,12,8.2,13.33-.98,12.07-19.92,12.07-19.92h0Z"/>
      <path className="st3" d="M1163.55,1588.12c-8.25-4.2-13.09-4.29-21.16-.09,0,0,3.9,7.54,11.55,6.92,7.64-.63,9.61-6.83,9.61-6.83h0Z"/>
      <path className="st63" d="M1129.01,1550.61c-6.78-.42-10.69,8.84-5.84,13.49,1.22-8.31,7.35-11.83,12.29-3.89,2.23-4.03-.72-9.25-6.45-9.6h0Z"/>
      <path className="st41" d="M1119.56,1586.13c5.56,0,10.08-4.56,10.08-10.19s-4.52-10.19-10.08-10.19-10.08,4.56-10.08,10.19,4.51,10.19,10.08,10.19Z"/>
      <path className="st41" d="M1180,1583.91c5.57,0,10.08-4.57,10.08-10.19s-4.51-10.19-10.08-10.19-10.07,4.56-10.07,10.19,4.51,10.19,10.07,10.19Z"/>
      <path className="st57" d="M1152.12,1558.84c.22-.17.53-.14.7.08,1.46,1.92,1.87,3.78,1.68,5.34-.19,1.58-1.58,3.79-1.58,3.79-.03.09,0,0,0,0-.05.17-.19.3-.37.33-.17.04-.35-.02-.47-.16-.11-.13-.15-.32-.09-.48,0,0,.01-.01,0,0,0,0,.36-.54.52-.82.16-.27.31-.55.44-.86.28-.6.48-1.22.56-1.92.17-1.4-.12-2.9-1.48-4.6-.17-.22-.13-.53.09-.7Z"/>
      <path className="st66" d="M1068.32,1554.6s50.02-8.41.86-27.16c-49.17-18.75-35.79,37.78-35.47,41.87.33,4.09-4.17,8.68-6.78,10.88-2.61,2.21,3.5,3.87,4.53,4.88,1.03,1.02-16.72,6.78,1.39,12.41,18.12,5.63,43.03-39.73,35.47-42.89h0Z"/>
      <path className="st40" d="M1070.12,1562.16l-1.13-34.98s-11.99.17-11.3,15.77c.69,15.61,12.43,19.21,12.43,19.21Z"/>
      <path className="st46" d="M1067.49,1565.76c-5.13,25.32,20.13,20.19,20.13,20.19l6.33-20.99c1.73-2.2-21.33-24.52-26.46.79h0Z"/>
      <animateTransform accumulate="none" additive="sum" attributeName="transform" begin="0s" calcMode="spline" dur="2s" fill="freeze" keySplines="0.42 0 0.58 1; 0 0 1 1" keyTimes="0; 0.500197; 1" repeatCount="indefinite" restart="always" type="rotate" values="-2;-8;0"/>
    </g>
  </g>
  <g id="Bird">
    <g>
      <path className="st18" d="M1041.7,1433.26s.03-.01.03-.01c0,0-.01,0-.03.01Z"/>
      <path className="st65" d="M1094.25,1426.96c.33-1.53-3.09-4.87-5.2-7.95l-2.37-.3s4.64,4.23,4.19,5.14c-.45.91-1.47.56-2.18,1.5-.71.94-.41,3.93-.41,3.93,4.57-7.5,4.45-1.51,2.8,1.55-1.65,3.06,2.83-2.33,3.17-3.86Z"/>
      <path className="st4" d="M1120.3,1380.98c-3.85-7.47.84-8.32.84-8.32l3.52,8.96s-.5,6.83-4.35-.64Z"/>
      <path className="st18" d="M1095.34,1392.3c10.92-11.26,34.18-16.55,34.18-16.55l-20.29,19.73-30.9,20.88s6.09-12.8,17.01-24.06Z"/>
      <path className="st4" d="M1087.51,1420.31c1.49.45,3.53-4.39,3.53-4.39l-4.79-.24s-.65.42-.31,1.91.08,2.26,1.57,2.71Z"/>
      <path className="st65" d="M1100.29,1429.09c.39-1.78-3.57-5.64-6.02-9.21l-2.74-.35s5.37,4.9,4.85,5.95c-.52,1.05-1.7.65-2.53,1.74-.82,1.09-.47,4.55-.47,4.55,5.3-8.68,5.15-1.75,3.25,1.79-1.9,3.54,3.28-2.7,3.67-4.47Z"/>
      <path className="st18" d="M1115.82,1372.75c6.17-3.83,11.69-.28,11.69-.28l-17.07,8.92,1.16-2.42-1.89-.6s-.05-1.79,6.11-5.62Z"/>
      <path className="st18" d="M1125.05,1377.31l.94-4.46-15.19,8.08-1.91,2.25,16.16-5.87Z"/>
      <path className="st18" d="M1118.97,1407.78c11.63-11.35,12.36-33.21,12.36-33.21l-51.25,40.52s27.25,4.03,38.88-7.31Z"/>
      <path d="M1126.66,1380.59c-3.85-7.47.85-8.33.85-8.33,0,0,3.67,8.53,3.51,8.96-.16.44-.52,6.84-4.36-.63Z"/>
      <path d="M1093.7,1420.03c1.49.45,3.55-4.4,3.55-4.4l-5.99.17s-1.42.72-1.08,2.22c.34,1.49,2.03,1.56,3.52,2.01Z"/>
      <path className="st48" d="M1134.69,1374.63s-5.01-2.05-7.36-2.29c-.35,4.45,2.58,8.53,3.47,8.49.89-.04,3.89-6.2,3.89-6.2Z"/>
      <path className="st42" d="M1122.8,1378.46c-.92.53-2.1.22-2.64-.71s-.22-2.1.71-2.63,2.1-.22,2.63.7.22,2.1-.71,2.64Z"/>
      <path d="M1122.18,1377.39c-.33.19-.75.08-.94-.25s-.08-.75.25-.94.75-.08.94.25.08.75-.25.94Z"/>
      <path className="st42" d="M1121.83,1376.8c-.12.07-.27.03-.34-.09s-.03-.28.09-.34.27-.03.34.09.03.27-.09.34Z"/>
      <path className="st18" d="M1045.76,1425.96c-.02.95,2.15,2.22,2.15,2.22,0,0-6.69,3.86-5.11,5.3,1.37,1.26,2.05,1.13,2.2,1.08-.15.07-.72.52-.66,2.86.07,2.68,3.5.7,3.5.7,0,0-.96,2.42.81,1.4l23.4-13.51s-18.88,12.75-17.81,14.61,37.8-28.02,37.8-28.02l1.23-11.3c.09-.04.16-.08.22-.11.6-.29-.21.04-.21.04v.07c-.15.07-.33.15-.57.26.67,3.64-46.93,23.43-46.94,24.38Z"/>
    </g>
  </g>
  <g id="Wing">
    <path className="st18" d="M1104.94,1365.2c-1.74,3.85-1.14,13.01,3.28,19.4l-15.93,17.87-7.89-1.02s-3.07,1.77-3.44-.37c-.37-2.14-.02-1.97-.02-1.97l-16.23-15.02s-4.44.46-4.77-1.83c-.33-2.29,4.98-1.88,4.98-1.88,0,0-9.62-1.87-10.14-4.05-.51-2.18,6.92-1.52,6.92-1.52,0,0-8.51-5.73-9.01-7.67-.5-1.94,10.38-1.53,10.38-1.53,0,0-10.96-3.33-10.16-6.02.8-2.69,24.06-.15,24.06-.15,0,0-13.73-3.83-13.37-6.64.36-2.81,43.08,8.57,41.34,12.41Z">
      <animateTransform accumulate="none" additive="sum" attributeName="transform" begin="0s" calcMode="spline" dur="2s" fill="freeze" keySplines="0.5 1 0.89 1; 0 0 1 1" keyTimes="0; 0.53142; 1" repeatCount="indefinite" restart="always" type="translate" values="0 0;0 100;0 0"/>
    </path>
  </g>
</svg>