<svg width="120" height="185" viewBox="0 0 120 185" fill="none" xmlns="http://www.w3.org/2000/svg">
<path d="M99.2028 81.6395C100.885 79.562 101.102 79.3363 102.864 77.3171C103.512 76.568 104.221 75.8431 104.695 74.9892C105.227 74.0221 105.237 72.9044 105.271 71.8409C105.284 71.1813 105.197 70.3769 105.599 69.7859C106.011 69.1693 106.878 69.2346 107.309 69.8033C107.765 70.4132 107.797 71.2854 108.033 71.9834C108.072 72.1041 108.148 72.2079 108.263 72.2624C108.447 72.3351 108.651 72.1738 108.751 72.0702C109.376 71.4305 109.682 71.0546 110.053 70.6704C110.647 70.0546 111.873 68.3874 112.968 68.7577C113.392 68.9073 113.674 69.491 113.596 69.8318C113.471 70.3849 113.223 70.909 112.935 71.404C112.794 71.655 112.632 71.8979 112.471 72.1408C112.342 72.3338 112.079 72.6149 112.177 72.8708C112.258 73.0797 112.552 73.0103 112.713 72.9374C112.896 72.8596 113.055 72.7276 113.207 72.6017C113.776 72.1148 114.321 71.5802 114.961 71.1706C115.267 70.9712 115.586 70.7794 115.941 70.6687C116.222 70.5853 116.542 70.557 116.797 70.7005C116.971 70.8052 117.09 70.9841 117.159 71.1724C117.299 71.5885 117.21 72.0593 117.008 72.4561C116.754 72.9603 116.387 73.3904 116.019 73.8206C115.636 74.2692 115.247 74.7108 114.877 75.1734C114.798 75.2721 114.718 75.3839 114.743 75.51C114.767 75.6361 114.914 75.7257 115.054 75.7362C115.201 75.7473 115.34 75.6923 115.464 75.6362C115.809 75.479 116.074 75.257 116.38 75.0511C116.701 74.8398 117.034 74.649 117.373 74.4718C117.748 74.2777 118.159 74.0862 118.583 74.1508C119.355 74.2613 119.687 74.9992 119.383 75.6826C119.08 76.3531 116.814 78.1643 116.465 78.4585C114.328 80.2467 112.22 82.1025 110.332 84.1186C104.901 89.4654 107.924 86.4423 105.605 88.8774" fill="#F6D3C3"/>
<path d="M20.745 118.626C19.7634 121.072 19.6247 121.346 18.5491 123.757C18.1557 124.65 17.6963 125.536 17.5017 126.482C17.2851 127.553 17.6147 128.626 17.9054 129.654C18.0926 130.29 18.4201 131.037 18.2143 131.712C18.0074 132.414 17.1561 132.586 16.5707 132.157C15.9492 131.696 15.6539 130.869 15.2152 130.264C15.1411 130.159 15.037 130.08 14.9102 130.059C14.7119 130.039 14.5655 130.249 14.5009 130.375C14.0967 131.157 13.9172 131.6 13.6788 132.068C13.2963 132.819 12.6282 134.747 11.4662 134.688C11.0146 134.66 10.5675 134.177 10.5389 133.829C10.4901 133.265 10.5691 132.696 10.6951 132.144C10.754 131.865 10.8348 131.589 10.9157 131.313C10.9807 131.093 11.1476 130.752 10.976 130.534C10.835 130.356 10.5738 130.502 10.4416 130.615C10.2902 130.739 10.1779 130.908 10.0709 131.07C9.67324 131.69 9.31316 132.35 8.82403 132.915C8.59175 133.189 8.34424 133.459 8.03824 133.661C7.79366 133.817 7.49633 133.93 7.20799 133.862C7.00926 133.808 6.84127 133.669 6.7184 133.507C6.45712 133.147 6.39954 132.671 6.47318 132.237C6.56342 131.685 6.78482 131.174 7.00623 130.662C7.23702 130.129 7.47611 129.6 7.69028 129.057C7.73579 128.941 7.77841 128.813 7.71661 128.698C7.65481 128.584 7.48644 128.538 7.34915 128.566C7.20499 128.595 7.08907 128.685 6.98683 128.773C6.70469 129.016 6.51786 129.301 6.28703 129.581C6.04391 129.87 5.78275 130.142 5.51181 130.404C5.21088 130.691 4.87568 130.986 4.4497 131.038C3.67615 131.141 3.13404 130.524 3.21811 129.787C3.30507 129.063 4.9263 126.715 5.17121 126.339C6.67607 124.048 8.13209 121.701 9.32982 119.258C12.9105 112.668 10.9314 116.381 12.4138 113.422" fill="#F6D3C3"/>
<path d="M37.2891 180.46V165.387L47.4781 161.166L48.1149 180.46H37.2891Z" fill="#F6D3C3"/>
<path d="M62.5493 180.46V164.499L72.7383 160.03L73.3751 180.46H62.5493Z" fill="#F6D3C3"/>
<path d="M34.5469 184.671C32.5978 184.671 34.5469 177.087 34.5469 177.087L48.1904 175.92C52.7822 176.647 60.6409 183.931 56.6363 184.671C52.6318 185.411 36.496 184.671 34.5469 184.671Z" fill="#7D3937"/>
<path d="M61.0098 184.63C59.0607 184.63 61.0098 176.098 61.0098 176.098L74.6533 174.785C79.2451 175.603 87.1038 183.797 83.0992 184.63C79.0947 185.462 62.9589 184.63 61.0098 184.63Z" fill="#7D3937"/>
<ellipse cx="60.1438" cy="34.6169" rx="26.4631" ry="25.5368" fill="#F6D3C3"/>
<path d="M86.6069 32.7273C85.9934 26.4466 76.0055 15.4141 69.5988 14.2272C67.7436 14.7905 71.9998 17.6311 72.9576 18.1059C67.4705 22.6927 55.927 15.9855 55.0873 15.2613C53.6402 15.5912 55.9886 17.949 59.2654 20.182C58.9002 21.4857 51.5123 18.4841 51.1914 19.2727L52.2673 20.8218C51.8431 22.9422 35.4559 18.664 38.4096 21.4926C38.4408 25.4517 36.4587 35.4345 33.1707 38.589C31.5851 33.6682 31.5991 30.7735 32.6468 37.612C27.6542 30.5306 30.9861 16.2269 33.7293 10.4773C36.7642 4.09597 42.6338 3.57693 49.3145 1.16683L48.1057 0C64.6188 3.81431 72.3055 -1.23524 81.8235 9.18167L79.9426 9.95824C85.0499 19.667 86.6069 23.0789 86.6069 32.7273Z" fill="#3F3F3F"/>
<path d="M69.523 27.9997C66.5583 27.1977 63.9248 30.7205 65.6283 33.1203C66.971 29.7475 70.0316 28.8348 71.4607 32.6232C72.8377 31.136 72.0328 28.679 69.5247 28.0003L69.523 27.9997Z" fill="#7D3937"/>
<path d="M54.3329 44.9694C58.7809 46.6777 61.3041 46.8202 65.8593 45.39C65.8593 45.39 67.0783 44.5222 65.9144 46.8943C65.0134 48.7321 62.9863 50.49 60.351 50.2108C54.316 49.5697 54.3346 44.9701 54.3346 44.9701L54.3329 44.9694Z" fill="#7B444C"/>
<path d="M50.6449 28.0577C47.6806 27.2559 45.0472 30.7787 46.7523 33.1744C48.0933 29.8057 51.1535 28.8929 52.5846 32.6774C53.9616 31.1903 53.1567 28.7332 50.6466 28.0583L50.6449 28.0577Z" fill="#7D3937"/>
<path d="M45.1848 37.0487C47.7094 37.0264 49.7927 38.9662 49.8346 41.3825C49.8787 43.7995 47.864 45.7777 45.3394 45.8C42.8148 45.8223 40.7331 43.8786 40.6907 41.4621C40.6471 39.0453 42.6601 37.071 45.1848 37.0487Z" fill="#F1B0AB"/>
<path d="M74.3852 37.05C76.9099 37.0277 78.992 38.9716 79.0339 41.3879C79.078 43.8049 77.0649 45.7792 74.5403 45.8015C72.0156 45.8238 69.9324 43.884 69.89 41.4676C69.8459 39.0505 71.8606 37.0723 74.3852 37.05Z" fill="#F1B0AB"/>
<path d="M58.9555 36.1707C60.2619 37.7158 59.6429 39.0491 59.0224 39.932" stroke="#D99288" stroke-linecap="round"/>
<path d="M84.2009 121.349C84.2009 121.349 26.3884 116.45 27.6876 121.349C28.9867 126.248 30.9355 169.111 30.9355 169.111H52.3716L58.2178 143.393V169.111H77.0556L84.2009 121.349Z" fill="#617FA9"/>
<path d="M72.2692 62.0822C67.0888 60.2343 45.7194 57.7701 32.7683 65.1623C19.8171 72.5544 4.92329 117.523 7.51352 117.523C10.1037 117.523 19.1695 123.684 21.1122 123.684C23.0549 123.683 25.6451 117.523 25.6451 117.523V121.836C25.6451 124.915 83.9253 123.684 85.868 121.836C87.8106 119.987 83.2777 100.891 83.2777 100.891C83.2777 100.891 92.3435 105.819 95.5813 105.819C98.8191 105.819 112.418 86.1065 110.475 83.6427L110.474 83.6415C108.531 81.1773 104.646 76.2503 100.114 77.4823C95.5813 78.7146 92.3435 83.6427 92.3435 83.6427C92.3435 83.6427 77.4497 63.9301 72.2692 62.0822Z" fill="#2E3192"/>
<path d="M52.9258 66.0757V58.6984L63.7516 57.5635V66.0757C59.3385 68.8769 57.3852 67.6428 52.9258 66.0757Z" fill="#F6D3C3"/>
</svg>
