<svg width="30" height="59" viewBox="0 0 30 59" fill="none" xmlns="http://www.w3.org/2000/svg">
<path d="M27.9273 34.939C28.2855 30.9933 34.7332 1.61789 15.0316 3.05071C-4.67009 4.48353 2.1365 31.6986 2.13656 34.571C2.13661 37.4433 1.41975 58.9307 15.0316 58.5725C28.6434 58.2143 27.5692 38.8848 27.9273 34.939Z" fill="#F2F2F2" stroke="black" stroke-opacity="0.3" stroke-width="0.4"/>
<circle cx="15.7485" cy="17.3872" r="10.0297" fill="#F6D3C3"/>
<g filter="url(#filter0_d_300_545)">
<path d="M15.2066 7.35742C15.2066 7.35742 14.5451 8.63916 15.2066 9.70728C15.868 10.7754 16.75 9.9209 16.9705 9.49366C17.191 9.06641 16.9705 8.85279 16.75 8.63916C16.5295 8.42554 15.6476 8.85279 16.0885 9.28003" stroke="black" stroke-width="0.3"/>
</g>
<path d="M1.41992 26.7002C10.6219 30.9154 15.3682 34.1718 28.6435 29.5716M27.5689 39.6214C22.4934 44.8056 18.2991 47.4078 10.7333 48.9741M3.92736 50.0301C6.48565 49.7317 8.72789 49.3893 10.7333 48.9741M10.7333 48.9741C15.1081 52.7503 18.0036 53.8101 24.3451 52.9014" stroke="black" stroke-opacity="0.19" stroke-width="0.4"/>
<path d="M13.7319 19.7502C15.5185 20.506 16.8766 20.4268 18.3373 19.6346C18.3373 19.6346 18.6358 22.3274 16.1104 22.3914C13.585 22.4554 13.7319 19.7502 13.7319 19.7502Z" fill="#7D3937"/>
<path d="M19.7252 14.9136C18.6567 14.6637 17.764 16.0651 18.4021 16.9524C18.8374 15.6336 19.9172 15.2242 20.4754 16.6497C20.9474 16.0523 20.629 15.1253 19.7259 14.9137L19.7252 14.9136Z" fill="#7D3937"/>
<path d="M12.5612 14.9136C11.4927 14.6637 10.5999 16.0651 11.2381 16.9524C11.6733 15.6336 12.7531 15.2242 13.3113 16.6497C13.7833 16.0523 13.4649 15.1253 12.5618 14.9137L12.5612 14.9136Z" fill="#7D3937"/>
<path d="M21.7087 20.411C22.6744 20.3528 23.4067 19.5215 23.3444 18.5543C23.2821 17.5871 22.4488 16.8503 21.4831 16.9085C20.5174 16.9666 19.785 17.7979 19.8473 18.7651C19.9097 19.7324 20.7429 20.4692 21.7087 20.411Z" fill="#F1B0AB"/>
<path d="M10.6858 20.912C11.6514 20.8537 12.3837 20.0225 12.3214 19.0553C12.2592 18.0881 11.4258 17.3512 10.4601 17.4095C9.49447 17.4676 8.76205 18.2989 8.82438 19.2661C8.88671 20.2333 9.71998 20.9702 10.6858 20.912Z" fill="#F1B0AB"/>
<path d="M16.4649 20.2529H15.7487C15.7487 20.2529 15.7315 20.9693 16.0896 20.9693C16.4478 20.9693 16.4649 20.2529 16.4649 20.2529Z" fill="white"/>
<path d="M15.7375 17.3285C16.1423 17.8359 15.9505 18.2738 15.7582 18.5637" stroke="#D99288" stroke-width="0.5" stroke-linecap="round"/>
<defs>
<filter id="filter0_d_300_545" x="4.3627" y="0.889063" width="23.2492" height="23.884" filterUnits="userSpaceOnUse" color-interpolation-filters="sRGB">
<feFlood flood-opacity="0" result="BackgroundImageFix"/>
<feColorMatrix in="SourceAlpha" type="matrix" values="0 0 0 0 0 0 0 0 0 0 0 0 0 0 0 0 0 0 127 0" result="hardAlpha"/>
<feOffset dy="4"/>
<feGaussianBlur stdDeviation="5.2"/>
<feComposite in2="hardAlpha" operator="out"/>
<feColorMatrix type="matrix" values="0 0 0 0 0 0 0 0 0 0 0 0 0 0 0 0 0 0 0.1 0"/>
<feBlend mode="normal" in2="BackgroundImageFix" result="effect1_dropShadow_300_545"/>
<feBlend mode="normal" in="SourceGraphic" in2="effect1_dropShadow_300_545" result="shape"/>
</filter>
</defs>
</svg>
