<svg width="919" height="107" viewBox="0 0 919 107" fill="none" xmlns="http://www.w3.org/2000/svg">
<path d="M413.686 91.6645C409.448 91.6645 404.925 89.0965 404.925 81.8743V12.6952C404.925 5.12844 409.556 2.43079 413.89 2.43079C416.722 2.43079 419.136 3.57952 420.69 5.65463C422.009 7.42218 422.647 9.72334 422.647 12.6915V71.7248H442.746C446.984 71.7248 451.507 74.3595 451.507 81.7484C451.507 89.1373 446.984 91.657 442.746 91.657H413.686V91.6645Z" fill="#A684A3"/>
<path d="M442.75 87.2363H413.686C410.801 87.2363 409.355 85.4502 409.355 81.8781V12.6989C409.355 8.77099 410.902 6.86633 413.89 6.86633C416.878 6.86633 418.22 8.77099 418.22 12.6989V76.1641H442.75C445.634 76.1641 447.08 78.0687 447.08 81.7595C447.08 85.4502 445.634 87.24 442.75 87.24V87.2363Z" fill="#A684A3"/>
<path d="M482.488 92.9133C480.448 92.9133 475.528 92.1573 473.942 85.1501L458.837 18.3574C458.203 15.5485 458.399 13.1177 459.423 11.1426C460.22 9.60112 461.91 7.5964 465.422 6.80341L494.367 0.26679C495.142 0.0889227 495.909 0 496.64 0C498.675 0 503.577 0.770753 505.186 7.89285C505.823 10.7054 505.664 13.1473 504.711 15.1409C503.936 16.7603 502.275 18.865 498.753 19.658L478.561 24.2196L481.754 38.3415L495.972 35.1287C496.78 34.9472 497.566 34.8545 498.315 34.8545C500.358 34.8545 505.282 35.6216 506.891 42.7326C507.525 45.5414 507.329 47.9722 506.305 49.9473C505.508 51.4888 503.818 53.4935 500.306 54.2865L486.088 57.4992L489.228 71.3914L509.42 66.8298C510.172 66.6631 510.921 66.5741 511.641 66.5741C513.687 66.5741 518.629 67.3523 520.264 74.5745C521.859 81.641 517.966 85.165 513.78 86.1099L484.835 92.6465C484.026 92.828 483.24 92.9207 482.484 92.9207H482.48L482.488 92.9133Z" fill="#E3AC4A"/>
<path d="M512.808 81.7782L483.863 88.3148C480.875 88.9892 479.047 87.6033 478.272 84.1682L463.167 17.3754C462.367 13.8292 463.419 11.7912 466.408 11.1131L495.353 4.57644C498.238 3.92426 500.069 5.31755 500.87 8.86007C501.671 12.4026 500.67 14.6741 497.785 15.3263L473.267 20.8624L478.413 43.622L496.955 39.4347C499.943 38.7603 501.771 40.1461 502.576 43.6961C503.376 47.2423 502.323 49.2804 499.335 49.9585L480.793 54.1458L485.891 76.6793L510.41 71.1432C513.294 70.491 515.152 71.9955 515.953 75.5417C516.753 79.0879 515.7 81.126 512.816 81.7782H512.812H512.808Z" fill="#E3AC4A"/>
<path d="M582.83 92.2611C581.058 92.2611 576.713 91.6052 574.625 85.517L568.03 65.9961H551.672L544.987 85.517C542.974 91.3866 539.047 92.2611 536.886 92.2611C531.762 92.2611 527.598 88.0145 527.598 82.7897C527.598 81.6484 527.683 80.155 528.306 78.6395L550.745 11.3872C552.235 6.98128 555.706 4.25769 559.806 4.25769C563.907 4.25769 567.459 7.02946 568.968 11.491L591.362 78.8173C591.729 79.9105 592.114 81.2593 592.114 82.7934C592.114 87.9256 587.858 92.2648 582.827 92.2648L582.83 92.2611ZM565.879 46.5085L559.802 28.7366L553.811 46.5085H565.879Z" fill="#F5846F"/>
<path d="M540.798 84.0792C539.952 86.5434 538.684 87.8292 536.89 87.8292C533.935 87.8292 532.033 85.2502 532.033 82.7897C532.033 81.7373 532.14 80.911 532.455 80.2106L554.949 12.7879C555.902 9.97538 557.801 8.68213 559.806 8.68213C561.92 8.68213 563.818 10.0902 564.771 12.9028L587.161 80.2069C587.476 81.1444 587.688 81.967 587.688 82.786C587.688 85.2502 585.682 87.8256 582.831 87.8256C581.036 87.8256 579.661 86.536 578.815 84.0755L571.211 61.5605H548.506L540.794 84.0755H540.798V84.0792ZM552.098 50.9367H567.622L559.81 28.0733L552.098 50.9367Z" fill="#F5846F"/>
<path d="M649.297 96.8893C648.915 96.8893 648.53 96.8634 648.155 96.8078C645.5 96.4373 643.302 94.8624 641.626 92.1351C641.563 92.0276 641.504 91.9239 641.448 91.8127L625.064 59.3408L620.348 58.6776L617.011 82.3932C616.244 87.8403 612.97 91.0975 608.254 91.0975C607.768 91.0975 607.256 91.0605 606.741 90.9864C603.148 90.4824 601.295 88.5592 600.371 87.0362C599.218 85.1316 598.836 82.7304 599.237 79.8919L608.747 12.3135C609.103 9.79005 609.922 7.84833 611.246 6.37351C612.336 5.1655 614.293 3.72034 617.441 3.72034C617.942 3.72034 618.465 3.75739 618.998 3.8315L645.879 7.61118C659.764 9.56401 667.59 21.5515 665.351 37.4373C664.394 44.2481 661.658 50.0992 657.45 54.3569C654.287 57.5585 650.454 59.7003 646.175 60.686L657.461 82.2709C657.52 82.3783 657.569 82.4895 657.617 82.597C658.403 84.4497 658.666 86.4693 658.392 88.4406C657.713 93.2505 653.805 96.8819 649.297 96.8819V96.8893ZM640.784 41.5912C641.107 41.6357 641.422 41.6579 641.73 41.6579C645.356 41.6579 647.121 38.3081 647.558 35.1732C647.87 32.9758 647.54 30.9747 646.631 29.5333C645.838 28.266 644.655 27.5175 643.116 27.3026L625.123 24.7716L623.106 39.1048L640.784 41.5912Z" fill="#86AF61"/>
<path d="M639.168 56.847L653.534 84.3275C654.013 85.4614 654.165 86.6657 654.002 87.8256C653.594 90.727 651.173 92.754 648.767 92.4205C647.406 92.2315 646.357 91.3718 645.4 89.8155L627.974 55.2759L616.577 53.6714L612.621 81.7707C612.117 85.3725 610.389 87.0252 607.356 86.5953C604.323 86.1692 603.118 84.1052 603.63 80.5034L613.14 12.925C613.644 9.32321 615.357 7.7928 618.386 8.21524L645.267 11.9949C657.398 13.6995 662.733 24.2789 660.968 36.8222C659.252 49.0135 651.01 57.5659 639.168 56.847ZM643.732 22.9152L621.352 19.7692L618.101 42.8771L640.169 45.9823C646.446 46.8643 651.013 42.4176 651.948 35.7994C652.878 29.1813 649.59 23.749 643.735 22.9226V22.9152H643.732Z" fill="#86AF61"/>
<path d="M719.541 92.3798C715.952 92.3798 712.445 90.0972 710.602 86.5695L690.422 47.8575V82.145C690.422 89.4635 685.843 92.0685 681.557 92.0685C677.271 92.0685 672.692 89.4635 672.692 82.145V14.9335C672.692 8.42657 676.618 3.88354 682.239 3.88354C687.86 3.88354 690.303 8.34875 691.067 9.81616L711.247 48.4504V14.2443C711.247 11.3021 711.915 9.02686 713.294 7.28154C714.402 5.88084 716.479 4.20593 720.108 4.20593C723.738 4.20593 725.818 5.87713 726.923 7.28154C728.302 9.02686 728.97 11.3021 728.97 14.2443V81.3409C728.97 85.3948 727.579 87.8775 726.408 89.2523C724.684 91.2756 722.24 92.3909 719.53 92.3909H719.534L719.541 92.3798Z" fill="#80739C"/>
<path d="M714.532 84.5202L685.987 29.7705V82.1487C685.987 85.8135 684.541 87.6403 681.557 87.6403C678.572 87.6403 677.126 85.8098 677.126 82.1487V14.9371C677.126 10.5609 679.365 8.31531 682.239 8.31531C684.69 8.31531 685.965 9.61596 687.137 11.8615L715.681 66.4963V14.2331C715.681 10.4608 717.127 8.62656 720.112 8.62656C723.097 8.62656 724.543 10.4571 724.543 14.2331V81.3297C724.543 85.9395 722.199 87.9516 719.537 87.9516C717.832 87.9516 715.704 86.7695 714.528 84.5239L714.532 84.5202Z" fill="#80739C"/>
<path d="M744.804 91.7459C740.518 91.7459 735.939 89.178 735.939 81.9558C735.939 77.9872 737.463 73.7999 741.505 72.3436V22.9966C737.463 21.5477 735.939 17.3901 735.939 13.4474C735.939 8.68572 738.268 3.60168 744.804 3.60168H756.038C760.276 3.60168 764.799 6.18817 764.799 13.4474C764.799 18.9983 762.278 21.8812 759.234 22.9892V72.3621C762.275 73.4738 764.799 76.3753 764.799 81.9595C764.799 89.1743 760.276 91.7496 756.038 91.7496H744.804V91.7459Z" fill="#F79A6B"/>
<path d="M754.805 19.1059V76.2457H756.039C758.924 76.2457 760.37 78.1504 760.37 81.9597C760.37 85.5281 758.924 87.3179 756.039 87.3179H744.805C741.817 87.3179 740.375 85.5318 740.375 81.9597C740.375 78.1504 741.82 76.2457 744.805 76.2457H745.94V19.1059H744.805C741.817 19.1059 740.375 17.2198 740.375 13.4512C740.375 9.68267 741.82 8.03369 744.805 8.03369H756.039C758.924 8.03369 760.37 9.80124 760.37 13.4512C760.37 17.1012 758.924 19.1059 756.039 19.1059H754.805Z" fill="#F79A6B"/>
<path d="M791.65 106.442C789.441 106.442 784.154 105.597 782.874 97.7416L771.978 30.8228C771.118 25.5572 773.131 19.4134 779.575 18.3647C780.127 18.2758 780.683 18.2276 781.21 18.2276C785.325 18.2276 787.75 20.8586 789.218 22.8373L815.101 57.7659L809.58 23.8638C809.098 20.8993 809.391 18.4981 810.47 16.523C811.341 14.9296 813.151 12.899 816.792 12.3061C817.374 12.2135 817.948 12.1653 818.497 12.1653C820.714 12.1653 826.001 13.025 827.295 20.9808L838.177 87.7847C838.83 91.783 837.873 94.4585 836.95 95.9963C835.585 98.29 833.357 99.7908 830.684 100.228C830.246 100.298 829.794 100.335 829.338 100.335C826.153 100.335 823.017 98.6754 820.959 95.8888L795.065 60.8786L800.6 94.8587C801.39 99.6907 799.9 105.231 793.371 106.294C792.789 106.387 792.214 106.435 791.661 106.435L791.65 106.442Z" fill="#ECC35D"/>
<path d="M824.511 93.2541L787.739 43.5366L796.211 95.5738C796.822 99.3239 795.666 101.44 792.644 101.929C789.622 102.418 787.857 100.78 787.246 97.0338L776.349 30.115C775.644 25.7795 777.469 23.1968 780.283 22.741C782.682 22.3519 784.142 23.4376 785.651 25.4794L822.405 75.0784L813.948 23.1634C813.317 19.2948 814.471 17.1826 817.492 16.6935C820.514 16.2006 822.279 17.8422 822.913 21.7071L833.795 88.511C834.54 93.0837 832.571 95.4478 829.965 95.874C828.3 96.1445 826.02 95.3107 824.514 93.2727V93.2578L824.511 93.2541Z" fill="#ECC35D"/>
<path d="M880.277 91.2346C878.475 91.2346 876.64 91.079 874.816 90.7751C854.212 87.3289 841.907 65.4476 846.189 39.8829C849.993 17.1975 865.695 1.34875 884.378 1.34875C886.217 1.34875 888.085 1.50439 889.935 1.81566C896.954 2.99032 903.253 6.01778 907.676 10.3459C911.784 14.3331 916.385 19.7024 915.366 25.7758C914.565 30.5746 910.587 34.1912 906.123 34.1912C905.67 34.1912 905.218 34.1541 904.777 34.08C902.378 33.6761 900.376 32.242 898.83 29.8149C898.8 29.7667 898.77 29.7186 898.741 29.6704C896.131 25.2015 891.73 22.1481 886.676 21.3032C885.727 21.1439 884.774 21.0624 883.844 21.0624C874.093 21.0624 866.077 29.8149 863.897 42.84C861.405 57.6993 867.252 69.3459 878.108 71.1616C879.057 71.3209 879.999 71.4025 880.922 71.4025C887.84 71.4025 893.925 66.726 897.536 58.9073L876.05 55.3092C871.775 54.5903 867.63 51.2516 868.843 44.022C869.165 42.0877 870.748 35.7734 877.474 35.7734C878.06 35.7734 878.671 35.8253 879.294 35.9291L910.854 41.2095C917.379 42.3026 918.866 47.6942 918.083 52.3818C914.25 75.2562 898.707 91.2272 880.281 91.2272L880.273 91.2346H880.277Z" fill="#81AA8E"/>
<path d="M910.127 45.5931C913.149 46.0971 914.316 48.0796 913.712 51.6629C910.068 73.4034 894.51 89.5819 875.553 86.4099C856.6 83.238 846.808 63.0538 850.568 40.6203C854.327 18.1868 870.563 3.0681 889.208 6.19189C894.94 7.14792 900.621 9.64548 904.577 13.5178C908.722 17.5383 911.595 21.4699 910.998 25.0569C910.516 27.951 908.006 30.1409 905.503 29.7259C904.354 29.5369 903.412 28.781 902.567 27.4507C899.486 22.1814 894.077 18.0645 887.41 16.9491C873.662 14.6517 862.262 25.8166 859.529 42.1247C856.76 58.6627 863.526 73.2292 877.381 75.5489C889.568 77.587 899.568 69.0382 903.561 55.4388L876.792 50.9625C873.77 50.4585 872.621 48.3612 873.225 44.7779C873.807 41.3095 875.557 39.8162 878.575 40.3238L910.134 45.6043H910.131L910.127 45.5931Z" fill="#81AA8E"/>
<path d="M326.674 93.591C311.959 93.591 301.277 83.7083 301.277 70.0903C301.277 61.9529 304.881 54.9716 311.777 49.6245C312.797 48.8315 313.093 47.4234 312.478 46.2858C310.35 42.3505 309.241 38.3114 309.241 34.3761C309.241 29.0327 311.258 23.7782 314.777 19.9541C317.576 16.9118 322.641 13.2841 330.864 13.2841C342.057 13.2841 350.184 21.1399 350.184 31.9675C350.184 39.4157 346.721 45.2779 339.128 50.4027C337.823 51.2846 337.582 53.1115 338.613 54.3046C340.637 56.6392 342.621 58.9218 344.482 61.0562C345.839 62.6088 348.371 62.0752 348.983 60.1039C349.925 57.0727 350.692 53.5932 351.3 49.6282L351.441 48.7167C351.638 47.4308 352.743 46.4822 354.044 46.4822H364.622C366.253 46.4822 367.491 47.9459 367.217 49.5541L367.006 50.8103C365.297 60.8598 362.757 68.4932 359.127 74.3666C358.508 75.3671 358.649 76.6603 359.453 77.5237C361.037 79.2209 362.638 80.9402 364.288 82.7189C365.341 83.8528 366.416 85.0126 367.532 86.2095L369.216 88.0179C370.78 89.7002 369.586 92.4423 367.288 92.4423H353.477C352.78 92.4423 352.109 92.1644 351.616 91.6716L351.3 91.3566C350.388 90.445 349.498 89.5334 348.579 88.5737C347.66 87.614 346.284 87.4954 345.224 88.1994C339.781 91.8198 333.663 93.591 326.674 93.591ZM324.187 61.4564C323.13 60.2632 321.243 60.2521 320.223 61.4749C318.395 63.6649 317.498 66.0698 317.498 68.7304C317.498 74.9335 321.921 79.269 328.25 79.269C330.386 79.269 332.481 78.8429 334.409 78.0462C336.081 77.357 336.537 75.2003 335.321 73.8589C332.158 70.3757 328.25 66.0476 324.183 61.4564H324.187ZM330.237 26.9872C325.288 26.9872 325.039 32.4492 325.039 33.5461C325.039 35.2543 325.377 36.8663 326.129 38.5634C326.815 40.1049 328.762 40.6274 330.108 39.6121C333.419 37.1108 334.705 34.969 334.705 32.3937C334.705 27.2466 330.986 26.9872 330.241 26.9872H330.237Z" fill="#2E3192"/>
<path d="M353.922 88.7368C351.931 86.7469 350.044 84.757 347.322 81.8259C341.245 87.4806 334.435 89.8893 326.678 89.8893C312.953 89.8893 304.989 80.6735 304.989 70.0941C304.989 60.4597 310.75 53.8601 318.822 49.4616V49.1466C315.155 44.5369 312.953 39.4084 312.953 34.3799C312.953 25.7941 319.133 16.9934 330.872 16.9934C339.673 16.9934 346.484 22.8593 346.484 31.9713C346.484 39.4084 342.187 45.2706 330.975 50.8215V51.1365C336.948 58.0473 343.655 65.7994 348.16 70.8241C351.408 65.9031 353.61 59.096 354.971 50.1915H363.354C361.467 61.2934 358.43 70.0904 353.188 76.2676C356.958 80.2474 360.629 84.2271 364.818 88.7294H353.922V88.7368ZM342.814 76.5863C338.624 71.9765 330.764 63.3908 322.904 54.3825C319.133 56.7912 313.787 61.2934 313.787 68.7305C313.787 76.7938 319.76 82.9747 328.247 82.9747C334.323 82.9747 339.458 80.2511 342.81 76.5863H342.814ZM321.332 33.5425C321.332 38.5709 323.638 42.4432 326.675 46.2155C333.801 42.1319 338.409 38.3597 338.409 32.39C338.409 28.0953 335.999 23.278 330.238 23.278C324.476 23.278 321.332 28.0953 321.332 33.5425Z" fill="#2E3192"/>
<path d="M20.8498 92.4106C14.2503 92.4106 12.6153 86.1593 12.2742 84.2472L0.250391 17.1914C-0.272381 14.2751 0.0242288 11.7849 1.1328 9.79506C2.00409 8.22761 3.80228 6.21919 7.39124 5.57813C8.00671 5.46696 8.61474 5.41138 9.20055 5.41138C11.3584 5.41138 16.5231 6.25254 17.9171 14.0305L28.165 71.1851L48.542 67.5351C49.1574 67.424 49.7692 67.3684 50.355 67.3684C57.0027 67.3684 58.6748 73.7901 59.0234 75.7578C59.5276 78.574 59.231 80.9789 58.1447 82.9058C57.2882 84.4214 55.5345 86.3594 52.0271 86.9894L22.7148 92.2364C22.0771 92.3513 21.4505 92.4106 20.8498 92.4106Z" fill="#F48573"/>
<path d="M51.2445 82.6317L21.9285 87.8788C19.018 88.4013 17.2532 86.9302 16.634 83.4655L4.61027 16.4096C3.92807 12.6003 5.15527 10.4733 8.16956 9.93228C11.1838 9.39126 12.8671 10.9958 13.5493 14.8051L24.5794 76.3249L49.3203 71.8967C52.2308 71.3742 54.0178 72.9602 54.6592 76.5398C55.3007 80.1194 54.155 82.113 51.2482 82.6317H51.2445Z" fill="#F48573"/>
<path d="M96.5223 94.9414C94.8798 94.9414 93.2003 94.808 91.5282 94.5523C81.1988 92.9589 72.7232 86.6854 67.6623 76.8916C62.9907 67.8574 61.4484 56.2368 63.3096 44.1826C66.9393 20.7375 81.7623 4.98145 100.2 4.98145C101.884 4.98145 103.608 5.11485 105.324 5.38165C115.657 6.98245 124.14 13.13 129.216 22.6977C133.928 31.5837 135.5 43.0783 133.647 55.0584C131.915 66.2455 127.637 75.9615 121.278 83.154C114.456 90.869 105.895 94.9451 96.5223 94.9451V94.9414ZM99.7405 24.7099C90.4752 24.7099 83.1341 33.4328 81.0468 46.9284C79.1003 59.5162 82.5261 73.0489 94.5684 74.9091C95.4063 75.0388 96.2443 75.1055 97.0488 75.1055C106.366 75.1055 113.77 66.164 115.909 52.3163C117.029 45.0793 116.276 38.3686 113.785 33.4254C111.342 28.5785 107.478 25.7141 102.299 24.9137C101.431 24.7803 100.571 24.7099 99.7368 24.7099H99.7405Z" fill="#FDBB46"/>
<path d="M104.645 9.75799C123.432 12.6594 132.727 32.0136 129.268 54.3804C125.79 76.8583 110.993 93.085 92.2064 90.1798C73.42 87.2784 64.214 67.3461 67.6954 44.8645C71.1583 22.5014 85.8664 6.85653 104.653 9.76169H104.649L104.645 9.75799ZM102.977 20.5338C89.1995 18.4031 79.1927 29.9088 76.6641 46.2504C74.1022 62.8217 80.1122 77.1585 93.886 79.2855C107.663 81.4162 117.726 69.5621 120.288 52.9945C122.813 36.653 116.751 22.6682 102.973 20.5375H102.977V20.5338Z" fill="#FDBB46"/>
<path d="M169.888 93.4962C165.721 93.4962 162.336 90.8356 160.83 86.3778L138.388 19.2293C137.762 17.7137 137.68 16.2204 137.68 15.0753C137.68 9.15386 142.504 5.48535 146.968 5.48535C149.129 5.48535 153.052 6.36357 155.069 12.2295L169.884 56.1033L184.696 12.2517C186.791 6.14494 191.136 5.48906 192.909 5.48906C198.466 5.48906 202.196 10.4471 202.196 15.0791C202.196 16.3352 201.94 17.6322 201.41 19.0292C201.41 19.0292 178.927 86.526 178.92 86.5482C177.407 90.8319 173.948 93.4925 169.884 93.4925H169.888V93.4962Z" fill="#81AA8E"/>
<path d="M188.897 13.6747C189.743 11.2105 191.114 9.92468 192.909 9.92468C195.76 9.92468 197.766 12.6223 197.766 15.0865C197.766 15.9055 197.555 16.7281 197.239 17.5507L174.745 85.0883C173.796 87.786 171.894 89.0755 169.888 89.0755C167.775 89.0755 165.981 87.786 165.031 84.9698L142.537 17.6656C142.222 16.9615 142.115 16.1426 142.115 15.0865C142.115 12.6223 144.017 9.92468 146.972 9.92468C148.766 9.92468 150.034 11.2142 150.88 13.6747L169.888 69.9585L188.897 13.6747Z" fill="#81AA8E"/>
<path d="M228.016 103.227C225.925 103.227 220.897 102.453 219.44 95.2749L205.774 28.1745C204.825 23.5204 206.123 18.0806 212.607 16.7614L241.69 10.8436C242.398 10.6991 243.099 10.625 243.77 10.625C245.853 10.625 250.855 11.4143 252.342 18.6994C253.821 25.9623 249.861 29.4678 245.657 30.3238L225.369 34.4518L228.257 48.633L242.542 45.7278C243.277 45.5759 244 45.5018 244.689 45.5018C246.78 45.5018 251.811 46.2873 253.295 53.5614C254.244 58.2156 252.946 63.6553 246.461 64.9745L232.176 67.8797L235.016 81.8311L255.3 77.7031C255.99 77.5623 256.676 77.4919 257.328 77.4919C263.802 77.4919 265.585 83.7543 265.975 85.6775C267.42 92.7736 263.442 96.2161 259.249 97.0684L230.166 102.986C229.432 103.138 228.706 103.212 228.012 103.212V103.22L228.016 103.227Z" fill="#5A80AE"/>
<path d="M258.367 92.7477L229.284 98.6655C226.285 99.2769 224.483 97.8466 223.778 94.4004L210.112 27.3001C209.385 23.739 210.483 21.7195 213.486 21.1081L242.568 15.1903C245.468 14.6011 247.266 16.0278 247.993 19.5925C248.719 23.1573 247.67 25.4028 244.771 25.992L220.145 31.0019L224.802 53.8653L243.429 50.0745C246.428 49.4631 248.23 50.8934 248.957 54.4544C249.683 58.0155 248.586 60.035 245.583 60.6465L226.956 64.4372L231.564 87.0708L256.19 82.0609C259.089 81.4717 260.91 83.0132 261.637 86.578C262.363 90.1427 261.266 92.1586 258.367 92.7477Z" fill="#5A80AE"/>
</svg>
