<svg width="440" height="956" viewBox="0 0 440 956" fill="none" xmlns="http://www.w3.org/2000/svg">
<g clip-path="url(#clip0_1_505)">
<path d="M439.746 -1.85498H0.253052V957.855H439.746V-1.85498Z" fill="#D0F2FB" stroke="#75A8D6"/>
<path d="M444.179 626C444.179 626 400.499 637.024 399.301 650.981C392.517 651.523 386.923 654.893 384.907 659.404C381.193 655.82 375.454 653.512 369.006 653.512C357.8 653.512 348.701 660.461 348.701 669.027C348.701 669.413 348.764 669.791 348.802 670.166C348.383 670.135 347.966 670.107 347.539 670.107C339.593 670.107 333.146 675.7 333.146 682.58C333.146 683.876 333.364 685.136 333.79 686.314C319.062 687.333 307.384 700.324 306.893 716.424C305.858 717.575 304.904 718.784 304.06 720.064C301.135 717.813 297.167 716.424 292.808 716.424C284.654 716.424 277.925 721.268 276.735 727.567C259.863 728.171 246.587 733.976 246.587 741.054C246.587 741.845 246.786 742.612 247.095 743.365C234.663 744.904 224.238 748.784 218.036 753.94C213.251 749.296 203.76 746.12 192.809 746.12C177.054 746.12 164.268 752.695 164.268 760.779C164.268 761.482 164.386 762.159 164.567 762.837C163.859 762.873 163.151 762.898 162.451 762.962C158.719 748.913 147.549 738.711 134.328 738.711C129.433 738.711 124.811 740.083 120.77 742.541C115.685 739.11 108.412 736.97 100.329 736.97C99.4203 736.97 98.5669 737.012 97.668 737.065C95.1342 726.782 84.0647 719.05 70.8977 719.05C68.1726 719.05 65.5396 719.39 62.9967 719.999C60.0903 715.513 53.7341 712.401 46.3787 712.401C43.3823 712.401 40.5671 712.915 38.1143 713.825C36.5715 698.638 26.492 685.66 12.1437 678.812C14.4132 675.949 15.8669 672.516 15.8669 668.806C15.8669 658.915 2.8811 650.884 2.8811 650.884L2.97221 842.239L222.93 842.84L442.935 843.439L444.169 626H444.179Z" fill="#EAF5FF"/>
<path d="M450.069 686.343C450.069 686.343 406.175 697.937 405.062 712.258C398.229 712.86 392.631 716.35 390.626 720.992C386.861 717.339 381.08 715.015 374.581 715.056C363.314 715.132 354.194 722.319 354.254 731.102C354.254 731.497 354.325 731.883 354.366 732.27C353.94 732.241 353.525 732.211 353.09 732.214C345.093 732.266 338.645 738.05 338.685 745.101C338.695 746.435 338.928 747.724 339.363 748.928C324.543 750.071 312.871 763.473 312.487 779.986C311.454 781.175 310.503 782.418 309.652 783.74C306.706 781.45 302.698 780.051 298.314 780.08C290.105 780.133 283.363 785.146 282.219 791.615C265.232 792.345 251.911 798.387 251.951 805.647C251.961 806.458 252.164 807.245 252.477 808.014C239.986 809.674 229.518 813.722 223.313 819.05C218.454 814.321 208.878 811.128 197.864 811.199C181.991 811.303 169.155 818.132 169.205 826.422C169.205 827.142 169.367 827.837 169.529 828.529C168.841 828.573 168.102 828.602 167.404 828.673C163.597 814.29 152.239 803.901 138.938 803.99C134.008 804.021 129.402 805.461 125.312 808.007C120.18 804.521 112.8 802.375 104.732 802.427C103.821 802.434 102.91 802.484 101.999 802.543C99.3667 792.014 88.2314 784.157 74.9702 784.246C72.237 784.264 69.605 784.63 67.0743 785.272C64.0374 780.69 57.6599 777.541 50.2701 777.591C47.2332 777.608 44.3987 778.155 41.9692 779.106C40.3495 763.541 30.024 750.297 15.4469 743.367C17.8764 740.419 19.1924 736.886 19.1924 733.082C19.1924 722.936 6.03247 714.792 6.03247 714.792L7.34846 911.036L228.83 910.193L450.291 909.349L450.069 686.34V686.343Z" fill="white"/>
<path d="M339.572 821.676C336.16 821.642 333.589 822.638 330.917 824.001C327.627 825.681 324.195 827.92 320.186 828.48C316.188 829.039 311.612 827.92 308.18 828.48C304.749 829.039 302.461 831.278 298.311 834.526C294.17 837.772 288.157 842.029 280.869 845.947C273.58 849.866 265.006 853.446 255.136 855.576C245.266 857.704 234.12 858.373 222.671 857.929C211.232 857.48 199.52 855.911 182.645 850.984C165.78 846.057 121.735 819.458 102.633 819.458C83.5 819.458 44.2227 841.578 43.7166 841.578L121.735 954.444H458.781V856.777C447.838 854.782 437.057 853.885 424.98 851.657C412.842 849.418 399.399 845.835 388.243 841.578C377.098 837.326 368.23 832.399 360.658 828.704C353.076 825.007 346.79 822.546 342.062 821.871C341.182 821.747 340.351 821.683 339.572 821.676Z" fill="#B9E6F4"/>
<path d="M-16.8193 843.441V916.088C-12.6689 915.871 -8.51846 915.641 -4.67171 915.435C16.3842 914.344 33.7958 914.163 53.0295 913.798C72.2632 913.435 93.3191 912.889 119.568 911.888C145.858 910.888 177.401 909.432 213.388 907.887C249.376 906.341 289.797 904.706 303.503 902.887C317.18 901.069 304.121 899.068 286.628 895.614C269.146 892.159 247.199 887.249 229.98 882.704C212.761 878.157 200.249 873.974 187.828 871.337C175.437 868.701 163.087 867.61 147.396 866.972C131.706 866.336 112.674 866.155 94.3314 864.7C75.9075 863.245 58.091 860.518 42.6028 857.062C27.1146 853.607 13.8534 849.425 -0.217585 846.424C-5.78525 845.252 -11.4541 844.267 -16.8193 843.439V843.441Z" fill="#CDF3FF"/>
<path d="M197.009 885.015C188.081 884.958 179.405 885.827 170.831 887.623C158.37 890.234 146.06 894.807 132.657 896.113C119.295 897.419 104.859 895.46 91.2946 893.011C77.7298 890.562 64.9748 887.623 54.0419 886.316C43.0078 885.01 33.5934 885.336 23.0655 887.785C12.6388 890.234 0.997291 894.804 -22.0832 900.028C-45.2649 905.251 -79.9869 911.128 -99.0151 914.884C-101.647 915.406 -103.975 915.885 -106 916.342V925.084H320.287V898.161C318.02 897.946 315.712 897.763 313.353 897.578C294.373 896.109 272.669 894.804 254.761 892.517C236.854 890.232 222.742 886.967 209.37 885.66C205.179 885.253 201.069 885.035 197.009 885.01V885.015Z" fill="#84C98F"/>
<path d="M409.674 909.198L231.063 933.203C231.063 933.203 256.988 902.009 317.929 896.362C378.88 890.713 409.674 909.198 409.674 909.198Z" fill="#BBD05D"/>
<path d="M451.927 900.975L273.317 924.98C273.317 924.98 299.232 893.787 360.182 888.139C421.133 882.49 451.927 900.975 451.927 900.975Z" fill="#A5CD69"/>
<path d="M148.297 902.149C146.708 905.36 137.061 905.03 136.787 902.813C136.575 900.601 132.445 902.813 132.445 902.813C132.445 902.813 129.59 907.132 126.239 903.921C122.909 900.711 122.21 902.149 120.095 893.071C117.979 883.988 118.08 887.422 125.561 875.131C133.032 862.838 149.522 872.363 149.522 875.575C149.522 878.786 152.063 874.688 153.177 882.88C154.29 891.076 154.867 889.512 153.541 891.062C152.174 892.612 154.239 895.855 153.177 896.43C152.114 897.003 149.826 898.938 148.297 902.149Z" fill="url(#paint0_linear_1_505)" stroke="black" stroke-opacity="0.2" stroke-width="1.0123"/>
<path d="M344.684 902.49C342.578 906.821 329.51 906.372 329.206 903.385C328.902 900.4 323.345 903.385 323.345 903.385C323.345 903.385 319.437 909.207 314.932 904.879C310.418 900.549 309.517 902.49 306.662 890.249C303.817 878.006 303.959 882.637 314.032 866.066C324.094 849.495 346.334 862.333 346.334 866.662C346.334 870.993 349.796 865.467 351.305 876.515C352.803 887.562 353.552 885.453 351.74 887.543C349.938 889.633 353.258 887.543 351.305 894.778C349.341 902.014 346.79 898.161 344.684 902.49Z" fill="url(#paint1_linear_1_505)" stroke="black" stroke-opacity="0.2" stroke-width="1.0123"/>
<path d="M496.236 898.755L337.264 920.111C337.264 920.111 360.334 892.361 414.583 887.336C468.833 882.31 496.236 898.755 496.236 898.755Z" fill="#9CC240"/>
<path d="M330.805 916.659L327.556 917.672L326.999 903.523C324.266 901.467 323.314 899.411 322.191 894.856C323.912 898.892 324.954 900.927 327.556 902.076C327.718 899.325 328.285 896.74 329.115 892.547C328.852 896.428 328.791 898.52 329.53 901.355C329.53 901.355 336.171 895.147 335.887 896.011C335.614 896.881 330.947 901.068 329.53 903.523C328.123 905.975 330.309 911.53 330.805 916.659Z" fill="#2E3D3B" stroke="black" stroke-opacity="0.2" stroke-width="1.0123"/>
<path d="M401.838 889.383C399.449 894.304 388.203 895.491 387.859 892.1C387.524 888.706 377.634 890.402 377.634 890.402C377.634 890.402 373.211 897.017 368.098 892.1C362.976 887.179 361.954 889.383 358.725 875.476C355.485 861.569 355.657 866.828 367.076 848.002C378.495 829.174 403.711 843.76 403.711 848.68C403.711 853.598 409.906 849.824 411.84 856.459C413.773 863.094 413.885 868.701 411.84 871.076C409.795 873.452 410.18 870.544 408.985 880.213C407.791 889.882 404.227 884.466 401.838 889.383Z" fill="url(#paint2_linear_1_505)" stroke="black" stroke-opacity="0.2" stroke-width="1.0123"/>
<path d="M386.684 907.158L382.949 908.308L382.301 892.227C379.163 889.893 378.07 887.554 376.784 882.382C378.758 886.967 379.952 889.278 382.949 890.585C383.131 887.457 383.789 884.521 384.741 879.757C384.437 884.166 384.366 886.542 385.227 889.765C385.227 889.765 392.859 882.71 392.535 883.694C392.201 884.679 386.846 889.438 385.227 892.227C383.607 895.016 386.117 901.327 386.684 907.158Z" fill="#2E3D3B" stroke="black" stroke-opacity="0.2" stroke-width="1.0123"/>
<path d="M191.572 917.434C116.929 912.871 51.9363 885.278 -12.188 885.533L-0.54854 956.207H457.869V901.053C438.251 903.267 266.225 921.994 191.572 917.434Z" fill="url(#paint3_linear_1_505)"/>
<path d="M17.1942 886.415C23.673 894.6 34.4034 890.824 34.8083 887.434C35.112 884.041 41.3882 887.434 41.3882 887.434C41.3882 887.434 45.8424 894.047 51.0051 889.131C56.0666 884.21 57.0789 886.415 60.3183 872.507C63.5577 858.6 63.4564 863.858 52.0174 845.033C40.5784 826.205 15.3721 840.79 15.3721 845.71C15.3721 850.628 11.4241 844.354 9.7032 856.905C7.98228 869.455 2.71831 868.473 4.74292 870.846C6.76752 873.221 6.96998 865.976 8.18474 875.643C9.29827 885.311 10.8167 878.231 17.1942 886.415Z" fill="url(#paint4_linear_1_505)" stroke="black" stroke-opacity="0.2" stroke-width="1.0123"/>
<path d="M38.8573 902.364L35.1118 903.512L34.4032 887.431C31.2651 885.097 30.1515 882.76 28.9368 877.586C30.8601 882.171 32.0749 884.483 35.1118 885.791C35.3143 882.662 35.9217 879.727 36.8327 874.961C36.6303 879.373 36.529 881.748 37.3389 884.971C37.3389 884.971 45.0324 877.915 44.6274 878.899C44.3238 879.884 38.9586 884.642 37.3389 887.431C35.7192 890.222 38.2499 896.534 38.8573 902.364Z" fill="#2E3D3B" stroke="black" stroke-opacity="0.2" stroke-width="1.0123"/>
<path d="M139.921 917.402L136.175 918.551L135.466 902.47C132.328 900.135 131.215 897.799 130 892.625C131.923 897.21 133.138 899.522 136.175 900.83C136.378 897.701 136.985 894.766 137.896 890C137.693 894.412 137.592 896.786 138.402 900.01C138.402 900.01 146.096 892.954 145.691 893.938C145.387 894.923 140.022 899.681 138.402 902.47C136.782 905.26 139.313 911.572 139.921 917.402Z" fill="#2E3D3B" stroke="black" stroke-opacity="0.2" stroke-width="1.0123"/>
</g>
<defs>
<linearGradient id="paint0_linear_1_505" x1="136.607" y1="869.021" x2="136.607" y2="905.109" gradientUnits="userSpaceOnUse">
<stop stop-color="#339846"/>
<stop offset="1" stop-color="#42B11D"/>
</linearGradient>
<linearGradient id="paint1_linear_1_505" x1="328.931" y1="857.829" x2="328.931" y2="906.479" gradientUnits="userSpaceOnUse">
<stop stop-color="#84A533"/>
<stop offset="1" stop-color="#83A431"/>
</linearGradient>
<linearGradient id="paint2_linear_1_505" x1="385.123" y1="838.643" x2="385.123" y2="893.917" gradientUnits="userSpaceOnUse">
<stop stop-color="#6FB147"/>
<stop offset="1" stop-color="#5BA032"/>
</linearGradient>
<linearGradient id="paint3_linear_1_505" x1="78.0116" y1="1010.04" x2="109.764" y2="805.124" gradientUnits="userSpaceOnUse">
<stop offset="0.2195" stop-color="#6FAD70"/>
<stop offset="0.8606" stop-color="#9DC457"/>
</linearGradient>
<linearGradient id="paint4_linear_1_505" x1="35.7772" y1="835.674" x2="35.7772" y2="890.948" gradientUnits="userSpaceOnUse">
<stop stop-color="#339846"/>
<stop offset="1" stop-color="#42B11D"/>
</linearGradient>
<clipPath id="clip0_1_505">
<rect width="440" height="956" fill="white"/>
</clipPath>
</defs>
</svg>
