  <svg
            viewBox="0 0 919 120"
            className={isActive ? "active" : ""}
            fill="none"
            xmlns="http://www.w3.org/2000/svg">
            <path
              d="M413.686 91.6643C409.448 91.6643 404.925 89.0964 404.925 81.8742V12.6951C404.925 5.12832 409.556 2.43066 413.89 2.43066C416.722 2.43066 419.136 3.57939 420.69 5.65451C422.009 7.42206 422.647 9.72321 422.647 12.6914V71.7247H442.746C446.984 71.7247 451.507 74.3594 451.507 81.7482C451.507 89.1371 446.984 91.6569 442.746 91.6569H413.686V91.6643Z"
              fill="#A684A3"
              className="svg-elem-1"></path>
            <path
              d="M442.75 87.2362H413.686C410.801 87.2362 409.355 85.4501 409.355 81.8779V12.6988C409.355 8.77087 410.902 6.86621 413.89 6.86621C416.878 6.86621 418.22 8.77087 418.22 12.6988V76.164H442.75C445.634 76.164 447.08 78.0686 447.08 81.7594C447.08 85.4501 445.634 87.2399 442.75 87.2399V87.2362Z"
              fill="#A684A3"
              className="svg-elem-2"></path>
            <path
              d="M482.488 92.9133C480.448 92.9133 475.528 92.1573 473.942 85.1501L458.837 18.3574C458.203 15.5485 458.399 13.1177 459.423 11.1426C460.22 9.60112 461.91 7.5964 465.422 6.80341L494.367 0.26679C495.142 0.0889227 495.909 0 496.64 0C498.675 0 503.577 0.770753 505.186 7.89285C505.823 10.7054 505.664 13.1473 504.711 15.1409C503.936 16.7603 502.275 18.865 498.753 19.658L478.561 24.2196L481.754 38.3415L495.972 35.1287C496.78 34.9472 497.566 34.8545 498.315 34.8545C500.358 34.8545 505.282 35.6216 506.891 42.7326C507.525 45.5414 507.329 47.9722 506.305 49.9473C505.508 51.4888 503.818 53.4935 500.306 54.2865L486.088 57.4992L489.228 71.3914L509.42 66.8298C510.172 66.6631 510.921 66.5741 511.641 66.5741C513.687 66.5741 518.629 67.3523 520.264 74.5745C521.859 81.641 517.966 85.165 513.78 86.1099L484.835 92.6465C484.026 92.828 483.24 92.9207 482.484 92.9207H482.48L482.488 92.9133Z"
              fill="#E3AC4A"
              className="svg-elem-3"></path>
            <path
              d="M512.809 81.7782L483.864 88.3148C480.875 88.9892 479.048 87.6033 478.273 84.1682L463.168 17.3754C462.367 13.8292 463.42 11.7912 466.408 11.1131L495.354 4.57644C498.238 3.92426 500.07 5.31755 500.87 8.86007C501.671 12.4026 500.67 14.6741 497.786 15.3263L473.267 20.8624L478.414 43.622L496.955 39.4347C499.944 38.7603 501.771 40.1461 502.576 43.6961C503.377 47.2423 502.324 49.2804 499.336 49.9585L480.794 54.1458L485.892 76.6793L510.41 71.1432C513.295 70.491 515.152 71.9955 515.953 75.5417C516.754 79.0879 515.701 81.126 512.816 81.7782H512.813H512.809Z"
              fill="#E3AC4A"
              className="svg-elem-4"></path>
            <path
              d="M582.831 92.2612C581.059 92.2612 576.713 91.6053 574.626 85.5171L568.03 65.9962H551.672L544.987 85.5171C542.974 91.3867 539.048 92.2612 536.886 92.2612C531.762 92.2612 527.599 88.0147 527.599 82.7898C527.599 81.6485 527.684 80.1552 528.307 78.6396L550.745 11.3873C552.236 6.9814 555.706 4.25781 559.807 4.25781C563.907 4.25781 567.459 7.02958 568.968 11.4911L591.362 78.8174C591.729 79.9106 592.115 81.2594 592.115 82.7935C592.115 87.9257 587.858 92.2649 582.827 92.2649L582.831 92.2612ZM565.88 46.5087L559.803 28.7368L553.811 46.5087H565.88Z"
              fill="#F5846F"
              className="svg-elem-5"></path>
            <path
              d="M540.797 84.0792C539.952 86.5434 538.684 87.8292 536.889 87.8292C533.934 87.8292 532.032 85.2502 532.032 82.7897C532.032 81.7373 532.14 80.911 532.455 80.2106L554.949 12.7879C555.902 9.97538 557.8 8.68213 559.806 8.68213C561.919 8.68213 563.818 10.0902 564.77 12.9028L587.161 80.2069C587.476 81.1444 587.687 81.9671 587.687 82.786C587.687 85.2502 585.681 87.8256 582.83 87.8256C581.036 87.8256 579.66 86.536 578.815 84.0755L571.211 61.5605H548.505L540.793 84.0755H540.797V84.0792ZM552.098 50.9367H567.622L559.81 28.0733L552.098 50.9367Z"
              fill="#F5846F"
              className="svg-elem-6"></path>
            <path
              d="M649.297 96.8892C648.915 96.8892 648.53 96.8633 648.155 96.8077C645.5 96.4371 643.302 94.8623 641.626 92.135C641.563 92.0275 641.504 91.9237 641.448 91.8126L625.064 59.3407L620.348 58.6774L617.011 82.393C616.244 87.8402 612.97 91.0974 608.254 91.0974C607.768 91.0974 607.256 91.0604 606.741 90.9862C603.148 90.4823 601.295 88.5591 600.371 87.0361C599.218 85.1315 598.836 82.7302 599.237 79.8918L608.747 12.3134C609.103 9.78994 609.922 7.8482 611.246 6.37339C612.336 5.16537 614.293 3.72021 617.441 3.72021C617.942 3.72021 618.465 3.75727 618.998 3.83138L645.879 7.61106C659.764 9.56389 667.59 21.5514 665.351 37.4371C664.394 44.248 661.658 50.0991 657.45 54.3568C654.287 57.5584 650.454 59.7002 646.175 60.6858L657.461 82.2707C657.52 82.3782 657.569 82.4894 657.617 82.5968C658.403 84.4496 658.666 86.4692 658.392 88.4405C657.713 93.2503 653.805 96.8818 649.297 96.8818V96.8892ZM640.784 41.5911C641.107 41.6355 641.422 41.6578 641.73 41.6578C645.356 41.6578 647.121 38.3079 647.558 35.173C647.87 32.9756 647.54 30.9746 646.631 29.5332C645.838 28.2659 644.655 27.5174 643.116 27.3024L625.123 24.7715L623.106 39.1046L640.784 41.5911Z"
              fill="#86AF61"
              className="svg-elem-7"></path>
            <path
              d="M639.168 56.8472L653.535 84.3276C654.013 85.4615 654.165 86.6659 654.002 87.8257C653.594 90.7271 651.173 92.7541 648.767 92.4206C647.406 92.2316 646.357 91.3719 645.4 89.8156L627.975 55.276L616.578 53.6715L612.622 81.7708C612.117 85.3726 610.39 87.0253 607.357 86.5954C604.324 86.1693 603.119 84.1053 603.631 80.5035L613.141 12.9251C613.645 9.32333 615.358 7.79292 618.387 8.21536L645.267 11.995C657.398 13.6996 662.734 24.279 660.969 36.8223C659.252 49.0136 651.01 57.566 639.168 56.8472ZM643.732 22.9153L621.353 19.7693L618.101 42.8772L640.169 45.9825C646.446 46.8644 651.014 42.4177 651.948 35.7996C652.879 29.1814 649.59 23.7491 643.736 22.9227V22.9153H643.732Z"
              fill="#86AF61"
              className="svg-elem-8"></path>
            <path
              d="M719.541 92.3796C715.952 92.3796 712.444 90.0969 710.602 86.5692L690.421 47.8572V82.1448C690.421 89.4633 685.842 92.0683 681.556 92.0683C677.27 92.0683 672.691 89.4633 672.691 82.1448V14.9333C672.691 8.42632 676.618 3.8833 682.238 3.8833C687.859 3.8833 690.303 8.34851 691.066 9.81591L711.247 48.4501V14.2441C711.247 11.3018 711.914 9.02662 713.293 7.2813C714.402 5.88059 716.478 4.20568 720.108 4.20568C723.738 4.20568 725.818 5.87689 726.923 7.2813C728.302 9.02662 728.969 11.3018 728.969 14.2441V81.3407C728.969 85.3946 727.579 87.8773 726.407 89.2521C724.683 91.2753 722.24 92.3907 719.53 92.3907H719.533L719.541 92.3796Z"
              fill="#80739C"
              className="svg-elem-9"></path>
            <path
              d="M714.532 84.5203L685.987 29.7706V82.1488C685.987 85.8136 684.541 87.6404 681.557 87.6404C678.572 87.6404 677.126 85.8099 677.126 82.1488V14.9373C677.126 10.561 679.365 8.31543 682.239 8.31543C684.69 8.31543 685.965 9.61609 687.137 11.8617L715.681 66.4965V14.2332C715.681 10.4609 717.127 8.62668 720.112 8.62668C723.097 8.62668 724.543 10.4572 724.543 14.2332V81.3299C724.543 85.9396 722.199 87.9517 719.537 87.9517C717.832 87.9517 715.704 86.7696 714.528 84.524L714.532 84.5203Z"
              fill="#80739C"
              className="svg-elem-10"></path>
            <path
              d="M744.804 91.7458C740.518 91.7458 735.939 89.1779 735.939 81.9557C735.939 77.9871 737.463 73.7998 741.505 72.3435V22.9965C737.463 21.5476 735.939 17.39 735.939 13.4472C735.939 8.6856 738.268 3.60156 744.804 3.60156H756.038C760.276 3.60156 764.799 6.18805 764.799 13.4472C764.799 18.9982 762.278 21.8811 759.234 22.9891V72.362C762.275 73.4737 764.799 76.3751 764.799 81.9594C764.799 89.1742 760.276 91.7495 756.038 91.7495H744.804V91.7458Z"
              fill="#F79A6B"
              className="svg-elem-11"></path>
            <path
              d="M754.805 19.1059V76.2457H756.04C758.924 76.2457 760.37 78.1504 760.37 81.9597C760.37 85.5281 758.924 87.3179 756.04 87.3179H744.806C741.817 87.3179 740.375 85.5318 740.375 81.9597C740.375 78.1504 741.821 76.2457 744.806 76.2457H745.94V19.1059H744.806C741.817 19.1059 740.375 17.2198 740.375 13.4512C740.375 9.68267 741.821 8.03369 744.806 8.03369H756.04C758.924 8.03369 760.37 9.80124 760.37 13.4512C760.37 17.1012 758.924 19.1059 756.04 19.1059H754.805Z"
              fill="#F79A6B"
              className="svg-elem-12"></path>
            <path
              d="M791.651 106.442C789.441 106.442 784.154 105.598 782.875 97.7418L771.978 30.8231C771.118 25.5574 773.131 19.4136 779.575 18.365C780.128 18.276 780.684 18.2278 781.21 18.2278C785.326 18.2278 787.75 20.8588 789.219 22.8376L815.101 57.7662L809.581 23.864C809.099 20.8995 809.392 18.4983 810.471 16.5233C811.342 14.9299 813.151 12.8992 816.792 12.3063C817.374 12.2137 817.949 12.1655 818.498 12.1655C820.715 12.1655 826.002 13.0252 827.296 20.9811L838.178 87.785C838.83 91.7833 837.874 94.4587 836.95 95.9965C835.586 98.2903 833.358 99.791 830.684 100.228C830.247 100.299 829.795 100.336 829.339 100.336C826.154 100.336 823.017 98.6756 820.959 95.889L795.066 60.8789L800.601 94.8589C801.391 99.691 799.9 105.231 793.371 106.294C792.789 106.387 792.214 106.435 791.662 106.435L791.651 106.442Z"
              fill="#ECC35D"
              className="svg-elem-13"></path>
            <path
              d="M824.511 93.2543L787.739 43.5367L796.211 95.5739C796.822 99.324 795.666 101.44 792.644 101.929C789.622 102.418 787.857 100.78 787.246 97.0339L776.349 30.1152C775.644 25.7796 777.469 23.1969 780.283 22.7411C782.682 22.352 784.142 23.4377 785.651 25.4795L822.405 75.0785L813.948 23.1635C813.317 19.2949 814.471 17.1827 817.492 16.6936C820.514 16.2008 822.279 17.8423 822.913 21.7072L833.795 88.5111C834.54 93.0838 832.571 95.448 829.965 95.8741C828.3 96.1446 826.02 95.3108 824.514 93.2728V93.258L824.511 93.2543Z"
              fill="#ECC35D"
              className="svg-elem-14"></path>
            <path
              d="M880.277 91.2345C878.475 91.2345 876.64 91.0789 874.816 90.775C854.213 87.3288 841.907 65.4475 846.19 39.8828C849.994 17.1973 865.695 1.34863 884.378 1.34863C886.217 1.34863 888.086 1.50427 889.936 1.81554C896.954 2.9902 903.253 6.01765 907.677 10.3458C911.785 14.3329 916.386 19.7023 915.366 25.7757C914.565 30.5744 910.587 34.191 906.123 34.191C905.671 34.191 905.218 34.154 904.777 34.0799C902.378 33.676 900.376 32.2419 898.83 29.8148C898.801 29.7666 898.771 29.7184 898.741 29.6703C896.131 25.2014 891.73 22.148 886.677 21.3031C885.728 21.1438 884.775 21.0622 883.844 21.0622C874.093 21.0622 866.077 29.8148 863.897 42.8398C861.406 57.6991 867.253 69.3457 878.108 71.1615C879.058 71.3208 879.999 71.4023 880.923 71.4023C887.841 71.4023 893.925 66.7259 897.536 58.9072L876.051 55.3091C871.776 54.5902 867.631 51.2515 868.843 44.0219C869.166 42.0876 870.749 35.7733 877.474 35.7733C878.06 35.7733 878.672 35.8252 879.295 35.929L910.854 41.2094C917.379 42.3025 918.866 47.6941 918.084 52.3817C914.25 75.2561 898.708 91.2271 880.281 91.2271L880.274 91.2345H880.277Z"
              fill="#81AA8E"
              className="svg-elem-15"></path>
            <path
              d="M910.127 45.5933C913.149 46.0972 914.316 48.0797 913.712 51.663C910.068 73.4035 894.51 89.582 875.553 86.4101C856.6 83.2381 846.808 63.0539 850.568 40.6204C854.327 18.1869 870.563 3.06822 889.208 6.19201C894.94 7.14804 900.621 9.6456 904.577 13.5179C908.722 17.5385 911.595 21.4701 910.998 25.057C910.516 27.9511 908.006 30.1411 905.503 29.726C904.354 29.5371 903.412 28.7811 902.567 27.4508C899.486 22.1815 894.077 18.0646 887.41 16.9493C873.662 14.6518 862.262 25.8167 859.529 42.1249C856.76 58.6628 863.526 73.2294 877.381 75.5491C889.568 77.5871 899.568 69.0384 903.561 55.439L876.792 50.9626C873.77 50.4587 872.621 48.3613 873.225 44.778C873.807 41.3096 875.557 39.8163 878.575 40.324L910.134 45.6044H910.131L910.127 45.5933Z"
              fill="#81AA8E"
              className="svg-elem-16"></path>
            <path
              d="M326.674 93.5912C311.959 93.5912 301.277 83.7084 301.277 70.0905C301.277 61.953 304.881 54.9718 311.777 49.6246C312.797 48.8317 313.093 47.4235 312.478 46.2859C310.35 42.3506 309.241 38.3116 309.241 34.3763C309.241 29.0328 311.258 23.7783 314.777 19.9542C317.576 16.9119 322.641 13.2842 330.864 13.2842C342.057 13.2842 350.184 21.14 350.184 31.9676C350.184 39.4158 346.721 45.278 339.128 50.4028C337.823 51.2847 337.582 53.1116 338.613 54.3048C340.637 56.6393 342.621 58.9219 344.482 61.0563C345.839 62.6089 348.371 62.0753 348.983 60.104C349.925 57.0728 350.692 53.5933 351.3 49.6283L351.441 48.7168C351.638 47.4309 352.743 46.4823 354.044 46.4823H364.622C366.253 46.4823 367.491 47.946 367.217 49.5542L367.006 50.8104C365.297 60.8599 362.757 68.4934 359.127 74.3667C358.508 75.3672 358.649 76.6604 359.453 77.5238C361.037 79.221 362.638 80.9404 364.288 82.719C365.341 83.8529 366.416 85.0128 367.532 86.2097L369.216 88.018C370.78 89.7003 369.586 92.4424 367.288 92.4424H353.477C352.78 92.4424 352.109 92.1645 351.616 91.6717L351.3 91.3567C350.388 90.4451 349.498 89.5336 348.579 88.5738C347.66 87.6141 346.284 87.4955 345.224 88.1996C339.781 91.8199 333.663 93.5912 326.674 93.5912ZM324.187 61.4565C323.13 60.2633 321.243 60.2522 320.223 61.475C318.395 63.665 317.498 66.0699 317.498 68.7305C317.498 74.9336 321.921 79.2692 328.25 79.2692C330.386 79.2692 332.481 78.843 334.409 78.0463C336.081 77.3571 336.537 75.2004 335.321 73.859C332.158 70.3758 328.25 66.0477 324.183 61.4565H324.187ZM330.237 26.9874C325.288 26.9874 325.039 32.4494 325.039 33.5462C325.039 35.2545 325.377 36.8664 326.129 38.5635C326.815 40.105 328.762 40.6275 330.108 39.6122C333.419 37.1109 334.705 34.9691 334.705 32.3938C334.705 27.2467 330.986 26.9874 330.241 26.9874H330.237Z"
              fill="#2E3192"
              className="svg-elem-17"></path>
            <path
              d="M353.921 88.7371C351.93 86.7472 350.043 84.7573 347.322 81.8262C341.245 87.4809 334.434 89.8895 326.678 89.8895C312.952 89.8895 304.988 80.6738 304.988 70.0944C304.988 60.4599 310.75 53.8603 318.821 49.4618V49.1468C315.155 44.5371 312.952 39.4086 312.952 34.3801C312.952 25.7944 319.133 16.9937 330.871 16.9937C339.673 16.9937 346.484 22.8596 346.484 31.9715C346.484 39.4086 342.187 45.2708 330.975 50.8217V51.1367C336.948 58.0476 343.655 65.7996 348.16 70.8244C351.408 65.9034 353.61 59.0962 354.971 50.1917H363.353C361.466 61.2936 358.43 70.0907 353.187 76.2678C356.958 80.2476 360.628 84.2274 364.818 88.7296H353.921V88.7371ZM342.813 76.5865C338.624 71.9768 330.764 63.391 322.903 54.3828C319.133 56.7914 313.786 61.2937 313.786 68.7307C313.786 76.794 319.759 82.9749 328.246 82.9749C334.323 82.9749 339.458 80.2513 342.81 76.5865H342.813ZM321.331 33.5427C321.331 38.5711 323.638 42.4435 326.674 46.2157C333.8 42.1322 338.409 38.3599 338.409 32.3903C338.409 28.0955 335.999 23.2783 330.237 23.2783C324.475 23.2783 321.331 28.0955 321.331 33.5427Z"
              fill="#2E3192"
              className="svg-elem-18"></path>
            <path
              d="M20.8498 92.4108C14.2503 92.4108 12.6153 86.1596 12.2742 84.2475L0.250391 17.1916C-0.272381 14.2753 0.0242287 11.7852 1.1328 9.7953C2.00409 8.22785 3.80228 6.21943 7.39124 5.57837C8.00671 5.4672 8.61474 5.41162 9.20055 5.41162C11.3584 5.41162 16.5231 6.25278 17.9171 14.0308L28.165 71.1854L48.542 67.5354C49.1574 67.4242 49.7692 67.3686 50.355 67.3686C57.0027 67.3686 58.6748 73.7904 59.0234 75.758C59.5276 78.5743 59.231 80.9792 58.1447 82.9061C57.2882 84.4216 55.5345 86.3597 52.0271 86.9896L22.7148 92.2367C22.0771 92.3516 21.4505 92.4108 20.8498 92.4108Z"
              fill="#F48573"
              className="svg-elem-19"></path>
            <path
              d="M51.2445 82.6317L21.9285 87.8788C19.018 88.4013 17.2532 86.9302 16.634 83.4655L4.61027 16.4096C3.92807 12.6003 5.15527 10.4733 8.16956 9.93228C11.1838 9.39126 12.8671 10.9958 13.5493 14.8051L24.5794 76.3249L49.3203 71.8967C52.2308 71.3742 54.0178 72.9602 54.6592 76.5398C55.3007 80.1194 54.155 82.113 51.2482 82.6317H51.2445Z"
              fill="#F48573"
              className="svg-elem-20"></path>
            <path
              d="M96.5218 94.9414C94.8793 94.9414 93.1998 94.808 91.5277 94.5523C81.1983 92.9589 72.7227 86.6854 67.6618 76.8916C62.9902 67.8574 61.4479 56.2368 63.3091 44.1826C66.9388 20.7375 81.7619 4.98145 100.2 4.98145C101.883 4.98145 103.607 5.11485 105.324 5.38165C115.657 6.98245 124.14 13.13 129.215 22.6977C133.928 31.5837 135.5 43.0783 133.646 55.0584C131.915 66.2455 127.636 75.9615 121.278 83.154C114.456 90.869 105.895 94.9451 96.5218 94.9451V94.9414ZM99.74 24.7099C90.4747 24.7099 83.1337 33.4328 81.0463 46.9284C79.0998 59.5162 82.5256 73.0489 94.5679 74.9091C95.4058 75.0388 96.2438 75.1055 97.0483 75.1055C106.366 75.1055 113.77 66.164 115.909 52.3163C117.029 45.0793 116.276 38.3686 113.784 33.4254C111.341 28.5785 107.478 25.7141 102.298 24.9137C101.431 24.7803 100.571 24.7099 99.7363 24.7099H99.74Z"
              fill="#FDBB46"
              className="svg-elem-21"></path>
            <path
              d="M104.645 9.75799C123.432 12.6594 132.727 32.0136 129.268 54.3804C125.79 76.8583 110.993 93.085 92.2064 90.1798C73.42 87.2784 64.214 67.3462 67.6954 44.8645C71.1583 22.5014 85.8664 6.85653 104.653 9.76169H104.649L104.645 9.75799ZM102.977 20.5338C89.1995 18.4031 79.1927 29.9088 76.6641 46.2504C74.1022 62.8217 80.1122 77.1585 93.886 79.2855C107.663 81.4162 117.726 69.5621 120.288 52.9945C122.813 36.653 116.751 22.6682 102.973 20.5375H102.977V20.5338Z"
              fill="#FDBB46"
              className="svg-elem-22"></path>
            <path
              d="M169.888 93.4962C165.72 93.4962 162.335 90.8356 160.83 86.3778L138.388 19.2293C137.761 17.7137 137.68 16.2204 137.68 15.0753C137.68 9.15386 142.503 5.48535 146.967 5.48535C149.129 5.48535 153.051 6.36357 155.068 12.2295L169.884 56.1033L184.696 12.2517C186.791 6.14494 191.136 5.48906 192.908 5.48906C198.466 5.48906 202.196 10.4471 202.196 15.0791C202.196 16.3352 201.94 17.6322 201.41 19.0292C201.41 19.0292 178.927 86.526 178.919 86.5483C177.407 90.8319 173.947 93.4925 169.884 93.4925H169.888V93.4962Z"
              fill="#81AA8E"
              className="svg-elem-23"></path>
            <path
              d="M188.897 13.6748C189.742 11.2106 191.114 9.9248 192.908 9.9248C195.76 9.9248 197.765 12.6225 197.765 15.0867C197.765 15.9056 197.554 16.7282 197.239 17.5509L174.745 85.0885C173.796 87.7861 171.894 89.0756 169.888 89.0756C167.775 89.0756 165.98 87.7861 165.031 84.9699L142.537 17.6657C142.222 16.9617 142.114 16.1427 142.114 15.0867C142.114 12.6225 144.016 9.9248 146.971 9.9248C148.766 9.9248 150.034 11.2143 150.879 13.6748L169.888 69.9586L188.897 13.6748Z"
              fill="#81AA8E"
              className="svg-elem-24"></path>
            <path
              d="M228.017 103.227C225.925 103.227 220.898 102.453 219.441 95.2749L205.775 28.1745C204.825 23.5204 206.123 18.0806 212.608 16.7614L241.69 10.8436C242.398 10.6991 243.099 10.625 243.77 10.625C245.854 10.625 250.855 11.4143 252.342 18.6994C253.821 25.9623 249.862 29.4678 245.657 30.3238L225.369 34.4518L228.258 48.633L242.543 45.7278C243.277 45.5759 244 45.5018 244.69 45.5018C246.781 45.5018 251.812 46.2873 253.295 53.5614C254.244 58.2156 252.946 63.6553 246.462 64.9745L232.176 67.8797L235.017 81.8311L255.301 77.7031C255.99 77.5623 256.676 77.4919 257.329 77.4919C263.802 77.4919 265.586 83.7543 265.975 85.6775C267.421 92.7736 263.443 96.2161 259.249 97.0684L230.167 102.986C229.433 103.138 228.706 103.212 228.013 103.212V103.22L228.017 103.227Z"
              fill="#5A80AE"
              className="svg-elem-25"></path>
            <path
              d="M258.367 92.7477L229.284 98.6655C226.285 99.2769 224.483 97.8466 223.778 94.4004L210.112 27.3001C209.385 23.739 210.483 21.7195 213.486 21.1081L242.568 15.1903C245.468 14.6011 247.266 16.0278 247.993 19.5925C248.719 23.1573 247.67 25.4028 244.771 25.992L220.145 31.0019L224.802 53.8653L243.429 50.0745C246.428 49.4631 248.23 50.8934 248.957 54.4544C249.683 58.0155 248.586 60.035 245.583 60.6464L226.956 64.4372L231.564 87.0708L256.19 82.0609C259.089 81.4717 260.91 83.0132 261.637 86.578C262.363 90.1427 261.266 92.1586 258.367 92.7477Z"
              fill="#5A80AE"
              className="svg-elem-26"></path>
         
          </svg>