<svg width="98" height="153" viewBox="0 0 98 153" fill="none" xmlns="http://www.w3.org/2000/svg">
<path d="M80.174 78.1198C82.1522 77.6743 82.3859 77.6416 84.3797 77.2682C85.1161 77.1268 85.8748 77.0286 86.5655 76.7432C87.3456 76.418 87.9074 75.7579 88.4555 75.1411C88.7913 74.7552 89.1428 74.2359 89.6626 74.0731C90.2003 73.8996 90.6548 74.3459 90.6135 74.8864C90.5657 75.463 90.1495 75.9968 89.935 76.5231C89.8969 76.6132 89.8877 76.7105 89.9252 76.797C89.9923 76.9266 90.1869 76.9264 90.2948 76.9119C90.9636 76.8246 91.3227 76.745 91.7218 76.6904C92.3618 76.6032 93.8791 76.1871 94.3097 76.9217C94.4732 77.2097 94.3408 77.6892 94.1273 77.8552C93.7824 78.1258 93.3821 78.3209 92.9739 78.4799C92.7699 78.563 92.5585 78.6317 92.347 78.7004C92.1786 78.7546 91.891 78.7982 91.8187 78.9965C91.7602 79.1587 91.96 79.2558 92.0867 79.288C92.2279 79.3275 92.3829 79.3237 92.5306 79.32C93.0924 79.2977 93.6644 79.2357 94.2275 79.2928C94.4982 79.3177 94.7728 79.3534 95.0268 79.454C95.2264 79.5367 95.4196 79.6698 95.4916 79.8751C95.5373 80.0192 95.5148 80.1813 95.4596 80.3255C95.3316 80.6391 95.0473 80.8774 94.7362 81.0182C94.3429 81.1989 93.9226 81.2822 93.5024 81.3656C93.0642 81.4526 92.6259 81.5323 92.188 81.6337C92.0946 81.6555 91.9942 81.6844 91.9452 81.7709C91.8962 81.8575 91.9343 81.98 92.0076 82.0519C92.0846 82.1275 92.1897 82.1598 92.2874 82.1849C92.5589 82.2531 92.8182 82.2456 93.0925 82.2669C93.3776 82.2918 93.6595 82.3347 93.9379 82.3884C94.2452 82.4493 94.5709 82.5282 94.7768 82.7658C95.1553 83.1942 94.9744 83.7889 94.4635 84.0526C93.9598 84.309 91.7868 84.3223 91.4446 84.3335C89.3554 84.3936 87.2491 84.5077 85.1858 84.82C79.4771 85.4499 82.6781 85.0715 80.1651 85.4311" fill="#F6D3C3"/>
<path d="M17.8349 74.8407C16.0444 73.889 15.8276 73.7958 14.003 72.9096C13.33 72.5789 12.624 72.284 12.0331 71.8264C11.3664 71.3069 10.9987 70.522 10.6328 69.7825C10.4107 69.3216 10.2086 68.728 9.75019 68.4339C9.27741 68.1246 8.72125 68.4352 8.61842 68.9674C8.51244 69.5362 8.77307 70.1609 8.84108 70.7251C8.85406 70.8221 8.83723 70.9184 8.77824 70.9919C8.67934 71.0992 8.49167 71.0477 8.39146 71.0052C7.76934 70.7446 7.44402 70.573 7.07344 70.4151C6.47912 70.1621 5.12535 69.3604 4.51623 69.9553C4.28254 70.1901 4.28376 70.6875 4.44581 70.9039C4.70715 71.256 5.04182 71.5497 5.39354 71.8108C5.56839 71.9448 5.75419 72.0668 5.94003 72.1889C6.0882 72.2857 6.35413 72.4035 6.37156 72.6139C6.38519 72.7858 6.1668 72.8267 6.03609 72.8244C5.88945 72.8252 5.741 72.7807 5.59954 72.7381C5.06349 72.5684 4.52815 72.3577 3.96988 72.2641C3.70219 72.2167 3.42795 72.1788 3.15642 72.2088C2.94207 72.2358 2.72056 72.3133 2.59697 72.4923C2.51487 72.6192 2.49376 72.7815 2.50897 72.9352C2.54968 73.2715 2.76103 73.5763 3.02398 73.7942C3.35574 74.0723 3.73907 74.2635 4.12243 74.4548C4.52214 74.6543 4.92385 74.8469 5.31953 75.0603C5.40382 75.1058 5.49306 75.1603 5.51747 75.2566C5.54189 75.353 5.47283 75.4611 5.38313 75.5112C5.28895 75.5638 5.17909 75.5672 5.07819 75.5657C4.79838 75.5598 4.55015 75.4841 4.27999 75.4323C3.99839 75.3811 3.71524 75.3481 3.43251 75.3265C3.11996 75.3042 2.78502 75.2943 2.52377 75.4692C2.04567 75.7825 2.06319 76.4039 2.4864 76.793C2.90467 77.1733 4.99714 77.7594 5.32424 77.8605C7.3236 78.4697 9.32514 79.1355 11.233 79.9811C16.5731 82.0949 13.5854 80.8853 15.9145 81.8952" fill="#F6D3C3"/>
<path d="M52.6734 151.366C51.01 150.811 52.6734 144.158 52.6734 144.158L60.9902 143.604C60.9902 143.604 68.1981 148.594 67.6436 151.366C67.0892 154.138 54.3367 151.92 52.6734 151.366Z" fill="#F79A6B"/>
<path d="M31.7891 150.811C30.1257 150.257 31.7891 143.603 31.7891 143.603L40.1059 143.049C40.1059 143.049 47.3138 148.039 46.7593 150.811C46.2049 153.583 33.4524 151.366 31.7891 150.811Z" fill="#F79A6B"/>
<path d="M65.9809 100.36C61.5453 82.0654 26.6147 100.914 26.6147 100.914C25.2085 98.9325 26.4383 115.285 30.4959 122.538C34.5534 129.79 29.9422 143.61 31.6048 144.716C33.2674 145.822 41.0313 145.27 42.1394 145.27C43.2475 145.27 47.684 129.194 49.3473 128.082C51.0107 126.97 51.5643 145.822 53.2285 145.27C54.8926 144.719 62.6534 146.376 62.6542 144.716C62.655 143.055 70.4166 118.654 65.9809 100.36Z" fill="#E3AC4A"/>
<ellipse cx="51.4093" cy="31.1764" rx="22.7144" ry="23.1598" fill="#F6D3C3"/>
<path d="M74.123 29.8405C73.6015 24.1138 65.1102 14.0545 59.6636 12.9722C58.0863 13.4859 61.7048 16.0759 62.519 16.5088C57.8541 20.691 48.0405 14.5755 47.3266 13.9151C46.0963 14.2159 48.0929 16.3657 50.8786 18.4018C50.5682 19.5905 44.2873 16.8537 44.0145 17.5727L44.9292 18.9851C44.5685 20.9185 30.6369 17.0177 33.148 19.5968C33.1746 23.2067 31.4895 32.3089 28.6942 35.1851C27.3462 30.6984 27.358 28.059 28.2488 34.2943C24.0043 27.8376 26.837 14.7956 29.169 9.55311C31.7492 3.73467 36.7392 3.26141 42.4188 1.06391L41.3912 0C55.4298 3.47785 61.9646 -1.12629 70.0564 8.37178L68.4574 9.07984C72.7993 17.9322 74.123 21.0432 74.123 29.8405Z" fill="#3F3F3F"/>
<path d="M64.0537 24.2364C61.5215 23.5104 59.2722 26.6994 60.7271 28.8717C61.874 25.8186 64.4882 24.9924 65.7087 28.4218C66.8849 27.0755 66.1974 24.8514 64.0552 24.2369L64.0537 24.2364Z" fill="#7D3937"/>
<path d="M51.0794 39.5985C54.8785 41.1449 57.0337 41.2738 60.9245 39.9792C60.9245 39.9792 61.9656 39.1937 60.9715 41.3409C60.2019 43.0046 58.4705 44.5959 56.2196 44.3431C51.0649 43.7628 51.0808 39.599 51.0808 39.599L51.0794 39.5985Z" fill="#7B444C"/>
<path d="M47.9291 24.2885C45.3973 23.5627 43.1479 26.7516 44.6043 28.9203C45.7497 25.8709 48.3636 25.0446 49.5859 28.4704C50.7621 27.1242 50.0746 24.9 47.9306 24.2891L47.9291 24.2885Z" fill="#7D3937"/>
<path d="M43.2656 32.4282C45.422 32.408 47.2014 34.164 47.2372 36.3513C47.2749 38.5392 45.5541 40.33 43.3977 40.3502C41.2413 40.3703 39.4633 38.6108 39.4271 36.4234C39.3898 34.2355 41.1092 32.4484 43.2656 32.4282Z" fill="#F1B0AB"/>
<path d="M68.2068 32.4286C70.3632 32.4084 72.1416 34.1681 72.1774 36.3554C72.2151 38.5434 70.4957 40.3305 68.3393 40.3507C66.1829 40.3709 64.4035 38.6149 64.3673 36.4275C64.3297 34.2395 66.0505 32.4487 68.2068 32.4286Z" fill="#F1B0AB"/>
<path d="M63.2081 57.105C58.7724 53.2287 41.5844 51.5605 34.3765 57.105C27.1686 62.6496 19.9607 71.5208 19.9607 71.5208C18.1379 71.7496 16.6469 71.6343 12.1983 70.4119L8.87158 79.8376C15.0735 83.07 18.5201 85.5577 24.9507 83.7188C24.9507 83.7188 22.1785 102.016 23.8418 102.016C25.5052 102.016 65.4259 103.675 67.6437 102.016C69.8615 100.356 67.6437 83.7188 67.6437 83.7188C77.7197 88.1186 80.3453 86.4079 86.4951 85.3822V75.402C86.4951 75.402 77.6239 78.1705 75.4061 75.402C73.1882 72.6335 67.6437 60.9814 63.2081 57.105Z" fill="#86AF61"/>
<path d="M45.4653 57.6635V50.4556L55.4455 49.3467V57.6635C51.3771 60.4004 49.5764 59.1946 45.4653 57.6635Z" fill="#F6D3C3"/>
<path d="M56.6567 30.6448C57.8552 32.1469 57.2873 33.4433 56.7181 34.3016" stroke="#D99288" stroke-width="0.5" stroke-linecap="round"/>
</svg>
