<svg width="70" height="83" viewBox="0 0 70 83" fill="none" xmlns="http://www.w3.org/2000/svg">
<path d="M57.7027 36.5024C58.6408 35.651 58.7577 35.5612 59.7265 34.7442C60.0832 34.4405 60.4654 34.1535 60.7529 33.7856C61.0768 33.3685 61.1789 32.8367 61.2868 32.3326C61.3505 32.0194 61.3816 31.6289 61.6141 31.3804C61.8528 31.1204 62.2373 31.223 62.3814 31.5296C62.533 31.8577 62.4711 32.276 62.5167 32.6282C62.5237 32.6889 62.5487 32.7446 62.5957 32.7801C62.6721 32.8299 62.7778 32.7698 62.832 32.7287C63.1686 32.4753 63.3393 32.3214 63.5394 32.1688C63.8605 31.9243 64.5571 31.2308 65.0173 31.4975C65.1949 31.6037 65.2706 31.9051 65.2057 32.0611C65.1016 32.3144 64.944 32.5437 64.7712 32.7559C64.6859 32.8639 64.5921 32.9663 64.4983 33.0688C64.4235 33.1502 64.2806 33.2624 64.3023 33.3925C64.3205 33.4987 64.459 33.4899 64.5378 33.4684C64.6267 33.4464 64.7098 33.3966 64.7889 33.3491C65.0874 33.1639 65.3793 32.9541 65.7029 32.8116C65.8578 32.7418 66.018 32.6767 66.187 32.6531C66.321 32.6366 66.467 32.6494 66.5694 32.7389C66.6386 32.8031 66.6763 32.8981 66.6907 32.9935C66.7178 33.2034 66.6366 33.4205 66.5109 33.5929C66.3527 33.8122 66.1499 33.9869 65.9472 34.1617C65.7358 34.3439 65.5221 34.5223 65.3153 34.7123C65.2713 34.7528 65.2256 34.7995 65.2256 34.8616C65.2256 34.9237 65.2841 34.9786 65.3461 34.9951C65.4112 35.0125 65.4782 34.9977 65.5391 34.9812C65.7076 34.9347 65.8463 34.8507 66.002 34.7778C66.1646 34.7036 66.331 34.6401 66.4989 34.5835C66.6847 34.522 66.8861 34.4645 67.0711 34.5303C67.4088 34.6466 67.4937 35.0256 67.2972 35.3262C67.1023 35.6208 65.9253 36.2972 65.7427 36.4087C64.6256 37.0848 63.5158 37.7956 62.4905 38.6008C59.5814 40.7014 61.2049 39.5098 59.9496 40.4792" fill="#F6D3C3"/>
<path d="M11.1239 37.9023C10.0119 37.2954 9.8771 37.2357 8.74335 36.6695C8.3252 36.4582 7.8862 36.2691 7.52021 35.9792C7.10732 35.6501 6.88302 35.1572 6.65952 34.6926C6.52397 34.4032 6.40184 34.031 6.11748 33.844C5.82426 33.6476 5.47467 33.8377 5.40676 34.1696C5.33662 34.5242 5.49513 34.9162 5.53372 35.2692C5.54116 35.3299 5.52998 35.3899 5.49262 35.4354C5.43009 35.5018 5.31321 35.4683 5.2509 35.441C4.86405 35.2739 4.66201 35.1645 4.43159 35.0633C4.06205 34.9011 3.22187 34.3909 2.83724 34.7584C2.68963 34.9034 2.68695 35.2142 2.78669 35.3505C2.94752 35.5722 3.15457 35.7581 3.37249 35.9236C3.4808 36.0085 3.59602 36.086 3.71128 36.1636C3.80318 36.225 3.96849 36.3005 3.97793 36.432C3.98526 36.5395 3.84854 36.5636 3.7669 36.5612C3.67529 36.5607 3.58286 36.5319 3.49478 36.5043C3.16107 36.3946 2.82809 36.2593 2.47998 36.1969C2.31307 36.1655 2.14201 36.1399 1.97218 36.1568C1.83808 36.1722 1.69917 36.219 1.62072 36.33C1.56856 36.4087 1.55425 36.51 1.56269 36.6061C1.5858 36.8165 1.71573 37.0083 1.87849 37.1463C2.08383 37.3223 2.32198 37.4444 2.56015 37.5666C2.80848 37.694 3.0581 37.817 3.30381 37.9531C3.35616 37.9821 3.41153 38.0167 3.42612 38.0771C3.4407 38.1375 3.39682 38.2046 3.34043 38.2352C3.28123 38.2674 3.21258 38.2688 3.14956 38.2671C2.9748 38.2615 2.82024 38.2126 2.65183 38.1783C2.47626 38.1444 2.2996 38.1218 2.12313 38.1064C1.92803 38.0902 1.71885 38.0818 1.55444 38.1892C1.25359 38.3816 1.26025 38.77 1.52195 39.016C1.78063 39.2564 3.08377 39.637 3.28742 39.7025C4.53224 40.0968 5.77804 40.5266 6.96405 41.068C10.2855 42.4254 8.42739 41.6491 9.87543 42.2961" fill="#F6D3C3"/>
<path d="M19.4995 49.1382C18.0258 54.8841 16.7314 58.0253 16.9995 59.369L52.9995 60.9844C53.6131 56.7379 52.9685 53.9836 51.9995 49.1382C57.2548 46.6762 59.1525 44.588 61.9995 40.5228L59.4995 32.9844C54.1797 38.3242 50.3476 40.2648 40.4995 39.9844L39.4995 33.5228L29.4995 34.5998V41.0613C15.7029 40.5502 13.5203 38.9366 8.99951 36.2151L6.99951 41.5998C11.5994 45.775 14.3022 47.5763 19.4995 49.1382Z" fill="#E42323"/>
<path d="M61.0284 69.1912C60.3758 70.3973 59.9968 73.8211 59.9968 73.8211L57.9994 79.4836C57.9994 79.4836 61.8689 82.2446 63.2514 81.0258C64.6339 79.807 67.4993 76.9836 68.6057 74.4432C69.7122 71.9027 68.3278 69.4996 65.9997 68.4844C64.2022 67.7006 61.6809 67.9851 61.0284 69.1912Z" fill="#F6D3C3"/>
<path d="M8.63692 69.227C9.50692 70.287 10.5301 73.5763 10.5301 73.5763L13.5679 78.7556C13.5679 78.7556 10.2941 82.2021 8.70502 81.2684C7.11596 80.3347 3.76592 78.1078 2.19658 75.8241C0.627238 73.5404 1.52931 70.9179 3.62193 69.4785C5.23756 68.3672 7.76691 68.167 8.63692 69.227Z" fill="#F6D3C3"/>
<path d="M54.9995 60.8621C53.9995 59.7122 18.4995 58.5624 16.4995 59.1373C14.4995 59.7122 16.4995 65.4615 16.4995 65.4615C12.4654 67.8498 10.6779 69.2237 8.99951 71.7856L10.4995 80.9844C10.4995 80.9844 18.4995 76.9599 20.4995 77.5348C22.4995 78.1098 48.3236 79.2884 50.4995 77.5348C52.6754 75.7813 58.4995 80.4844 58.4995 80.4844L60.4995 71.4844C60.4995 71.4844 53.4995 67.1862 53.4995 65.4615C53.4995 63.7367 55.9995 62.0119 54.9995 60.8621Z" fill="#FF8C8C"/>
<ellipse cx="34.9995" cy="23.9844" rx="18" ry="17" fill="#F6D3C3"/>
<path d="M31.4989 26.9847C33.9993 28.4844 36.9995 28.4844 39.2619 26.736C41.5243 24.9876 39.7674 31.7122 35.5548 31.9416C31.3422 32.1709 28.9986 25.4849 31.4989 26.9847Z" fill="#7D3937"/>
<path d="M41.5218 18.6806C39.7455 18.2369 38.2613 20.7251 39.3222 22.3005C40.0458 19.9589 41.8409 19.232 42.7689 21.763C43.5537 20.7023 43.0243 19.0565 41.5229 18.6808L41.5218 18.6806Z" fill="#7D3937"/>
<path d="M29.6117 18.6806C27.8353 18.2369 26.3511 20.7251 27.4121 22.3005C28.1356 19.9589 29.9308 19.232 30.8588 21.763C31.6436 20.7023 31.1142 19.0565 29.6128 18.6808L29.6117 18.6806Z" fill="#7D3937"/>
<path d="M44.8192 28.4413C46.4247 28.3379 47.6421 26.8621 47.5385 25.1448C47.435 23.4276 46.0496 22.1192 44.4441 22.2226C42.8387 22.3259 41.6211 23.8018 41.7247 25.5191C41.8283 27.2364 43.2136 28.5447 44.8192 28.4413Z" fill="#F1B0AB"/>
<path d="M26.4935 29.33C28.099 29.2266 29.3165 27.7508 29.2128 26.0335C29.1094 24.3162 27.7239 23.0079 26.1184 23.1113C24.513 23.2145 23.2954 24.6905 23.399 26.4078C23.5026 28.1251 24.8879 29.4334 26.4935 29.33Z" fill="#F1B0AB"/>
<path d="M34.9995 27.9844H33.9995C33.9995 27.9844 33.9757 28.9844 34.4756 28.9844C34.9755 28.9844 34.9995 27.9844 34.9995 27.9844Z" fill="white"/>
<path d="M35.9995 27.9844H34.9997C34.9997 27.9844 34.9757 28.9844 35.4756 28.9844C35.9755 28.9844 35.9995 27.9844 35.9995 27.9844Z" fill="white"/>
<path d="M51.5 19.5C51.0297 14.3357 49.2886 13.6585 44.3769 12.6826C42.9546 13.1458 42.2651 11.094 42.9994 11.4844C38.7927 15.2559 33.8953 14.1283 33.2515 13.5328C32.1421 13.8041 33.4994 14.9844 32.4994 16.4844C32.2195 17.5563 32.4994 14.4844 28.8258 14.9844L22.9994 13.5328C22.6742 15.2763 19.5 16.4844 19.5 18.5C18.0346 21.8435 19.3981 20.9063 16.8773 23.5C15.6617 19.4539 14.5 17.5 14.5 16.5C14 9 14.7742 14.3268 16.8773 9.59925C19.204 4.35226 23.704 3.92548 28.8258 1.9438L27.8991 0.984375C40.5589 4.12066 46.452 -0.0312963 53.749 8.53394L52.307 9.17247C53.5 17 53.749 18.3909 51.5 19.5Z" fill="#3F3F3F"/>
<path d="M35.5706 22.9844C36.1357 23.6927 35.868 24.3039 35.5996 24.7087" stroke="#D99288" stroke-width="0.5" stroke-linecap="round"/>
</svg>
