<svg width="1080" height="1080" viewBox="0 0 1080 1080" fill="none" xmlns="http://www.w3.org/2000/svg">
<path fill-rule="evenodd" clip-rule="evenodd" d="M741.441 572.471C865.456 625.854 1059.82 739.415 1005.33 832.287C950.834 925.159 683.525 684.44 683.525 684.44C683.525 684.44 812.044 990.011 726.766 1035.98C641.487 1081.95 564.256 718.72 564.256 718.72C564.256 718.72 468.139 1042.62 361.333 1030.26C254.528 1017.91 412.179 693.477 412.179 693.477C412.179 693.477 147.347 901.077 64.3168 819.224C-18.7131 737.368 345.233 533.906 345.233 533.906C345.233 533.906 91.1905 418.9 122.073 303.245C152.955 187.593 420.59 374.713 420.59 374.713C420.59 374.713 315.754 69.044 448.221 40.5312C580.688 12.0154 549.07 391.231 549.07 391.231C549.07 391.231 649.864 79.1055 774.575 134.29C899.289 189.477 684.072 449.75 684.072 449.75C684.072 449.75 961.334 271.78 1022.93 379.649C1087.7 493.087 741.441 572.471 741.441 572.471Z" fill="#DD8051"/>
<path d="M685.691 525.122C680.702 497.944 666.958 477.154 641.718 464.665C634.493 461.089 626.717 459.247 618.942 458.517C613.284 457.991 611.537 455.467 610.102 450.718C606.441 438.588 601.322 427.092 592.9 417.367C578.952 401.302 560.316 395.811 540.064 394.256C534.441 393.826 528.783 393.826 523.113 395.142C495.84 401.422 474.033 428.552 472.633 455.239C472.238 462.787 472.191 462.895 465.133 464.522C455.659 466.723 446.771 470.359 438.338 475.12C429.462 480.109 420.562 485.527 414.461 493.638C399.018 514.201 390.154 536.977 393.827 563.401C397.02 586.404 408.971 603.773 427.763 616.668C438.661 624.157 450.719 629.3 463.805 631.609C468.59 632.458 471.246 634.348 471.628 639.576C471.844 642.411 473.518 645.162 474.607 647.913C486.557 678.142 521.75 693.082 552.6 684.027C575.029 677.448 590.173 662.029 597.613 640.27C600.867 630.772 605.52 625.042 614.971 622.649C621.705 620.951 627.256 615.903 634.206 615.029C647.938 613.307 657.939 605.244 666.551 595.627C680.667 579.897 686.66 560.793 687.066 539.835C687.066 537.85 687.222 535.864 687.018 533.902C686.719 530.96 686.229 528.029 685.691 525.122Z" fill="#E3D174"/>
<path d="M542.398 556.699C545.568 556.043 548.653 556.613 551.662 557.903C553.608 558.73 555.425 559.784 557.166 561.009C558.37 561.858 559.553 562.728 560.595 563.76C563.121 566.275 565.142 569.113 566.077 572.553C567.41 577.465 567.109 582.195 565.153 586.742C563.39 590.847 560.574 594.083 557.005 596.705C555.436 597.845 553.759 598.834 551.921 599.533C548.277 600.908 544.525 600.887 540.699 599.93C537.743 599.188 535.035 597.92 533.197 596.34C529.015 593.116 526.393 589.601 524.92 585.312C523.867 582.259 523.49 579.142 523.985 576.003C524.296 573.94 524.995 572.005 525.984 570.2C527.091 568.157 528.392 566.222 529.832 564.406C533.057 560.375 537.238 557.763 542.398 556.699ZM499.286 522.663C502.447 522.008 505.532 522.578 508.541 523.868C510.487 524.695 512.303 525.749 514.044 526.974C515.248 527.823 516.43 528.694 517.473 529.726C519.999 532.241 522.02 535.078 522.955 538.518C524.299 543.43 523.987 548.16 522.031 552.706C520.268 556.812 517.452 560.048 513.883 562.67C512.314 563.81 510.637 564.799 508.799 565.497C505.155 566.873 501.404 566.851 497.577 565.895C494.622 565.153 491.913 563.885 490.075 562.305C485.893 559.08 483.271 555.565 481.798 551.277C480.745 548.224 480.368 545.107 480.863 541.968C481.174 539.905 481.873 537.97 482.862 536.164C483.969 534.122 485.27 532.187 486.721 530.37C489.935 526.34 494.116 523.728 499.286 522.663ZM578.635 515.062C581.795 514.406 584.88 514.986 587.89 516.276C589.836 517.103 591.653 518.146 593.394 519.371C594.598 520.221 595.78 521.092 596.823 522.123C599.349 524.639 601.369 527.477 602.304 530.927C603.648 535.839 603.336 540.558 601.38 545.116C599.617 549.211 596.801 552.446 593.233 555.069C591.663 556.219 589.986 557.197 588.148 557.896C584.504 559.282 580.753 559.25 576.926 558.293C573.97 557.562 571.261 556.284 569.423 554.703C565.242 551.49 562.619 547.975 561.147 543.686C560.093 540.622 559.718 537.505 560.212 534.367C560.524 532.303 561.222 530.378 562.211 528.562C563.318 526.52 564.619 524.596 566.07 522.78C569.284 518.749 573.465 516.137 578.635 515.062ZM537.316 481.892C540.487 481.236 543.572 481.817 546.581 483.096C548.527 483.934 550.344 484.976 552.085 486.201C553.289 487.051 554.471 487.922 555.503 488.953C558.04 491.469 560.06 494.307 560.995 497.757C562.328 502.659 562.017 507.388 560.072 511.946C558.309 516.041 555.492 519.276 551.923 521.899C550.354 523.049 548.677 524.027 546.828 524.726C543.195 526.102 539.444 526.08 535.618 525.123C532.662 524.382 529.953 523.114 528.115 521.534C523.933 518.32 521.311 514.794 519.838 510.505C518.785 507.453 518.409 504.335 518.893 501.197C519.215 499.133 519.914 497.208 520.892 495.392C522.01 493.35 523.299 491.415 524.75 489.599C527.975 485.568 532.156 482.956 537.316 481.892Z" fill="#4D4233"/>
</svg>
