<?xml version="1.0" encoding="UTF-8"?>
<svg id="Layer_1" xmlns="http://www.w3.org/2000/svg" xmlns:xlink="http://www.w3.org/1999/xlink" version="1.1" viewBox="0 0 1920 1864">
  <!-- Generator: Adobe Illustrator 29.7.1, SVG Export Plug-In . SVG Version: 2.1.1 Build 8)  -->
  <defs>
    <style>
      .st0 {
        fill: none;
      }

      .st1 {
        fill: url(#linear-gradient3);
      }

      .st2 {
        fill: #cdf3ff;
      }

      .st3 {
        fill: #cff2fb;
      }

      .st4 {
        fill: #139146;
      }

      .st5 {
        fill: #9cc240;
      }

      .st6 {
        fill: url(#linear-gradient4);
      }

      .st6, .st7, .st8, .st9, .st10 {
        stroke: #000;
        stroke-opacity: .2;
      }

      .st7 {
        fill: url(#linear-gradient1);
      }

      .st8 {
        fill: url(#linear-gradient2);
      }

      .st11 {
        fill: #bbd05d;
      }

      .st9 {
        fill: url(#linear-gradient);
      }

      .st12 {
        fill: #fff;
      }

      .st13 {
        fill: #b9e6f4;
      }

      .st10 {
        fill: #2e3d3b;
      }

      .st14 {
        fill: #a5cd69;
      }

      .st15 {
        fill: #84c98f;
      }

      .st16 {
        fill: #eaf5ff;
      }

      .st17 {
        clip-path: url(#clippath);
      }
    </style>
    <clipPath id="clippath">
      <rect className="st0" width="1920" height="1864"/>
    </clipPath>
    <linearGradient id="linear-gradient" x1="547.46" y1="361" x2="547.46" y2="203" gradientTransform="translate(0 1864) scale(1 -1)" gradientUnits="userSpaceOnUse">
      <stop offset="0" stop-color="#339846"/>
      <stop offset="1" stop-color="#42b11d"/>
    </linearGradient>
    <linearGradient id="linear-gradient1" x1="1389.5" y1="410" x2="1389.5" y2="197" gradientTransform="translate(0 1864) scale(1 -1)" gradientUnits="userSpaceOnUse">
      <stop offset="0" stop-color="#84a533"/>
      <stop offset="1" stop-color="#83a431"/>
    </linearGradient>
    <linearGradient id="linear-gradient2" x1="1635.52" y1="494" x2="1635.52" y2="252" gradientTransform="translate(0 1864) scale(1 -1)" gradientUnits="userSpaceOnUse">
      <stop offset="0" stop-color="#6fb147"/>
      <stop offset="1" stop-color="#5ba032"/>
    </linearGradient>
    <linearGradient id="linear-gradient3" x1="888.61" y1="-320.95" x2="1021.61" y2="537.34" gradientTransform="translate(0 1864) scale(1 -1)" gradientUnits="userSpaceOnUse">
      <stop offset=".22" stop-color="#6fad70"/>
      <stop offset=".86" stop-color="#9dc457"/>
    </linearGradient>
    <linearGradient id="linear-gradient4" x1="94.75" y1="507" x2="94.75" y2="265" gradientTransform="translate(0 1864) scale(1 -1)" gradientUnits="userSpaceOnUse">
      <stop offset="0" stop-color="#339846"/>
      <stop offset="1" stop-color="#42b11d"/>
    </linearGradient>
  </defs>
  <g className="st17">
    <g>
      <rect className="st3" width="1920" height="1864"/>
      <path className="st12" d="M1913.92,1797.65c.35,9.98,5.93,25.23,5.93,25.23,0,0,9.24-11.93,10.42-20.45,1.18-8.53-1.48-20.04-3.85-19.52-2.37.51-2.02,10.9-4,3.83-1.98-7.06-8.84.94-8.5,10.91h0Z"/>
      <path className="st12" d="M1934.62,1811.83c-5.79.29-14.8,9.46-14.8,9.46,0,0,6.63,16.29,11.53,18.59,4.9,2.31,11.65-1.94,11.43-6.05-.23-4.1-6.26-3.82-2.1-7.02,4.15-3.19-.28-15.28-6.06-14.98Z"/>
      <path className="st12" d="M1925.99,1848.1c-.2-9.99-5.54-25.49-5.54-25.49,0,0-9.42,11.5-10.73,19.97-1.32,8.47,1.17,20.1,3.55,19.69,2.38-.4,2.19-10.8,4.06-3.65,1.86,7.16,8.85-.53,8.66-10.52Z"/>
      <path className="st12" d="M1905.19,1831.81c5.78.5,15.17-7.42,15.17-7.42,0,0-5.86-17.14-10.64-20.1-4.79-2.96-11.71.36-11.67,4.48.04,4.13,6.06,4.66,1.78,7.28-4.29,2.62-.43,15.27,5.36,15.76Z"/>
      <path className="st4" d="M1919.45,1830.3c2.43,0,4.4-3.39,4.4-7.58s-1.97-7.59-4.4-7.59-4.4,3.4-4.4,7.59,1.97,7.58,4.4,7.58Z"/>
      <path className="st16" d="M2139,439.01s-213.17,48.27-219.04,109.37c-33.11,2.37-60.39,17.11-70.24,36.87-18.14-15.7-46.12-25.78-77.59-25.78-54.68,0-99.11,30.42-99.11,67.92,0,1.69.33,3.33.5,4.99-2.04-.14-4.09-.28-6.17-.28-38.79,0-70.24,24.51-70.24,54.61,0,5.69,1.08,11.2,3.17,16.36-71.91,4.45-128.94,61.34-131.32,131.82-5.05,5.04-9.71,10.33-13.84,15.94-14.27-9.85-33.6-15.94-54.9-15.94-39.79,0-72.64,21.21-78.42,48.79-82.38,2.64-147.16,28.05-147.16,59.05,0,3.46.95,6.82,2.5,10.12-60.67,6.74-111.57,23.72-141.82,46.3-23.36-20.33-69.68-34.24-123.14-34.24-76.93,0-139.32,28.79-139.32,64.18,0,3.08.59,6.04,1.5,9.01-3.48.16-6.92.27-10.35.55-18.22-61.51-72.74-106.18-137.32-106.18-23.82,0-46.28,6.01-66.07,16.77-24.99-15.03-60.42-24.4-99.78-24.4-4.39,0-8.73.19-13.02.41-12.31-45.02-66.15-78.87-130.81-78.87-13.29,0-26.1,1.49-38.21,4.16-14.58-19.64-45.49-33.27-81.26-33.27-14.56,0-28.2,2.25-40.38,6.24-7.31-66.49-56.84-123.31-126.97-153.31,11.46-12.52,18.19-27.56,18.19-43.8,0-43.31-63.39-78.45-63.39-78.45l.42,837.78,1073.77,2.63,1073.77,2.63,6.03-952h.01Z"/>
      <path className="st12" d="M1919.96,706.01s-192.16,50.77-197.04,113.47c-29.89,2.63-54.42,17.91-63.18,38.23-16.48-15.99-41.82-26.17-70.23-25.98-49.37.33-89.29,31.79-89.03,70.25.01,1.73.31,3.42.48,5.11-1.84-.13-3.69-.26-5.57-.25-35.02.23-63.27,25.55-63.06,56.43.04,5.84,1.05,11.48,2.97,16.76-64.89,4.99-116.01,63.67-117.68,135.97-4.53,5.2-8.69,10.65-12.39,16.43-12.95-10.02-30.45-16.15-49.68-16.02-35.93.23-65.45,22.18-70.48,50.5-74.37,3.2-132.69,29.65-132.48,61.44.02,3.55.91,6.99,2.33,10.36-54.73,7.27-100.59,24.99-127.75,48.32-21.22-20.71-63.14-34.69-111.42-34.38-69.47.46-125.6,30.36-125.36,66.65.02,3.16.57,6.2,1.42,9.23-3.14.19-6.25.32-9.34.63-16.87-62.97-66.4-108.46-124.71-108.07-21.51.14-41.75,6.44-59.55,17.59-22.67-15.26-54.73-24.66-90.26-24.43-3.96.03-7.88.25-11.75.51-11.42-46.1-60.26-80.5-118.65-80.11-12,.08-23.55,1.68-34.47,4.49-13.3-20.06-41.3-33.85-73.6-33.63-13.15.08-25.45,2.47-36.42,6.63-7.05-68.14-52.16-126.12-115.69-156.47,10.26-12.9,16.24-28.37,16.13-45.03-.29-44.42-57.77-80.08-57.77-80.08l6.05,859.2,969.58-3.69,969.58-3.69-.99-976.38h.01Z"/>
      <path className="st13" d="M1436.06,1295.71c-14.9-.15-26.18,4.21-37.88,10.18-14.4,7.35-29.43,17.16-46.96,19.61-17.52,2.45-37.56-2.45-52.58,0-15.03,2.45-25.04,12.25-43.2,26.47-18.16,14.21-44.45,32.85-76.37,50-31.93,17.16-69.48,32.84-112.68,42.16-43.19,9.32-92.02,12.25-142.1,10.3-50.08-1.96-101.41-8.83-175.28-30.4-73.87-21.57-266.67-138.03-350.31-138.03s-255.82,96.85-257.7,96.85l341.34,494.15h1475.66v-427.61c-47.93-8.73-95.14-12.66-147.99-22.41-53.14-9.81-111.98-25.5-160.81-44.13-48.83-18.62-87.64-40.19-120.81-56.37-33.17-16.18-60.72-26.96-81.38-29.91-3.88-.55-7.51-.83-10.95-.86h0Z"/>
      <path className="st2" d="M-124,1391.01v318.06c17.99-.95,35.88-1.96,53.18-2.86,92.07-4.78,168.27-5.57,252.41-7.17,84.14-1.59,176.2-3.98,291.3-8.36,115.09-4.38,253.2-10.75,410.75-17.52,157.56-6.77,334.56-13.93,394.49-21.89,59.92-7.96,2.77-16.72-73.82-31.84-76.59-15.13-172.64-36.63-248.04-56.53s-130.17-38.21-184.54-49.76c-54.37-11.54-108.34-16.32-177-19.11-68.66-2.79-152-3.58-232.56-9.95-80.56-6.37-158.35-18.31-226.21-33.44-67.86-15.13-125.81-33.44-187.72-46.58-24.16-5.13-48.87-9.44-72.23-13.06h-.01Z"/>
      <path className="st15" d="M811.91,1573.02c-39.08-.25-77.02,3.56-114.58,11.42-54.64,11.43-108.48,31.45-167.08,37.17-58.6,5.72-121.95-2.86-181.34-13.58-59.39-10.72-114.82-23.59-163.12-29.31-48.3-5.72-89.48-4.29-135.41,6.43-45.93,10.72-96.61,30.73-197.96,53.6-101.36,22.87-253.41,48.6-336.55,65.04-11.56,2.29-21.69,4.39-30.87,6.39v38.27h1866.63v-117.87c-9.92-.94-20.03-1.75-30.32-2.55-83.14-6.43-178.17-12.15-256.56-22.16s-140.16-24.3-198.75-30.02c-18.31-1.79-36.31-2.74-54.08-2.85v.02Z"/>
      <path className="st11" d="M1743,1678.9l-782,105.1s113.48-136.57,380.33-161.3c266.84-24.73,401.67,56.2,401.67,56.2Z"/>
      <path className="st14" d="M1928,1642.9l-782,105.1s113.48-136.57,380.33-161.3c266.84-24.73,401.67,56.2,401.67,56.2Z"/>
      <path className="st9" d="M598.59,1648.04c-6.83,14.06-49.26,12.61-50.24,2.91-.98-9.69-19.02,0-19.02,0,0,0-12.68,18.91-27.31,4.85-14.63-14.06-17.56-7.76-26.83-47.51-9.27-39.76-8.78-24.73,23.9-78.54,32.68-53.82,104.86-12.12,104.86,1.94s11.22-3.88,16.1,31.99c4.88,35.88,7.31,29.03,1.45,35.82s3.24,20.99-1.45,23.5c-4.7,2.51-14.63,10.98-21.46,25.04Z"/>
      <path className="st7" d="M1458.47,1649.53c-9.21,18.96-66.46,17-67.77,3.92-1.32-13.07-25.67,0-25.67,0,0,0-17.1,25.49-36.84,6.54-19.74-18.95-23.69-10.46-36.19-64.05-12.5-53.6-11.85-33.33,32.24-105.88,44.08-72.55,141.47-16.34,141.47,2.61s15.13-5.23,21.71,43.14c6.58,48.36,9.86,39.13,1.96,48.28s6.62,0-1.96,31.68c-8.58,31.68-19.74,14.81-28.95,33.76Z"/>
      <path className="st5" d="M2122,1633.18l-696,93.5s101-121.5,338.5-143.5,357.5,50,357.5,50Z"/>
      <path className="st10" d="M555.28,1704.7l-10.66,3.3-1.85-46.18c-8.96-6.71-12.08-13.42-15.76-28.28,5.64,13.17,9.04,19.81,17.62,23.56.51-8.98,2.39-17.41,5.1-31.1-.85,12.67-1.06,19.49,1.39,28.75,0,0,21.79-20.27,20.86-17.44-.93,2.83-16.23,16.49-20.86,24.51-4.64,8.01,2.54,26.13,4.17,42.88Z"/>
      <path className="st10" d="M1397.71,1711.57l-14.22,4.43-2.47-61.95c-11.95-9-16.1-18-21.02-37.94,7.52,17.67,12.05,26.58,23.49,31.61.68-12.05,3.18-23.36,6.8-41.72-1.13,16.99-1.41,26.15,1.85,38.56,0,0,29.06-27.18,27.82-23.39-1.23,3.8-21.63,22.13-27.82,32.88-6.18,10.74,3.4,35.06,5.57,57.52Z"/>
      <path className="st8" d="M1708.71,1592.15c-10.45,21.54-59.72,26.74-61.21,11.89-1.49-14.86-44.74-7.43-44.74-7.43,0,0-19.4,28.96-41.79,7.43-22.38-21.54-26.86-11.89-41.03-72.78-14.18-60.89-13.43-37.87,36.56-120.29,49.99-82.43,160.42-18.57,160.42,2.97s27.12,5.01,35.58,34.06,8.95,53.6,0,64-7.28-2.33-12.5,40-20.84,18.62-31.29,40.15Z"/>
      <path className="st10" d="M1642.36,1669.97l-16.35,5.03-2.84-70.4c-13.74-10.22-18.51-20.46-24.17-43.11,8.65,20.08,13.86,30.2,27.01,35.92.79-13.69,3.66-26.55,7.82-47.41-1.3,19.31-1.62,29.71,2.14,43.82,0,0,33.41-30.89,31.99-26.58-1.43,4.31-24.89,25.15-31.99,37.36-7.11,12.21,3.9,39.84,6.39,65.37Z"/>
      <path className="st1" d="M838.67,1715.6c-312.67-19.11-562.17-131.1-838.67-131.1v279.5h1920v-212.5c-82.17,9.27-768.67,83.2-1081.33,64.1Z"/>
      <path className="st6" d="M24.8,1579.15c28.21,35.84,75.36,19.31,76.85,4.46,1.49-14.85,29.1,0,29.1,0,0,0,19.4,28.96,41.78,7.43,22.39-21.54,26.86-11.89,41.04-72.78,14.18-60.89,13.43-37.87-36.56-120.29-49.99-82.43-160.42-18.57-160.42,2.97s-17.16-5.94-24.62,49.01c-7.46,54.95-30.91,50.65-21.96,61.04,8.95,10.4,9.78-21.32,15,21,5.22,42.33,11.58,11.33,39.79,47.16Z"/>
      <path className="st10" d="M119.36,1648.98l-16.35,5.03-2.84-70.41c-13.74-10.22-18.51-20.45-24.17-43.1,8.65,20.07,13.86,30.19,27.01,35.92.79-13.7,3.66-26.55,7.82-47.41-1.3,19.31-1.62,29.71,2.13,43.82,0,0,33.41-30.89,31.99-26.58-1.42,4.31-24.88,25.14-31.99,37.35-7.11,12.22,3.9,39.85,6.4,65.38Z"/>
    </g>
  </g>
</svg>