<svg width="864" height="107" viewBox="0 0 864 107" fill="none" xmlns="http://www.w3.org/2000/svg">
<path d="M359.127 91.6653C354.889 91.6653 350.366 89.0973 350.366 81.8752V12.696C350.366 5.12929 354.997 2.43164 359.331 2.43164C362.163 2.43164 364.577 3.58036 366.13 5.65548C367.45 7.42303 368.088 9.72418 368.088 12.6923V71.7257H388.187C392.425 71.7257 396.948 74.3603 396.948 81.7492C396.948 89.1381 392.425 91.6579 388.187 91.6579H359.127V91.6653Z" fill="white"/>
<path d="M388.191 87.2372H359.127C356.242 87.2372 354.796 85.4511 354.796 81.8789V12.6997C354.796 8.77185 356.342 6.86719 359.331 6.86719C362.319 6.86719 363.661 8.77185 363.661 12.6997V76.1649H388.191C391.075 76.1649 392.521 78.0696 392.521 81.7603C392.521 85.4511 391.075 87.2409 388.191 87.2409V87.2372Z" fill="white"/>
<path d="M427.929 92.9133C425.889 92.9133 420.969 92.1573 419.383 85.1501L404.278 18.3574C403.644 15.5485 403.84 13.1177 404.864 11.1426C405.661 9.60112 407.351 7.5964 410.862 6.80341L439.808 0.26679C440.583 0.0889227 441.35 0 442.08 0C444.116 0 449.017 0.770753 450.627 7.89285C451.264 10.7054 451.105 13.1473 450.152 15.1409C449.377 16.7603 447.716 18.865 444.194 19.658L424.002 24.2196L427.194 38.3415L441.413 35.1287C442.221 34.9472 443.007 34.8545 443.756 34.8545C445.799 34.8545 450.723 35.6216 452.332 42.7326C452.966 45.5414 452.77 47.9722 451.746 49.9473C450.949 51.4888 449.258 53.4935 445.747 54.2865L431.529 57.4992L434.669 71.3914L454.861 66.8298C455.613 66.6631 456.362 66.5741 457.081 66.5741C459.128 66.5741 464.07 67.3523 465.705 74.5745C467.3 81.641 463.407 85.165 459.221 86.1099L430.275 92.6465C429.467 92.828 428.681 92.9207 427.925 92.9207H427.921L427.929 92.9133Z" fill="white"/>
<path d="M458.249 81.7772L429.304 88.3138C426.316 88.9882 424.488 87.6023 423.713 84.1673L408.608 17.3745C407.807 13.8283 408.86 11.7902 411.849 11.1121L440.794 4.57546C443.679 3.92328 445.51 5.31657 446.311 8.85909C447.112 12.4016 446.111 14.6731 443.226 15.3253L418.708 20.8614L423.854 43.621L442.396 39.4337C445.384 38.7593 447.212 40.1452 448.016 43.6951C448.817 47.2413 447.764 49.2794 444.776 49.9575L426.234 54.1448L431.332 76.6783L455.851 71.1422C458.735 70.49 460.593 71.9945 461.393 75.5407C462.194 79.0869 461.141 81.125 458.257 81.7772H458.253H458.249Z" fill="white"/>
<path d="M528.271 92.2612C526.499 92.2612 522.154 91.6053 520.066 85.5171L513.471 65.9962H497.113L490.428 85.5171C488.415 91.3867 484.488 92.2612 482.327 92.2612C477.203 92.2612 473.039 88.0146 473.039 82.7898C473.039 81.6485 473.124 80.1551 473.747 78.6396L496.186 11.3873C497.676 6.9814 501.146 4.25781 505.247 4.25781C509.348 4.25781 512.9 7.02958 514.409 11.4911L536.802 78.8174C537.17 79.9106 537.555 81.2594 537.555 82.7935C537.555 87.9257 533.299 92.2649 528.268 92.2649L528.271 92.2612ZM511.32 46.5086L505.243 28.7367L499.252 46.5086H511.32Z" fill="white"/>
<path d="M486.238 84.0787C485.393 86.5429 484.125 87.8287 482.331 87.8287C479.376 87.8287 477.474 85.2497 477.474 82.7892C477.474 81.7368 477.581 80.9105 477.896 80.2101L500.39 12.7874C501.343 9.97489 503.241 8.68164 505.247 8.68164C507.361 8.68164 509.259 10.0897 510.212 12.9023L532.602 80.2064C532.917 81.1439 533.129 81.9666 533.129 82.7855C533.129 85.2497 531.123 87.8251 528.272 87.8251C526.477 87.8251 525.102 86.5355 524.256 84.075L516.652 61.56H493.947L486.235 84.075H486.238V84.0787ZM497.539 50.9362H513.063L505.251 28.0728L497.539 50.9362Z" fill="white"/>
<path d="M594.738 96.8897C594.356 96.8897 593.97 96.8638 593.596 96.8082C590.941 96.4377 588.743 94.8628 587.067 92.1355C587.004 92.028 586.945 91.9243 586.889 91.8131L570.505 59.3412L565.789 58.678L562.452 82.3936C561.685 87.8407 558.411 91.0979 553.695 91.0979C553.209 91.0979 552.697 91.0609 552.182 90.9868C548.589 90.4828 546.736 88.5596 545.812 87.0366C544.659 85.132 544.277 82.7308 544.678 79.8923L554.188 12.3139C554.544 9.79041 555.363 7.84869 556.687 6.37387C557.777 5.16586 559.734 3.7207 562.882 3.7207C563.383 3.7207 563.905 3.75775 564.439 3.83186L591.32 7.61154C605.204 9.56437 613.031 21.5519 610.792 37.4377C609.835 44.2485 607.099 50.0996 602.891 54.3573C599.728 57.5589 595.895 59.7007 591.616 60.6864L602.902 82.2713C602.961 82.3787 603.01 82.4899 603.058 82.5974C603.844 84.4501 604.107 86.4697 603.833 88.441C603.154 93.2509 599.246 96.8823 594.738 96.8823V96.8897ZM586.225 41.5916C586.548 41.6361 586.863 41.6583 587.171 41.6583C590.797 41.6583 592.562 38.3085 592.999 35.1736C593.31 32.9762 592.981 30.9751 592.072 29.5337C591.279 28.2664 590.096 27.5179 588.557 27.303L570.564 24.772L568.547 39.1052L586.225 41.5916Z" fill="white"/>
<path d="M584.608 56.8466L598.975 84.3271C599.454 85.461 599.606 86.6653 599.443 87.8252C599.035 90.7266 596.614 92.7536 594.207 92.4201C592.847 92.2311 591.797 91.3714 590.841 89.8151L573.415 55.2755L562.018 53.671L558.062 81.7703C557.558 85.3721 555.83 87.0248 552.797 86.5949C549.764 86.1688 548.559 84.1048 549.071 80.503L558.581 12.9246C559.085 9.32284 560.798 7.79243 563.827 8.21487L590.707 11.9945C602.839 13.6991 608.174 24.2785 606.409 36.8218C604.693 49.0131 596.451 57.5655 584.608 56.8466ZM589.172 22.9148L566.793 19.7688L563.542 42.8767L585.609 45.9819C591.886 46.8639 596.454 42.4172 597.389 35.799C598.319 29.1809 595.031 23.7486 589.176 22.9222V22.9148H589.172Z" fill="white"/>
<path d="M664.982 92.379C661.393 92.379 657.886 90.0964 656.043 86.5687L635.863 47.8567V82.1443C635.863 89.4628 631.284 92.0678 626.998 92.0678C622.712 92.0678 618.133 89.4628 618.133 82.1443V14.9328C618.133 8.42584 622.059 3.88281 627.68 3.88281C633.301 3.88281 635.744 8.34802 636.508 9.81542L656.688 48.4496V14.2435C656.688 11.3013 657.356 9.02613 658.735 7.28081C659.843 5.88011 661.92 4.2052 665.549 4.2052C669.179 4.2052 671.259 5.8764 672.364 7.28081C673.743 9.02613 674.411 11.3013 674.411 14.2435V81.3402C674.411 85.3941 673.02 87.8768 671.849 89.2516C670.125 91.2748 667.681 92.3902 664.971 92.3902H664.975L664.982 92.379Z" fill="white"/>
<path d="M659.973 84.5194L631.428 29.7696V82.1478C631.428 85.8126 629.982 87.6395 626.997 87.6395C624.013 87.6395 622.567 85.8089 622.567 82.1478V14.9363C622.567 10.56 624.806 8.31445 627.68 8.31445C630.13 8.31445 631.406 9.6151 632.577 11.8607L661.122 66.4955V14.2322C661.122 10.46 662.568 8.6257 665.553 8.6257C668.538 8.6257 669.983 10.4563 669.983 14.2322V81.3289C669.983 85.9386 667.64 87.9507 664.978 87.9507C663.273 87.9507 661.145 86.7686 659.969 84.5231L659.973 84.5194Z" fill="white"/>
<path d="M690.245 91.7458C685.959 91.7458 681.38 89.1778 681.38 81.9557C681.38 77.987 682.904 73.7998 686.945 72.3435V22.9965C682.904 21.5476 681.38 17.39 681.38 13.4472C681.38 8.68559 683.709 3.60156 690.245 3.60156H701.479C705.717 3.60156 710.24 6.18804 710.24 13.4472C710.24 18.9982 707.719 21.8811 704.675 22.9891V72.362C707.716 73.4737 710.24 76.3751 710.24 81.9594C710.24 89.1741 705.717 91.7495 701.479 91.7495H690.245V91.7458Z" fill="white"/>
<path d="M700.245 19.1055V76.2452H701.48C704.365 76.2452 705.811 78.1499 705.811 81.9592C705.811 85.5277 704.365 87.3175 701.48 87.3175H690.246C687.258 87.3175 685.815 85.5314 685.815 81.9592C685.815 78.1499 687.261 76.2452 690.246 76.2452H691.381V19.1055H690.246C687.258 19.1055 685.815 17.2193 685.815 13.4508C685.815 9.68218 687.261 8.0332 690.246 8.0332H701.48C704.365 8.0332 705.811 9.80075 705.811 13.4508C705.811 17.1008 704.365 19.1055 701.48 19.1055H700.245Z" fill="white"/>
<path d="M737.091 106.443C734.882 106.443 729.594 105.598 728.315 97.7423L717.419 30.8236C716.558 25.558 718.572 19.4141 725.016 18.3655C725.568 18.2765 726.124 18.2284 726.651 18.2284C730.766 18.2284 733.191 20.8593 734.659 22.8381L760.542 57.7667L755.021 23.8645C754.539 20.9001 754.832 18.4989 755.911 16.5238C756.782 14.9304 758.592 12.8997 762.232 12.3069C762.815 12.2142 763.389 12.166 763.938 12.166C766.155 12.166 771.442 13.0257 772.736 20.9816L783.618 87.7855C784.271 91.7838 783.314 94.4592 782.391 95.997C781.026 98.2908 778.798 99.7915 776.125 100.229C775.687 100.299 775.235 100.337 774.779 100.337C771.594 100.337 768.458 98.6761 766.4 95.8895L740.506 60.8794L746.041 94.8594C746.831 99.6915 745.341 105.232 738.812 106.295C738.229 106.388 737.655 106.436 737.102 106.436L737.091 106.443Z" fill="white"/>
<path d="M769.952 93.2533L733.18 43.5357L741.651 95.573C742.263 99.3231 741.106 101.439 738.085 101.928C735.063 102.417 733.298 100.779 732.687 97.033L721.79 30.1142C721.085 25.7787 722.91 23.1959 725.724 22.7401C728.122 22.351 729.583 23.4368 731.092 25.4786L767.846 75.0774L759.389 23.1626C758.758 19.294 759.911 17.1818 762.933 16.6927C765.955 16.1998 767.72 17.8414 768.354 21.7063L779.235 88.5102C779.981 93.0829 778.012 95.447 775.406 95.8732C773.741 96.1437 771.461 95.3099 769.955 93.2719V93.257L769.952 93.2533Z" fill="white"/>
<path d="M825.718 91.2355C823.916 91.2355 822.081 91.0799 820.257 90.776C799.653 87.3299 787.348 65.4485 791.63 39.8838C795.434 17.1984 811.136 1.34961 829.818 1.34961C831.657 1.34961 833.526 1.50525 835.376 1.81652C842.395 2.99118 848.694 6.01864 853.117 10.3468C857.225 14.334 861.826 19.7033 860.807 25.7767C860.006 30.5755 856.028 34.1921 851.564 34.1921C851.111 34.1921 850.659 34.155 850.218 34.0809C847.819 33.677 845.817 32.2429 844.271 29.8158C844.241 29.7676 844.211 29.7195 844.182 29.6713C841.572 25.2024 837.171 22.149 832.117 21.3041C831.168 21.1448 830.215 21.0633 829.285 21.0633C819.534 21.0633 811.518 29.8158 809.338 42.8409C806.846 57.7002 812.693 69.3468 823.549 71.1625C824.498 71.3218 825.44 71.4034 826.363 71.4034C833.281 71.4034 839.366 66.7269 842.977 58.9082L821.491 55.3101C817.216 54.5912 813.071 51.2525 814.284 44.0229C814.606 42.0886 816.189 35.7743 822.915 35.7743C823.501 35.7743 824.112 35.8262 824.735 35.93L856.294 41.2104C862.82 42.3035 864.307 47.6952 863.524 52.3827C859.691 75.2571 844.148 91.2281 825.722 91.2281L825.714 91.2355H825.718Z" fill="white"/>
<path d="M855.568 45.5927C858.589 46.0967 859.757 48.0792 859.153 51.6625C855.508 73.403 839.951 89.5815 820.994 86.4095C802.041 83.2376 792.249 63.0534 796.009 40.6199C799.768 18.1864 816.004 3.06773 834.649 6.19152C840.381 7.14755 846.061 9.64511 850.017 13.5174C854.163 17.5379 857.036 21.4695 856.439 25.0565C855.957 27.9506 853.447 30.1405 850.944 29.7255C849.795 29.5365 848.853 28.7806 848.008 27.4503C844.927 22.181 839.517 18.0641 832.851 16.9487C819.103 14.6513 807.703 25.8162 804.97 42.1243C802.2 58.6623 808.967 73.2288 822.822 75.5485C835.009 77.5866 845.008 69.0378 849.002 55.4384L822.233 50.9621C819.211 50.4581 818.062 48.3608 818.666 44.7775C819.248 41.3091 820.998 39.8158 824.016 40.3234L855.575 45.6039H855.571L855.568 45.5927Z" fill="white"/>
<path d="M299.38 93.5902C284.664 93.5902 273.982 83.7074 273.982 70.0895C273.982 61.9521 277.586 54.9708 284.482 49.6237C285.502 48.8307 285.799 47.4226 285.183 46.2849C283.055 42.3496 281.946 38.3106 281.946 34.3753C281.946 29.0318 283.963 23.7774 287.482 19.9532C290.281 16.9109 295.346 13.2832 303.569 13.2832C314.762 13.2832 322.889 21.139 322.889 31.9667C322.889 39.4148 319.427 45.277 311.833 50.4018C310.528 51.2838 310.287 53.1106 311.318 54.3038C313.342 56.6383 315.326 58.9209 317.187 61.0553C318.544 62.608 321.076 62.0744 321.688 60.103C322.63 57.0718 323.397 53.5923 324.005 49.6274L324.146 48.7158C324.343 47.43 325.448 46.4813 326.749 46.4813H337.327C338.958 46.4813 340.197 47.945 339.922 49.5533L339.711 50.8094C338.002 60.8589 335.462 68.4924 331.832 74.3657C331.213 75.3662 331.354 76.6595 332.158 77.5229C333.742 79.22 335.343 80.9394 336.993 82.718C338.046 83.852 339.121 85.0118 340.237 86.2087L341.921 88.017C343.485 89.6993 342.291 92.4415 339.993 92.4415H326.182C325.485 92.4415 324.814 92.1635 324.321 91.6707L324.005 91.3557C323.093 90.4441 322.204 89.5326 321.284 88.5728C320.365 87.6131 318.989 87.4945 317.929 88.1986C312.486 91.8189 306.368 93.5902 299.38 93.5902ZM296.892 61.4555C295.835 60.2623 293.948 60.2512 292.928 61.474C291.1 63.664 290.203 66.069 290.203 68.7295C290.203 74.9327 294.626 79.2682 300.955 79.2682C303.091 79.2682 305.186 78.842 307.114 78.0453C308.786 77.3561 309.242 75.1995 308.026 73.858C304.863 70.3748 300.955 66.0467 296.888 61.4555H296.892ZM302.943 26.9864C297.993 26.9864 297.744 32.4484 297.744 33.5452C297.744 35.2535 298.082 36.8654 298.834 38.5626C299.52 40.1041 301.467 40.6265 302.813 39.6112C306.124 37.11 307.41 34.9682 307.41 32.3928C307.41 27.2458 303.691 26.9864 302.946 26.9864H302.943Z" fill="white"/>
<path d="M326.627 88.7375C324.636 86.7476 322.749 84.7577 320.027 81.8266C313.951 87.4813 307.14 89.8899 299.383 89.8899C285.658 89.8899 277.694 80.6742 277.694 70.0948C277.694 60.4603 283.455 53.8607 291.527 49.4622V49.1473C287.86 44.5375 285.658 39.409 285.658 34.3806C285.658 25.7948 291.838 16.9941 303.577 16.9941C312.379 16.9941 319.189 22.86 319.189 31.972C319.189 39.409 314.892 45.2712 303.68 50.8222V51.1371C309.653 58.048 316.36 65.8001 320.865 70.8248C324.113 65.9038 326.315 59.0967 327.676 50.1922H336.059C334.172 61.2941 331.135 70.0911 325.893 76.2683C329.663 80.248 333.334 84.2278 337.523 88.7301H326.627V88.7375ZM315.519 76.5869C311.329 71.9772 303.469 63.3914 295.609 54.3832C291.838 56.7918 286.492 61.2941 286.492 68.7312C286.492 76.7945 292.465 82.9753 300.952 82.9753C307.028 82.9753 312.163 80.2517 315.515 76.5869H315.519ZM294.037 33.5431C294.037 38.5716 296.343 42.4439 299.38 46.2162C306.506 42.1326 311.114 38.3604 311.114 32.3907C311.114 28.0959 308.704 23.2787 302.943 23.2787C297.181 23.2787 294.037 28.096 294.037 33.5431Z" fill="white"/>
<path d="M20.8498 92.4113C14.2503 92.4113 12.6153 86.16 12.2742 84.248L0.250391 17.1921C-0.272381 14.2758 0.0242287 11.7857 1.1328 9.79579C2.00409 8.22834 3.80228 6.21992 7.39124 5.57886C8.00671 5.46769 8.61474 5.41211 9.20055 5.41211C11.3584 5.41211 16.5231 6.25327 17.9171 14.0312L28.165 71.1859L48.542 67.5359C49.1574 67.4247 49.7692 67.3691 50.355 67.3691C57.0027 67.3691 58.6748 73.7909 59.0234 75.7585C59.5276 78.5747 59.231 80.9797 58.1447 82.9065C57.2882 84.4221 55.5345 86.3601 52.0271 86.9901L22.7148 92.2372C22.0771 92.352 21.4505 92.4113 20.8498 92.4113Z" fill="white"/>
<path d="M51.2445 82.6317L21.9285 87.8788C19.018 88.4013 17.2532 86.9302 16.634 83.4655L4.61027 16.4096C3.92807 12.6003 5.15527 10.4733 8.16956 9.93228C11.1838 9.39126 12.8671 10.9958 13.5493 14.8051L24.5794 76.3249L49.3203 71.8967C52.2308 71.3742 54.0178 72.9602 54.6592 76.5398C55.3007 80.1194 54.155 82.113 51.2482 82.6317H51.2445Z" fill="white"/>
<path d="M96.5228 94.9424C94.8803 94.9424 93.2008 94.809 91.5287 94.5533C81.1993 92.96 72.7237 86.6864 67.6628 76.8926C62.9912 67.8585 61.4489 56.2378 63.3101 44.1836C66.9398 20.7385 81.7628 4.98242 100.2 4.98242C101.884 4.98242 103.608 5.11582 105.324 5.38262C115.657 6.98342 124.14 13.131 129.216 22.6988C133.928 31.5847 135.5 43.0794 133.647 55.0595C131.915 66.2465 127.637 75.9625 121.278 83.155C114.456 90.87 105.895 94.9461 96.5228 94.9461V94.9424ZM99.741 24.7109C90.4757 24.7109 83.1346 33.4338 81.0473 46.9294C79.1008 59.5172 82.5266 73.05 94.5689 74.9102C95.4068 75.0399 96.2448 75.1066 97.0493 75.1066C106.366 75.1066 113.77 66.1649 115.909 52.3172C117.029 45.0803 116.276 38.3696 113.785 33.4264C111.342 28.5795 107.478 25.7151 102.299 24.9147C101.431 24.7813 100.571 24.7109 99.7373 24.7109H99.741Z" fill="white"/>
<path d="M104.645 9.75751C123.432 12.6589 132.727 32.0131 129.268 54.3799C125.79 76.8578 110.993 93.0845 92.2064 90.1793C73.42 87.2779 64.214 67.3457 67.6954 44.864C71.1583 22.5009 85.8664 6.85605 104.653 9.76121H104.649L104.645 9.75751ZM102.977 20.5333C89.1995 18.4026 79.1927 29.9083 76.6641 46.2499C74.1022 62.8212 80.1122 77.158 93.886 79.285C107.663 81.4157 117.726 69.5616 120.288 52.994C122.813 36.6525 116.751 22.6677 102.973 20.537H102.977V20.5333Z" fill="white"/>
<path d="M169.888 93.4972C165.721 93.4972 162.336 90.8366 160.83 86.3788L138.388 19.2303C137.762 17.7147 137.68 16.2214 137.68 15.0764C137.68 9.15484 142.504 5.48633 146.968 5.48633C149.129 5.48633 153.052 6.36455 155.069 12.2305L169.884 56.1044L184.696 12.2527C186.791 6.14592 191.136 5.49004 192.909 5.49004C198.466 5.49004 202.196 10.4481 202.196 15.0801C202.196 16.3363 201.94 17.6332 201.41 19.0302C201.41 19.0302 178.927 86.527 178.92 86.5493C177.407 90.8329 173.948 93.4935 169.884 93.4935H169.888V93.4972Z" fill="white"/>
<path d="M188.897 13.6739C189.743 11.2097 191.114 9.92383 192.909 9.92383C195.76 9.92383 197.766 12.6215 197.766 15.0857C197.766 15.9046 197.555 16.7273 197.239 17.5499L174.745 85.0875C173.796 87.7851 171.894 89.0747 169.888 89.0747C167.775 89.0747 165.981 87.7851 165.031 84.9689L142.537 17.6648C142.222 16.9607 142.115 16.1418 142.115 15.0857C142.115 12.6215 144.017 9.92383 146.972 9.92383C148.766 9.92383 150.034 11.2134 150.88 13.6739L169.888 69.9577L188.897 13.6739Z" fill="white"/>
<path d="M228.016 103.227C225.925 103.227 220.897 102.453 219.44 95.2748L205.774 28.1745C204.825 23.5203 206.123 18.0806 212.607 16.7614L241.69 10.8436C242.398 10.6991 243.099 10.625 243.77 10.625C245.853 10.625 250.855 11.4142 252.342 18.6994C253.821 25.9623 249.861 29.4678 245.657 30.3237L225.369 34.4517L228.257 48.6329L242.542 45.7278C243.277 45.5758 244 45.5017 244.689 45.5017C246.78 45.5017 251.811 46.2873 253.295 53.5613C254.244 58.2155 252.946 63.6553 246.461 64.9745L232.176 67.8796L235.016 81.8311L255.3 77.7031C255.99 77.5623 256.676 77.4918 257.328 77.4918C263.802 77.4918 265.585 83.7543 265.975 85.6774C267.42 92.7736 263.442 96.2161 259.249 97.0683L230.166 102.986C229.432 103.138 228.706 103.212 228.012 103.212V103.22L228.016 103.227Z" fill="white"/>
<path d="M258.367 92.7487L229.284 98.6665C226.285 99.2779 224.483 97.8476 223.778 94.4014L210.112 27.3011C209.385 23.74 210.483 21.7205 213.486 21.1091L242.568 15.1913C245.468 14.6021 247.266 16.0288 247.993 19.5935C248.719 23.1583 247.67 25.4038 244.771 25.993L220.145 31.0029L224.802 53.8663L243.429 50.0755C246.428 49.4641 248.23 50.8944 248.957 54.4554C249.683 58.0165 248.586 60.036 245.583 60.6474L226.956 64.4382L231.564 87.0718L256.19 82.0619C259.089 81.4727 260.91 83.0142 261.637 86.579C262.363 90.1437 261.266 92.1596 258.367 92.7487Z" fill="white"/>
</svg>
