<svg width="133" height="224" viewBox="0 0 133 224" fill="none" xmlns="http://www.w3.org/2000/svg">
<ellipse cx="76.2468" cy="42.5698" rx="30.6389" ry="31.2397" fill="#F6D3C3"/>
<path d="M106.886 40.7668C106.182 33.0421 94.7286 19.4734 87.3817 18.0136C85.2542 18.7063 90.135 22.2 91.2334 22.7839C84.941 28.4252 71.7036 20.1761 70.7407 19.2854C69.0812 19.6911 71.7743 22.591 75.5319 25.3374C75.1131 26.9407 66.6411 23.2491 66.2731 24.219L67.5069 26.1242C67.0204 28.732 48.2284 23.4704 51.6155 26.9492C51.6514 31.8185 49.3784 44.0963 45.6079 47.9759C43.7896 41.9239 43.8056 38.3637 45.0071 46.7744C39.2819 38.065 43.1027 20.473 46.2484 13.4016C49.7287 5.55323 56.4597 4.91486 64.1207 1.95071L62.7346 0.515625C81.6709 5.20681 90.4856 -1.00359 101.4 11.8081L99.2435 12.7632C105.1 24.7039 106.886 28.9002 106.886 40.7668Z" fill="#3F3F3F"/>
<path d="M87.887 33.1346C84.4713 32.1554 81.4372 36.4569 83.3999 39.3871C84.9468 35.2688 88.473 34.1544 90.1194 38.7802C91.7059 36.9643 90.7785 33.9642 87.889 33.1354L87.887 33.1346Z" fill="#7D3937"/>
<path d="M70.3868 53.8545C75.5113 55.9404 78.4183 56.1143 83.6663 54.3681C83.6663 54.3681 84.1148 57.5946 82.7739 60.491C81.7359 62.735 79.4003 64.8815 76.3643 64.5405C69.4113 63.7577 70.3888 53.8553 70.3888 53.8553L70.3868 53.8545Z" fill="#7B444C"/>
<path d="M71.3809 60.7473C75.7607 58.7144 78.2946 58.757 82.4397 61.1304C82.4397 61.1304 80.2752 65.0016 76.2906 64.5227C72.3074 64.0387 71.3809 60.7473 71.3809 60.7473Z" fill="#F27E7B"/>
<path d="M66.1367 33.2054C62.7215 32.2264 59.6875 36.5279 61.652 39.4532C63.197 35.3398 66.7227 34.2253 68.3715 38.8464C69.958 37.0304 69.0306 34.0302 66.1387 33.2062L66.1367 33.2054Z" fill="#7D3937"/>
<path d="M59.8461 44.1846C62.7547 44.1573 65.155 46.5259 65.2033 49.4763C65.254 52.4276 62.9329 54.843 60.0242 54.8703C57.1155 54.8975 54.7172 52.5241 54.6684 49.5735C54.6181 46.6224 56.9374 44.2118 59.8461 44.1846Z" fill="#F1B0AB"/>
<path d="M93.4889 44.1837C96.3976 44.1565 98.7964 46.5301 98.8447 49.4805C98.8955 52.4318 96.5762 54.8424 93.6675 54.8697C90.7588 54.8969 88.3586 52.5283 88.3098 49.5778C88.2591 46.6265 90.5802 44.2109 93.4889 44.1837Z" fill="#F1B0AB"/>
<path d="M75.712 43.1132C77.2172 44.9997 76.504 46.6278 75.7891 47.7058" stroke="#D99288" stroke-linecap="round"/>
<path d="M22.9886 93.6528C21.1285 91.219 20.8895 90.9546 18.9415 88.5891C18.2253 87.7114 17.4414 86.8621 16.9178 85.8618C16.3293 84.7288 16.3182 83.4195 16.2811 82.1735C16.2662 81.4008 16.3623 80.4584 15.9178 79.766C15.4632 79.0437 14.504 79.1201 14.0277 79.7864C13.5242 80.5009 13.489 81.5227 13.2273 82.3405C13.1841 82.4818 13.1004 82.6035 12.9731 82.6673C12.7697 82.7524 12.5444 82.5635 12.4335 82.4421C11.7432 81.6927 11.4044 81.2523 10.9949 80.8022C10.3379 80.0807 8.98332 78.1277 7.77235 78.5614C7.30368 78.7367 6.99232 79.4205 7.07866 79.8197C7.21598 80.4677 7.49071 81.0818 7.80943 81.6616C7.96523 81.9557 8.14358 82.2402 8.32198 82.5248C8.46457 82.751 8.75558 83.0803 8.64715 83.3801C8.55768 83.6247 8.232 83.5435 8.05393 83.4581C7.85204 83.3669 7.6762 83.2123 7.50874 83.0648C6.87938 82.4943 6.27675 81.8681 5.56899 81.3882C5.23118 81.1546 4.87845 80.9299 4.48666 80.8003C4.17525 80.7025 3.82232 80.6694 3.53991 80.8375C3.34729 80.9602 3.21614 81.1698 3.14032 81.3904C2.98458 81.8779 3.08302 82.4294 3.30693 82.8943C3.58758 83.4849 3.99365 83.9888 4.39973 84.4927C4.82311 85.0183 5.25358 85.5356 5.6627 86.0777C5.74977 86.1933 5.83808 86.3242 5.81094 86.4719C5.7838 86.6197 5.62093 86.7247 5.46622 86.737C5.30377 86.75 5.15076 86.6855 5.01318 86.6198C4.63261 86.4357 4.33931 86.1756 4.0009 85.9344C3.64641 85.6868 3.2783 85.4633 2.90364 85.2557C2.48848 85.0283 2.03469 84.804 1.56586 84.8797C0.712072 85.0091 0.345022 85.8735 0.681354 86.6742C1.01647 87.4597 3.5212 89.5816 3.90679 89.9263C6.26919 92.0212 8.59891 94.1953 10.6868 96.5572C16.6902 102.821 13.3483 99.2795 15.9113 102.132" fill="#F6D3C3"/>
<path d="M109.939 140.307C110.879 143.222 111.016 143.552 112.062 146.432C112.444 147.498 112.899 148.561 113.058 149.678C113.235 150.943 112.808 152.181 112.426 153.368C112.182 154.101 111.777 154.957 111.965 155.758C112.152 156.591 113.082 156.839 113.753 156.37C114.466 155.865 114.841 154.914 115.361 154.23C115.449 154.111 115.568 154.025 115.709 154.007C115.93 153.995 116.079 154.248 116.143 154.4C116.543 155.337 116.715 155.865 116.951 156.426C117.329 157.325 117.954 159.619 119.24 159.614C119.74 159.606 120.262 159.065 120.314 158.66C120.401 158.003 120.347 157.333 120.241 156.68C120.192 156.351 120.119 156.023 120.046 155.695C119.987 155.434 119.823 155.027 120.025 154.78C120.191 154.58 120.471 154.765 120.61 154.905C120.77 155.058 120.884 155.263 120.993 155.458C121.395 156.206 121.754 156.997 122.261 157.686C122.501 158.019 122.759 158.349 123.085 158.602C123.346 158.798 123.667 158.947 123.99 158.883C124.212 158.831 124.406 158.678 124.551 158.495C124.861 158.088 124.952 157.535 124.896 157.022C124.829 156.372 124.615 155.761 124.4 155.15C124.177 154.513 123.944 153.882 123.739 153.235C123.696 153.096 123.656 152.944 123.731 152.813C123.806 152.683 123.995 152.639 124.145 152.679C124.302 152.721 124.425 152.833 124.532 152.94C124.83 153.241 125.019 153.584 125.258 153.925C125.509 154.276 125.781 154.61 126.065 154.931C126.381 155.284 126.733 155.647 127.201 155.732C128.048 155.895 128.683 155.203 128.634 154.336C128.58 153.484 126.928 150.647 126.68 150.193C125.153 147.43 123.683 144.602 122.504 141.679C118.938 133.769 120.905 138.224 119.442 134.679" fill="#F6D3C3"/>
<path d="M55.1168 80.3131C65.484 74.4098 90 74 100 81.9999C110 89.9999 130.968 144.905 125.561 147.205C120.154 149.505 115.948 148.51 112.945 147.205C109.941 145.901 102.732 119.953 102.732 119.953C102.732 119.953 108.396 144.733 105.066 147.205C101.736 149.677 41.797 147.205 39.2996 147.205C37.1076 147.205 42.7363 124.913 44.1462 119.459C43.6272 120.132 42.3138 120.721 39.0503 120.068C33.0427 118.866 10.8145 98.4404 10.8145 98.4404L19.2251 86.4251C22.2289 87.0261 39.2996 98.4409 39.2996 100.243C39.2996 102.045 44.7496 86.2164 55.1168 80.3131Z" fill="#ECC35D"/>
<path d="M45.4526 223.609C43.2137 223.609 45.4526 214.576 45.4526 214.576L61.1251 213.187C66.3997 214.053 75.4271 222.727 70.8271 223.609C66.227 224.49 47.6915 223.609 45.4526 223.609Z" fill="#2E3192"/>
<path d="M76.6491 223.564C74.5075 223.564 76.6491 213.528 76.6491 213.528L91.6401 211.984C96.6855 212.947 105.32 222.585 100.92 223.564C96.5202 224.544 78.7907 223.564 76.6491 223.564Z" fill="#2E3192"/>
<path d="M76.5879 84.7212C85.0826 83.9288 84.6856 79.343 84.2124 77.9218C83.7392 76.5007 67.644 76.9749 67.1708 77.9215C66.6976 78.8682 68.0933 85.5137 76.5879 84.7212Z" fill="#FF7E3D"/>
<path d="M105.735 148.129C105.735 148.129 39.3868 141.175 40.8778 148.129C42.3688 155.082 44.6052 215.928 44.6052 215.928H69.2064L75.9158 179.421V215.928H97.5351L105.735 148.129Z" fill="black"/>
<path d="M69.6895 79.3868V70.6811L82.9062 69.3418V79.3868C78.5 83 73.5 83 69.6895 79.3868Z" fill="#F6D3C3"/>
</svg>
