<svg width="864" height="256" viewBox="0 0 864 100" fill="none" xmlns="http://www.w3.org/2000/svg">

<path d="M359.127 91.6644C354.889 91.6644 350.366 89.0964 350.366 81.8743V12.6951C350.366 5.12838 354.997 2.43073 359.331 2.43073C362.163 2.43073 364.577 3.57945 366.13 5.65457C367.45 7.42212 368.088 9.72327 368.088 12.6914V71.7248H388.187C392.425 71.7248 396.948 74.3594 396.948 81.7483C396.948 89.1372 392.425 91.657 388.187 91.657H359.127V91.6644Z" fill="#A684A3" className="svg-elem-5"></path>
<path d="M388.191 87.2364H359.127C356.242 87.2364 354.796 85.4503 354.796 81.8781V12.6989C354.796 8.77105 356.342 6.86639 359.331 6.86639C362.319 6.86639 363.661 8.77105 363.661 12.6989V76.1641H388.191C391.075 76.1641 392.521 78.0688 392.521 81.7595C392.521 85.4503 391.075 87.2401 388.191 87.2401V87.2364Z" fill="#A684A3" className="svg-elem-6"></path>
<path d="M427.929 92.9133C425.889 92.9133 420.969 92.1573 419.383 85.1501L404.278 18.3574C403.644 15.5485 403.84 13.1177 404.864 11.1426C405.661 9.60112 407.351 7.5964 410.862 6.80341L439.808 0.26679C440.583 0.0889227 441.35 0 442.08 0C444.116 0 449.017 0.770753 450.627 7.89285C451.264 10.7054 451.105 13.1473 450.152 15.1409C449.377 16.7603 447.716 18.865 444.194 19.658L424.002 24.2196L427.194 38.3415L441.413 35.1287C442.221 34.9472 443.007 34.8545 443.756 34.8545C445.799 34.8545 450.723 35.6216 452.332 42.7326C452.966 45.5414 452.77 47.9722 451.746 49.9473C450.949 51.4888 449.258 53.4935 445.747 54.2865L431.529 57.4992L434.669 71.3914L454.861 66.8298C455.613 66.6631 456.362 66.5741 457.081 66.5741C459.128 66.5741 464.07 67.3523 465.705 74.5745C467.3 81.641 463.407 85.165 459.221 86.1099L430.275 92.6465C429.467 92.828 428.681 92.9207 427.925 92.9207H427.921L427.929 92.9133Z" fill="#E3AC4A" className="svg-elem-7"></path>
<path d="M458.249 81.7781L429.304 88.3147C426.316 88.9891 424.488 87.6032 423.713 84.1682L408.608 17.3754C407.807 13.8292 408.86 11.7911 411.849 11.113L440.794 4.57638C443.679 3.9242 445.51 5.31749 446.311 8.86001C447.112 12.4025 446.111 14.674 443.226 15.3262L418.708 20.8623L423.854 43.6219L442.396 39.4346C445.384 38.7602 447.212 40.1461 448.016 43.696C448.817 47.2422 447.764 49.2803 444.776 49.9584L426.234 54.1457L431.332 76.6792L455.851 71.1431C458.735 70.4909 460.593 71.9954 461.393 75.5416C462.194 79.0878 461.141 81.1259 458.257 81.7781H458.253H458.249Z" fill="#E3AC4A" className="svg-elem-8"></path>
<path d="M528.271 92.2611C526.499 92.2611 522.154 91.6052 520.066 85.517L513.471 65.9961H497.113L490.428 85.517C488.415 91.3866 484.488 92.2611 482.327 92.2611C477.203 92.2611 473.039 88.0145 473.039 82.7897C473.039 81.6484 473.124 80.155 473.747 78.6395L496.186 11.3872C497.676 6.98128 501.146 4.25769 505.247 4.25769C509.348 4.25769 512.9 7.02946 514.409 11.491L536.802 78.8173C537.17 79.9105 537.555 81.2593 537.555 82.7934C537.555 87.9256 533.299 92.2648 528.268 92.2648L528.271 92.2611ZM511.32 46.5085L505.243 28.7366L499.252 46.5085H511.32Z" fill="#F5846F" className="svg-elem-9"></path>
<path d="M486.238 84.0792C485.393 86.5434 484.125 87.8292 482.331 87.8292C479.376 87.8292 477.474 85.2502 477.474 82.7897C477.474 81.7373 477.581 80.911 477.896 80.2106L500.39 12.7879C501.343 9.97538 503.241 8.68213 505.247 8.68213C507.361 8.68213 509.259 10.0902 510.212 12.9028L532.602 80.2069C532.917 81.1444 533.129 81.9671 533.129 82.786C533.129 85.2502 531.123 87.8256 528.272 87.8256C526.477 87.8256 525.102 86.536 524.256 84.0755L516.652 61.5605H493.947L486.235 84.0755H486.238V84.0792ZM497.539 50.9367H513.063L505.251 28.0733L497.539 50.9367Z" fill="#F5846F" className="svg-elem-10"></path>
<path d="M594.738 96.8893C594.356 96.8893 593.97 96.8634 593.596 96.8078C590.941 96.4373 588.743 94.8624 587.067 92.1351C587.004 92.0276 586.945 91.9239 586.889 91.8127L570.505 59.3408L565.789 58.6776L562.452 82.3932C561.685 87.8403 558.411 91.0975 553.695 91.0975C553.209 91.0975 552.697 91.0605 552.182 90.9864C548.589 90.4824 546.736 88.5592 545.812 87.0362C544.659 85.1316 544.277 82.7304 544.678 79.8919L554.188 12.3135C554.544 9.79005 555.363 7.84833 556.687 6.37351C557.777 5.1655 559.734 3.72034 562.882 3.72034C563.383 3.72034 563.905 3.75739 564.439 3.8315L591.32 7.61118C605.204 9.56401 613.031 21.5515 610.792 37.4373C609.835 44.2481 607.099 50.0992 602.891 54.3569C599.728 57.5585 595.895 59.7003 591.616 60.686L602.902 82.2709C602.961 82.3783 603.01 82.4895 603.058 82.597C603.844 84.4497 604.107 86.4693 603.833 88.4406C603.154 93.2505 599.246 96.8819 594.738 96.8819V96.8893ZM586.225 41.5912C586.548 41.6357 586.863 41.6579 587.171 41.6579C590.797 41.6579 592.562 38.3081 592.999 35.1732C593.31 32.9758 592.981 30.9747 592.072 29.5333C591.279 28.266 590.096 27.5175 588.557 27.3026L570.564 24.7716L568.547 39.1048L586.225 41.5912Z" fill="#86AF61" className="svg-elem-11"></path>
<path d="M584.608 56.847L598.975 84.3275C599.454 85.4614 599.606 86.6657 599.443 87.8256C599.035 90.727 596.614 92.754 594.207 92.4205C592.847 92.2315 591.797 91.3718 590.841 89.8155L573.415 55.2759L562.018 53.6714L558.062 81.7707C557.558 85.3725 555.83 87.0252 552.797 86.5953C549.764 86.1692 548.559 84.1052 549.071 80.5034L558.581 12.925C559.085 9.32321 560.798 7.7928 563.827 8.21524L590.707 11.9949C602.839 13.6995 608.174 24.2789 606.409 36.8222C604.693 49.0135 596.451 57.5659 584.608 56.847ZM589.172 22.9152L566.793 19.7692L563.542 42.8771L585.609 45.9823C591.886 46.8643 596.454 42.4176 597.389 35.7994C598.319 29.1813 595.031 23.749 589.176 22.9226V22.9152H589.172Z" fill="#86AF61" className="svg-elem-12"></path>
<path d="M664.982 92.3797C661.393 92.3797 657.886 90.0971 656.043 86.5694L635.863 47.8574V82.145C635.863 89.4635 631.284 92.0685 626.998 92.0685C622.712 92.0685 618.133 89.4635 618.133 82.145V14.9335C618.133 8.42651 622.059 3.88348 627.68 3.88348C633.301 3.88348 635.744 8.34869 636.508 9.81609L656.688 48.4503V14.2442C656.688 11.302 657.356 9.0268 658.735 7.28148C659.843 5.88078 661.92 4.20587 665.549 4.20587C669.179 4.20587 671.259 5.87707 672.364 7.28148C673.743 9.0268 674.411 11.302 674.411 14.2442V81.3409C674.411 85.3948 673.02 87.8775 671.849 89.2523C670.125 91.2755 667.681 92.3909 664.971 92.3909H664.975L664.982 92.3797Z" fill="#80739C" className="svg-elem-13"></path>
<path d="M659.973 84.5202L631.428 29.7704V82.1486C631.428 85.8134 629.982 87.6403 626.997 87.6403C624.013 87.6403 622.567 85.8097 622.567 82.1486V14.9371C622.567 10.5608 624.806 8.31525 627.68 8.31525C630.13 8.31525 631.406 9.6159 632.577 11.8615L661.122 66.4963V14.233C661.122 10.4608 662.568 8.6265 665.553 8.6265C668.538 8.6265 669.983 10.4571 669.983 14.233V81.3297C669.983 85.9394 667.64 87.9515 664.978 87.9515C663.273 87.9515 661.145 86.7694 659.969 84.5239L659.973 84.5202Z" fill="#80739C" className="svg-elem-14"></path>
<path d="M690.245 91.746C685.959 91.746 681.38 89.178 681.38 81.9559C681.38 77.9872 682.904 73.8 686.945 72.3437V22.9967C682.904 21.5478 681.38 17.3902 681.38 13.4474C681.38 8.68578 683.709 3.60175 690.245 3.60175H701.479C705.717 3.60175 710.24 6.18823 710.24 13.4474C710.24 18.9984 707.719 21.8813 704.675 22.9893V72.3622C707.716 73.4739 710.24 76.3753 710.24 81.9596C710.24 89.1743 705.717 91.7497 701.479 91.7497H690.245V91.746Z" fill="#F79A6B" className="svg-elem-15"></path>
<path d="M700.245 19.106V76.2458H701.48C704.365 76.2458 705.811 78.1504 705.811 81.9597C705.811 85.5282 704.365 87.318 701.48 87.318H690.246C687.258 87.318 685.815 85.5319 685.815 81.9597C685.815 78.1504 687.261 76.2458 690.246 76.2458H691.381V19.106H690.246C687.258 19.106 685.815 17.2198 685.815 13.4513C685.815 9.68273 687.261 8.03375 690.246 8.03375H701.48C704.365 8.03375 705.811 9.8013 705.811 13.4513C705.811 17.1013 704.365 19.106 701.48 19.106H700.245Z" fill="#F79A6B" className="svg-elem-16"></path>
<path d="M737.091 106.442C734.882 106.442 729.594 105.597 728.315 97.7416L717.419 30.8229C716.558 25.5573 718.572 19.4134 725.016 18.3648C725.568 18.2758 726.124 18.2277 726.651 18.2277C730.766 18.2277 733.191 20.8586 734.659 22.8374L760.542 57.766L755.021 23.8638C754.539 20.8994 754.832 18.4982 755.911 16.5231C756.782 14.9297 758.592 12.899 762.232 12.3062C762.815 12.2135 763.389 12.1653 763.938 12.1653C766.155 12.1653 771.442 13.025 772.736 20.9809L783.618 87.7848C784.271 91.7831 783.314 94.4585 782.391 95.9963C781.026 98.2901 778.798 99.7908 776.125 100.228C775.687 100.298 775.235 100.336 774.779 100.336C771.594 100.336 768.458 98.6754 766.4 95.8888L740.506 60.8787L746.041 94.8587C746.831 99.6908 745.341 105.231 738.812 106.294C738.229 106.387 737.655 106.435 737.102 106.435L737.091 106.442Z" fill="#ECC35D" className="svg-elem-17"></path>
<path d="M769.952 93.2541L733.18 43.5366L741.651 95.5738C742.263 99.3239 741.106 101.44 738.085 101.929C735.063 102.418 733.298 100.78 732.687 97.0338L721.79 30.115C721.085 25.7795 722.91 23.1968 725.724 22.741C728.122 22.3519 729.583 23.4376 731.092 25.4794L767.846 75.0783L759.389 23.1634C758.758 19.2948 759.911 17.1826 762.933 16.6935C765.955 16.2006 767.72 17.8422 768.354 21.7071L779.235 88.511C779.981 93.0837 778.012 95.4478 775.406 95.874C773.741 96.1445 771.461 95.3107 769.955 93.2727V93.2578L769.952 93.2541Z" fill="#ECC35D" className="svg-elem-18"></path>
<path d="M825.718 91.2346C823.916 91.2346 822.081 91.079 820.257 90.7751C799.653 87.329 787.348 65.4476 791.63 39.8829C795.434 17.1975 811.136 1.34875 829.818 1.34875C831.657 1.34875 833.526 1.50439 835.376 1.81566C842.395 2.99032 848.694 6.01778 853.117 10.3459C857.225 14.3331 861.826 19.7024 860.807 25.7758C860.006 30.5746 856.028 34.1912 851.564 34.1912C851.111 34.1912 850.659 34.1541 850.218 34.08C847.819 33.6761 845.817 32.242 844.271 29.8149C844.241 29.7667 844.211 29.7186 844.182 29.6704C841.572 25.2015 837.171 22.1481 832.117 21.3032C831.168 21.1439 830.215 21.0624 829.285 21.0624C819.534 21.0624 811.518 29.8149 809.338 42.84C806.846 57.6993 812.693 69.3459 823.549 71.1616C824.498 71.3209 825.44 71.4025 826.363 71.4025C833.281 71.4025 839.366 66.726 842.977 58.9073L821.491 55.3092C817.216 54.5903 813.071 51.2516 814.284 44.022C814.606 42.0877 816.189 35.7734 822.915 35.7734C823.501 35.7734 824.112 35.8253 824.735 35.9291L856.294 41.2095C862.82 42.3026 864.307 47.6943 863.524 52.3818C859.691 75.2562 844.148 91.2272 825.722 91.2272L825.714 91.2346H825.718Z" fill="#81AA8E" className="svg-elem-19"></path>
<path d="M855.568 45.5931C858.589 46.0971 859.757 48.0796 859.153 51.6629C855.508 73.4034 839.951 89.5819 820.994 86.4099C802.041 83.238 792.249 63.0538 796.009 40.6203C799.768 18.1868 816.004 3.0681 834.649 6.19189C840.381 7.14792 846.061 9.64548 850.017 13.5178C854.163 17.5383 857.036 21.4699 856.439 25.0569C855.957 27.951 853.447 30.1409 850.944 29.7259C849.795 29.5369 848.853 28.781 848.008 27.4507C844.927 22.1814 839.517 18.0645 832.851 16.9491C819.103 14.6517 807.703 25.8166 804.97 42.1247C802.2 58.6627 808.967 73.2292 822.822 75.5489C835.009 77.587 845.008 69.0382 849.002 55.4388L822.233 50.9625C819.211 50.4585 818.062 48.3612 818.666 44.7779C819.248 41.3095 820.998 39.8162 824.016 40.3238L855.575 45.6043H855.571L855.568 45.5931Z" fill="#81AA8E" className="svg-elem-20"></path>
<path d="M299.38 93.591C284.664 93.591 273.982 83.7082 273.982 70.0903C273.982 61.9529 277.586 54.9716 284.482 49.6245C285.502 48.8315 285.799 47.4234 285.183 46.2857C283.055 42.3504 281.946 38.3114 281.946 34.3761C281.946 29.0326 283.963 23.7782 287.482 19.954C290.281 16.9117 295.346 13.284 303.569 13.284C314.762 13.284 322.889 21.1398 322.889 31.9675C322.889 39.4156 319.427 45.2778 311.833 50.4026C310.528 51.2846 310.287 53.1114 311.318 54.3046C313.342 56.6391 315.326 58.9217 317.187 61.0561C318.544 62.6088 321.076 62.0752 321.688 60.1038C322.63 57.0726 323.397 53.5931 324.005 49.6282L324.146 48.7166C324.343 47.4308 325.448 46.4821 326.749 46.4821H337.327C338.958 46.4821 340.197 47.9458 339.922 49.5541L339.711 50.8102C338.002 60.8597 335.462 68.4932 331.832 74.3665C331.213 75.367 331.354 76.6603 332.158 77.5237C333.742 79.2208 335.343 80.9402 336.993 82.7188C338.046 83.8528 339.121 85.0126 340.237 86.2095L341.921 88.0178C343.485 89.7001 342.291 92.4423 339.993 92.4423H326.182C325.485 92.4423 324.814 92.1643 324.321 91.6715L324.005 91.3565C323.093 90.4449 322.204 89.5334 321.284 88.5736C320.365 87.6139 318.989 87.4953 317.929 88.1994C312.486 91.8197 306.368 93.591 299.38 93.591ZM296.892 61.4563C295.835 60.2631 293.948 60.252 292.928 61.4748C291.1 63.6648 290.203 66.0698 290.203 68.7303C290.203 74.9335 294.626 79.269 300.955 79.269C303.091 79.269 305.186 78.8428 307.114 78.0461C308.786 77.3569 309.242 75.2003 308.026 73.8588C304.863 70.3756 300.955 66.0475 296.888 61.4563H296.892ZM302.943 26.9872C297.993 26.9872 297.744 32.4492 297.744 33.546C297.744 35.2543 298.082 36.8662 298.834 38.5634C299.52 40.1049 301.467 40.6273 302.813 39.612C306.124 37.1108 307.41 34.969 307.41 32.3936C307.41 27.2466 303.691 26.9872 302.946 26.9872H302.943Z" fill="#2E3192" className="svg-elem-21"></path>
<path d="M326.627 88.7367C324.636 86.7468 322.749 84.7569 320.027 81.8258C313.951 87.4805 307.14 89.8891 299.383 89.8891C285.658 89.8891 277.694 80.6734 277.694 70.094C277.694 60.4595 283.455 53.8599 291.527 49.4614V49.1465C287.86 44.5367 285.658 39.4082 285.658 34.3798C285.658 25.794 291.838 16.9933 303.577 16.9933C312.379 16.9933 319.189 22.8592 319.189 31.9712C319.189 39.4082 314.892 45.2704 303.68 50.8214V51.1363C309.653 58.0472 316.36 65.7993 320.865 70.824C324.113 65.903 326.315 59.0959 327.676 50.1914H336.059C334.172 61.2933 331.135 70.0903 325.893 76.2675C329.663 80.2472 333.334 84.227 337.523 88.7293H326.627V88.7367ZM315.519 76.5861C311.329 71.9764 303.469 63.3906 295.609 54.3824C291.838 56.791 286.492 61.2933 286.492 68.7304C286.492 76.7937 292.465 82.9745 300.952 82.9745C307.028 82.9745 312.163 80.2509 315.515 76.5861H315.519ZM294.037 33.5423C294.037 38.5708 296.343 42.4431 299.38 46.2154C306.506 42.1318 311.114 38.3596 311.114 32.3899C311.114 28.0951 308.704 23.2779 302.943 23.2779C297.181 23.2779 294.037 28.0952 294.037 33.5423Z" fill="#2E3192" className="svg-elem-22"></path>
<path d="M20.8498 92.4107C14.2503 92.4107 12.6153 86.1594 12.2742 84.2474L0.250391 17.1915C-0.272381 14.2752 0.0242288 11.7851 1.1328 9.79518C2.00409 8.22773 3.80228 6.21931 7.39124 5.57825C8.00671 5.46708 8.61474 5.4115 9.20055 5.4115C11.3584 5.4115 16.5231 6.25266 17.9171 14.0306L28.165 71.1853L48.542 67.5353C49.1574 67.4241 49.7692 67.3685 50.355 67.3685C57.0027 67.3685 58.6748 73.7903 59.0234 75.7579C59.5276 78.5741 59.231 80.9791 58.1447 82.9059C57.2882 84.4215 55.5345 86.3595 52.0271 86.9895L22.7148 92.2366C22.0771 92.3514 21.4505 92.4107 20.8498 92.4107Z" fill="#F48573" className="svg-elem-23"></path>
<path d="M51.2445 82.6317L21.9285 87.8788C19.018 88.4013 17.2532 86.9302 16.634 83.4655L4.61027 16.4096C3.92807 12.6003 5.15527 10.4733 8.16956 9.93228C11.1838 9.39126 12.8671 10.9958 13.5493 14.8051L24.5794 76.3249L49.3203 71.8967C52.2308 71.3742 54.0178 72.9602 54.6592 76.5398C55.3007 80.1194 54.155 82.113 51.2482 82.6317H51.2445Z" fill="#F48573" className="svg-elem-24"></path>
<path d="M96.5223 94.9415C94.8798 94.9415 93.2003 94.8081 91.5282 94.5524C81.1988 92.9591 72.7232 86.6855 67.6623 76.8917C62.9907 67.8576 61.4484 56.2369 63.3096 44.1827C66.9393 20.7376 81.7623 4.98157 100.2 4.98157C101.884 4.98157 103.608 5.11497 105.324 5.38177C115.657 6.98257 124.14 13.1301 129.216 22.6979C133.928 31.5838 135.5 43.0785 133.647 55.0586C131.915 66.2456 127.637 75.9616 121.278 83.1541C114.456 90.8691 105.895 94.9452 96.5223 94.9452V94.9415ZM99.7405 24.71C90.4752 24.71 83.1341 33.4329 81.0468 46.9285C79.1003 59.5163 82.5261 73.0491 94.5684 74.9093C95.4063 75.039 96.2443 75.1057 97.0488 75.1057C106.366 75.1057 113.77 66.1641 115.909 52.3164C117.029 45.0795 116.276 38.3687 113.785 33.4255C111.342 28.5786 107.478 25.7142 102.299 24.9138C101.431 24.7804 100.571 24.71 99.7368 24.71H99.7405Z" fill="#FDBB46" className="svg-elem-25"></path>
<path d="M104.645 9.75799C123.432 12.6594 132.727 32.0136 129.268 54.3804C125.79 76.8583 110.993 93.085 92.2064 90.1798C73.42 87.2784 64.214 67.3462 67.6954 44.8645C71.1583 22.5014 85.8664 6.85653 104.653 9.76169H104.649L104.645 9.75799ZM102.977 20.5338C89.1995 18.4031 79.1927 29.9088 76.6641 46.2504C74.1022 62.8217 80.1122 77.1585 93.886 79.2855C107.663 81.4162 117.726 69.5621 120.288 52.9945C122.813 36.653 116.751 22.6682 102.973 20.5375H102.977V20.5338Z" fill="#FDBB46" className="svg-elem-26"></path>
<path d="M169.888 93.4963C165.721 93.4963 162.336 90.8357 160.83 86.3779L138.388 19.2294C137.762 17.7138 137.68 16.2205 137.68 15.0755C137.68 9.15398 142.504 5.48547 146.968 5.48547C149.129 5.48547 153.052 6.36369 155.069 12.2296L169.884 56.1035L184.696 12.2518C186.791 6.14506 191.136 5.48918 192.909 5.48918C198.466 5.48918 202.196 10.4472 202.196 15.0792C202.196 16.3354 201.94 17.6323 201.41 19.0293C201.41 19.0293 178.927 86.5261 178.92 86.5484C177.407 90.832 173.948 93.4926 169.884 93.4926H169.888V93.4963Z" fill="#81AA8E" className="svg-elem-27"></path>
<path d="M188.897 13.6748C189.743 11.2106 191.114 9.92474 192.909 9.92474C195.76 9.92474 197.766 12.6224 197.766 15.0866C197.766 15.9055 197.555 16.7282 197.239 17.5508L174.745 85.0884C173.796 87.786 171.894 89.0756 169.888 89.0756C167.775 89.0756 165.981 87.786 165.031 84.9698L142.537 17.6657C142.222 16.9616 142.115 16.1427 142.115 15.0866C142.115 12.6224 144.017 9.92474 146.972 9.92474C148.766 9.92474 150.034 11.2143 150.88 13.6748L169.888 69.9586L188.897 13.6748Z" fill="#81AA8E" className="svg-elem-28"></path>
<path d="M228.016 103.227C225.925 103.227 220.897 102.453 219.44 95.2749L205.774 28.1746C204.825 23.5204 206.123 18.0807 212.607 16.7615L241.69 10.8437C242.398 10.6992 243.099 10.6251 243.77 10.6251C245.853 10.6251 250.855 11.4143 252.342 18.6995C253.821 25.9624 249.861 29.4679 245.657 30.3238L225.369 34.4518L228.257 48.633L242.542 45.7279C243.277 45.5759 244 45.5018 244.689 45.5018C246.78 45.5018 251.811 46.2874 253.295 53.5614C254.244 58.2156 252.946 63.6554 246.461 64.9746L232.176 67.8797L235.016 81.8312L255.3 77.7032C255.99 77.5624 256.676 77.4919 257.328 77.4919C263.802 77.4919 265.585 83.7544 265.975 85.6775C267.42 92.7737 263.442 96.2162 259.249 97.0684L230.166 102.986C229.432 103.138 228.706 103.212 228.012 103.212V103.22L228.016 103.227Z" fill="#5A80AE" className="svg-elem-29"></path>
<path d="M258.367 92.7477L229.284 98.6655C226.285 99.2769 224.483 97.8466 223.778 94.4004L210.112 27.3001C209.385 23.739 210.483 21.7195 213.486 21.1081L242.568 15.1903C245.468 14.6011 247.266 16.0278 247.993 19.5925C248.719 23.1573 247.67 25.4028 244.771 25.992L220.145 31.0019L224.802 53.8653L243.429 50.0745C246.428 49.4631 248.23 50.8934 248.957 54.4544C249.683 58.0155 248.586 60.035 245.583 60.6464L226.956 64.4372L231.564 87.0708L256.19 82.0609C259.089 81.4717 260.91 83.0132 261.637 86.578C262.363 90.1427 261.266 92.1586 258.367 92.7477Z" fill="#5A80AE" className="svg-elem-30"></path>
</svg>
