<svg width="88" height="76" viewBox="0 0 88 76" fill="none" xmlns="http://www.w3.org/2000/svg">
<path d="M60 67L61 70C61 70 70.5 71.5 70 73.5C69.5 75.5 57 76 56.5 75C56.0365 74.073 55.0857 68.2738 54.2061 67.9657L54 68C54.0681 67.9512 54.1369 67.9414 54.2061 67.9657L60 67Z" fill="#F6D3C3"/>
<path d="M68 64L69 67C69 67 78.5 68.5 78 70.5C77.5 72.5 65 73 64.5 72C64.0365 71.073 63.0857 65.2738 62.2061 64.9657L62 65C62.0681 64.9512 62.1369 64.9414 62.2061 64.9657L68 64Z" fill="#F6D3C3"/>
<path d="M67 42.9978C67 42.9978 62.999 25.1213 51.4995 27.9998C40 30.8783 20.9995 17.5023 5.99951 31.5022C-9.00049 45.5021 14 62.4978 14 62.4978C14 62.4978 -0.000488281 73 0 74.9978C0.000488307 76.9955 19.5005 74.4955 24 73.9978C28.4995 73.5 36.6343 72.7597 40 69.9978C43.3657 67.2358 40 63.4978 40 63.4978C40 63.4978 46.5005 58.9956 48 60.4978C49.4995 61.9999 52.4995 72.4999 53 71.9978C53.5005 71.4956 59.5005 68.4956 61 68.9978C62.4995 69.4999 60.0005 66.5021 61 64.9999C61.9995 63.4978 63 68.9978 63 68.9978L70 66.4978L67 42.9978Z" fill="#80739C"/>
<path d="M66.9995 43C66.0394 47.599 64.538 49.5516 59.4995 51.5M57.9995 45.5L61.4995 69" stroke="black" stroke-opacity="0.13" stroke-width="0.4"/>
<path d="M13.9995 62.5C19.2122 64.5668 21.7316 65.4935 22.4995 65" stroke="black" stroke-opacity="0.13" stroke-width="0.4"/>
<path d="M26.4995 47C37.8956 61.0601 40.9156 67.903 26.4995 74" stroke="black" stroke-opacity="0.13" stroke-width="0.4"/>
<path d="M86.4995 25C85.566 39.4699 78.4406 42 68.4995 42C59.2748 42 52.1014 35.4463 51.1153 27C51.0388 26.344 50.9995 25.6766 50.9995 25C50.9995 15.6112 58.5584 8 68.4995 8C78.4406 8 87.4995 9.5 86.4995 25Z" fill="#F6D3C3"/>
<path d="M68.9989 31.0003C71.4993 32.5001 74.4995 32.5 76.7619 30.7516C79.0243 29.0032 77.2674 35.7279 73.0548 35.9572C68.8422 36.1865 66.4986 29.5005 68.9989 31.0003Z" fill="#7D3937"/>
<path d="M79.0218 22.6962C77.2455 22.2525 75.7613 24.7407 76.8222 26.3161C77.5458 23.9745 79.3409 23.2476 80.2689 25.7786C81.0537 24.718 80.5243 23.0722 79.0229 22.6965L79.0218 22.6962Z" fill="#7D3937"/>
<path d="M67.1117 22.6962C65.3353 22.2525 63.8511 24.7407 64.9121 26.3161C65.6356 23.9745 67.4308 23.2476 68.3588 25.7786C69.1436 24.718 68.6142 23.0722 67.1128 22.6965L67.1117 22.6962Z" fill="#7D3937"/>
<path d="M82.3192 32.457C83.9247 32.3536 85.1421 30.8777 85.0385 29.1605C84.935 27.4432 83.5496 26.1349 81.9441 26.2383C80.3387 26.3415 79.1211 27.8175 79.2247 29.5348C79.3283 31.252 80.7136 32.5603 82.3192 32.457Z" fill="#F1B0AB"/>
<path d="M63.9935 33.3456C65.599 33.2422 66.8165 31.7664 66.7128 30.0491C66.6094 28.3319 65.2239 27.0235 63.6184 27.1269C62.013 27.2302 60.7954 28.7061 60.899 30.4234C61.0026 32.1407 62.3879 33.449 63.9935 33.3456Z" fill="#F1B0AB"/>
<path d="M86.4999 20C86.0296 14.8357 82.715 12.6742 77.8032 11.6982C76.3809 12.1614 79.644 14.4971 80.3783 14.8874C76.1715 18.6589 67.3217 13.144 66.6779 12.5485C65.5685 12.8198 67.3689 14.7584 69.881 16.5945C69.6011 17.6664 63.9371 15.1984 63.6911 15.8469L64.5159 17.1206C64.1907 18.864 51.6273 15.3464 53.8918 17.6721C53.9158 20.9275 54.0208 24.4063 51.5 27C50.2844 22.9539 50.1962 18.377 50.9995 24C47.1719 18.1774 48.2006 13.3425 50.3036 8.61488C52.6304 3.36788 57.1304 2.9411 62.2521 0.959421L61.3254 0C73.9853 3.13629 79.8783 -1.01567 87.1754 7.54957L85.7334 8.18809C89.6489 16.1711 86.4999 12.0666 86.4999 20Z" fill="#3F3F3F"/>
<path d="M73.0706 27C73.6357 27.7083 73.368 28.3196 73.0996 28.7243" stroke="#D99288" stroke-width="0.5" stroke-linecap="round"/>
</svg>
