<svg width="447" height="387" viewBox="0 0 447 387" fill="none" xmlns="http://www.w3.org/2000/svg">
<path d="M307.312 127.596C307.315 258.031 229.704 342.346 229.704 342.346C229.704 342.346 153.656 258.031 153.656 127.596C153.656 -2.83956 307.31 -2.8395 307.312 127.596Z" fill="#E3AC4A"/>
<path d="M38.464 164.603C89.7476 285.794 227.224 341.532 227.224 341.532C227.224 341.532 221.913 222.288 170.628 101.099C119.342 -20.0908 -12.8194 43.4124 38.464 164.603Z" fill="#F5846F"/>
<path d="M408.502 164.603C357.219 285.794 227.227 341.532 227.227 341.532C227.227 341.532 225.052 222.288 276.338 101.099C327.623 -20.0908 459.786 43.4124 408.502 164.603Z" fill="#7D7499"/>
</svg>
